<?xml version="1.0" standalone="no"?>
<!DOCTYPE svg PUBLIC "-//W3C//DTD SVG 1.1//EN" "http://www.w3.org/Graphics/SVG/1.1/DTD/svg11.dtd" >
<svg xmlns="http://www.w3.org/2000/svg" xmlns:xlink="http://www.w3.org/1999/xlink" version="1.1">
<metadata>
Created by FontForge 20170910 at Fri May 22 16:26:08 2015
 By Jimmy Wärting
Copyright (c) 2009 by Peter Wiegel.   Open Font under Terms of following Free Software Licenses:
GPL (General Public License) with font-exception and OFL (Open Font License
</metadata>
<defs>
<font id="Feronia" horiz-adv-x="468" >
  <font-face 
    font-family="Feronia"
    font-weight="400"
    font-style="italic"
    font-stretch="normal"
    units-per-em="1000"
    panose-1="0 0 0 0 0 0 0 0 0 0"
    ascent="750"
    descent="-250"
    x-height="489"
    cap-height="676.5"
    bbox="-338 -198 1208 911.857"
    underline-thickness="50"
    underline-position="-100"
    slope="-16"
    unicode-range="U+0020-FB05"
  />
<missing-glyph horiz-adv-x="222" 
 />
    <glyph glyph-name=".notdef" horiz-adv-x="222" 
 />
    <glyph glyph-name="A" unicode="A" horiz-adv-x="685" 
d="M491 693q45 0 83 -16t66.5 -43t44.5 -61.5t16 -71.5q0 -50 -18 -103t-39.5 -107t-39.5 -108.5t-18 -106.5q0 -6 6 -10t11 -4q10 0 17.5 5t15 11t15 11t17.5 5q9 0 17 -5t8 -16q0 -12 -13.5 -23t-32 -19.5t-37 -13.5t-28.5 -5q-23 0 -41.5 11t-18.5 37q0 22 6.5 50
t15.5 57.5t19.5 56.5t18.5 48q9 24 19.5 48.5t19.5 49.5t15 50.5t6 51.5q0 47 -14.5 79t-40.5 52t-62.5 29t-79.5 9q-58 0 -106.5 -14t-84 -42.5t-55 -72t-19.5 -103.5q0 -20 9.5 -40.5t24 -38t30.5 -28.5t28 -11q7 0 8 4t4 11q7 15 10 27t8 28l12 33t16.5 47t15 48t6.5 37
q0 10 -11 10.5t-23.5 -0.5t-23.5 0.5t-11 14.5q0 12 11.5 20.5t27 14t32 7.5t26.5 2q18 0 30 -15.5t8 -32.5q-8 -34 -20 -69t-25 -70.5t-24.5 -70.5t-18.5 -69q-2 -8 7 -12t21 -6t24.5 -2.5t17.5 -0.5q18 0 34.5 4.5t32.5 10.5t31 10.5t29 4.5q8 0 13.5 -4.5t5.5 -12.5
q0 -9 -6 -16t-14 -12q-31 -18 -54.5 -25.5t-46.5 -9t-48 1t-58 3.5q-9 0 -15.5 -14t-13 -35t-15 -46t-22 -46.5t-33.5 -35.5t-49 -14q-8 0 -23 2.5t-30 8t-26 13t-11 16.5q0 11 11.5 17.5t21.5 6.5q14 0 23 -7t26 -7q19 0 35.5 20.5t28.5 47t19 52t7 35.5q0 16 -19 26.5
t-42.5 29t-42.5 52t-19 96.5q0 83 31 136t81.5 83.5t115.5 42t133 11.5z" />
    <glyph glyph-name="zero" unicode="0" horiz-adv-x="531" 
d="M439 701q21 0 31 -3t28 -14q10 -6 20.5 -9.5t19.5 -10.5q26 -18 42.5 -42.5t25.5 -52t12.5 -57t3.5 -58.5q0 -134 -58 -242.5t-174 -175.5q-17 -9 -34.5 -16.5t-37.5 -7.5q-33 0 -71 13.5t-70.5 37t-53 55.5t-17.5 70q-5 9 -6.5 19t-1.5 21q0 51 8.5 106t26.5 107.5
t45.5 99.5t65 82.5t86.5 56.5t109 21zM230 512v-4l-14 1l-10 -5q5 -1 6.5 -4.5t1.5 -7.5h8q-17 -18 -28.5 -51.5t-18 -72t-9 -76t-2.5 -61.5q0 -32 9 -61.5t26.5 -53t43.5 -37.5t61 -14q40 0 75 18.5t64 49.5t51 71t37 82t23 83t8 75q0 33 -7.5 69t-24 66t-43.5 49.5
t-67 19.5q-33 0 -60.5 -12t-50.5 -31t-42.5 -43.5t-36.5 -49.5z" />
    <glyph glyph-name="one" unicode="1" horiz-adv-x="247" 
d="M394 700q9 0 15 -7t6 -16q0 -11 -3.5 -25t-8 -29t-9.5 -29t-8 -26q-16 -56 -35.5 -112t-38.5 -112.5t-36.5 -113.5t-29.5 -114q-5 -19 -6.5 -38.5t-9.5 -37.5q-6 -15 -21 -25.5t-31 -10.5q-9 0 -19 11t-10 20q0 20 11 41t18 40q39 112 72.5 225t71.5 225q-1 4 -3.5 11.5
t-7.5 7.5q-11 0 -26 -10.5t-32 -23t-33.5 -23t-29.5 -10.5q-10 0 -22 5.5t-12 17.5l7 15q3 5 13.5 11t23 12t25 11.5t18.5 9.5q11 6 32.5 22.5t45 34t44 30.5t29.5 13z" />
    <glyph glyph-name="two" unicode="2" horiz-adv-x="510" 
d="M403 693q38 0 76.5 -10t69 -31t50 -52.5t19.5 -74.5q0 -56 -17.5 -95.5t-47 -67t-68.5 -46.5t-82 -35t-87.5 -31.5t-84.5 -37t-73.5 -51t-54.5 -73.5q10 -10 23.5 -8t25.5 2q19 0 36 -4t33 -9t31.5 -9t31.5 -4q39 0 76 5t71 27q13 9 19.5 23t12.5 28t13.5 24t24.5 10
q13 0 23.5 -9.5t10.5 -22.5q0 -42 -27.5 -68t-66.5 -40.5t-81.5 -19.5t-72.5 -5q-18 0 -34 3.5t-32 7.5t-32 7.5t-33 3.5t-31.5 -5t-26.5 -10.5t-22 -10.5t-17 -5q-14 0 -25 9.5t-11 23.5q0 32 15 59t33 53q37 53 88 85t105.5 53.5t107.5 38.5t94.5 41.5t67.5 61t26 97.5
q0 30 -12 53.5t-31.5 39.5t-45.5 24t-54 8q-31 0 -65.5 -7t-63.5 -23t-48 -42t-19 -64q0 -14 4 -28.5t4 -28.5t-7 -26.5t-24 -12.5q-12 0 -20.5 5.5t-14 14.5t-8 19.5t-2.5 20.5q0 55 19.5 96.5t53.5 68.5t79.5 40.5t97.5 13.5z" />
    <glyph glyph-name="three" unicode="3" horiz-adv-x="493" 
d="M413 689q44 0 80 -9.5t62 -29.5t40 -53t14 -79q0 -34 -18 -60t-40 -45.5t-40.5 -31.5t-18.5 -17q9 -17 17.5 -30.5t14.5 -27.5t9.5 -29.5t3.5 -36.5q0 -47 -19.5 -89t-52.5 -73t-76.5 -49t-90.5 -18q-35 0 -64.5 2t-56.5 10t-51.5 23t-49.5 42q-9 10 -19 19.5t-10 24.5
q0 11 6 19t15 13q15 0 25.5 -7.5t21 -18.5t22.5 -24t31.5 -24.5t48 -19t71.5 -7.5q34 0 68 12t60.5 33.5t43 52t16.5 67.5q0 34 -5.5 54.5t-14.5 32t-21 17t-25.5 9.5t-27 9.5t-26.5 17.5q-2 6 -2 9q0 15 14.5 22.5t36.5 12.5t47 11t47 18t36.5 33.5t14.5 58.5q0 22 -8 42
t-22 35.5t-33.5 24.5t-42.5 9q-58 0 -96 -14.5t-62.5 -32.5t-38.5 -32.5t-24 -14.5q-14 0 -19 9t-5 21q0 10 5 16t12 12q24 21 45 36t44 25t49 15t59 5z" />
    <glyph glyph-name="four" unicode="4" horiz-adv-x="501" 
d="M387 700q8 0 12.5 -5t4.5 -13q0 -34 -17.5 -75t-41.5 -81t-49 -74.5t-41 -55.5q-4 -5 -14 -19t-23 -32t-27.5 -38t-26.5 -37.5t-19.5 -31t-7.5 -17.5q3 -4 24.5 -4.5t48.5 0.5t51 2.5t32 1.5q6 0 19 -1t26 -0.5t24 3t13 9.5q6 18 15.5 53.5t22 71.5t28 65t34.5 34
q10 -3 17.5 -9.5t7.5 -17.5q0 -19 -9 -42t-19.5 -47.5t-19.5 -49t-9 -46.5q0 -8 7 -12.5t14 -4.5q12 0 23 3t23 3q14 0 23.5 -9.5t9.5 -23.5q0 -16 -12.5 -23t-29.5 -9t-34.5 -1t-27.5 1q-13 0 -20.5 -11.5t-13 -28.5t-9.5 -36.5t-10 -36.5t-15.5 -28.5t-24.5 -11.5
q-12 0 -21.5 8t-9.5 21t5.5 26t12.5 26t12.5 25.5t5.5 26.5q0 9 -5 13.5t-12.5 7t-16 3t-14.5 0.5q-48 0 -95 -6t-94 -6q-15 0 -33 7.5t-18 26.5q0 2 2 9t3 9q3 7 19 30t35.5 50t38 51.5t26.5 36.5q42 60 73.5 117.5t55 102.5t40.5 72.5t31 27.5z" />
    <glyph glyph-name="five" unicode="5" horiz-adv-x="449" 
d="M556 704q13 0 25.5 -5.5t12.5 -21.5q0 -19 -17.5 -25.5t-41 -7t-47 2.5t-34.5 3q-15 0 -40.5 1t-51 -1t-46.5 -8.5t-27 -21.5q-4 -10 -10.5 -27t-12.5 -35.5t-10 -35.5t-4 -27t8.5 -13t20 -2.5t23 2.5t17.5 2q94 0 139.5 -47.5t45.5 -139.5q0 -65 -21 -118.5t-58.5 -91.5
t-88.5 -59t-111 -21q-16 0 -42.5 5.5t-54.5 14.5t-52.5 20t-36.5 21q-2 5 -4 10.5t-2 11.5q0 14 10.5 22t23.5 8q10 0 24 -9.5t33.5 -21.5t46 -21.5t61.5 -9.5q52 0 93 19t69 50.5t42.5 73t14.5 87.5q0 31 -8.5 58.5t-25 47.5t-39.5 31.5t-51 10.5q-36 -1 -53.5 -5.5
t-27 -10t-16.5 -9.5t-22 -4q-11 0 -24.5 5t-13.5 19q0 2 5.5 20t13.5 44t18 56.5t19 57t15.5 45.5t9.5 22q9 13 21.5 14.5t26.5 1.5q35 0 69.5 1t69.5 1q29 0 58 5t58 5z" />
    <glyph glyph-name="six" unicode="6" horiz-adv-x="520" 
d="M453 697q10 0 30.5 -2t40.5 -7.5t35 -15t15 -24.5q0 -14 -5.5 -22.5t-20.5 -8.5q-13 0 -25.5 4t-24.5 9t-24 9t-25 4q-51 0 -93.5 -20t-76 -53.5t-59 -77.5t-42 -92t-25 -97t-8.5 -92q0 -29 11.5 -57t31.5 -50t46 -35t56 -13q48 0 91 24.5t75.5 62.5t51 85t18.5 92
q0 71 -30 111.5t-106 40.5q-20 0 -35 -10t-28 -23t-26.5 -26t-29.5 -19q-11 0 -21.5 8t-10.5 20q0 19 21 37t49.5 32t58 23t45.5 9q46 0 78.5 -14t53.5 -39.5t30.5 -60.5t9.5 -77q0 -110 -57.5 -190.5t-157.5 -121.5q-15 -6 -30 -11t-32 -5q-114 0 -167.5 58t-53.5 170
q0 48 12 101.5t34.5 105t54.5 98.5t72.5 82.5t89 56.5t103.5 21z" />
    <glyph glyph-name="seven" unicode="7" horiz-adv-x="460" 
d="M565 700q8 0 19 1t21 0t17 -5.5t7 -15.5q0 -17 -8.5 -29t-19.5 -23q-42 -40 -81 -98.5t-73.5 -124t-64 -132t-53.5 -121.5q-5 -11 -11.5 -33t-15 -44t-19.5 -38t-24 -16q-14 0 -24.5 11.5t-10.5 25.5q0 13 12 44.5t31 73t42 87.5t45 87.5t40 74.5t27 47q11 18 24 35.5
t24 36.5q3 5 11 18.5t16.5 28t15 25.5l6.5 11q0 12 -10 14.5t-19 2.5h-26.5t-42.5 -0.5t-50 -1.5t-48.5 -2t-39 -3t-20.5 -5q-11 -7 -16.5 -28.5t-11 -44t-15 -40t-29.5 -17.5q-13 0 -24.5 8t-11.5 22q0 20 10 42t14 42q8 40 24 58t39.5 23.5t54 3.5t67.5 -2q53 0 101.5 0.5
t100.5 0.5z" />
    <glyph glyph-name="eight" unicode="8" horiz-adv-x="509" 
d="M412 690q31 0 67.5 -8t67.5 -25.5t51.5 -44t20.5 -63.5q0 -21 -6 -43t-16.5 -42.5t-25 -38t-31.5 -29.5q-3 -2 -11 -5t-16 -6.5t-14 -7.5t-6 -8q0 -5 4 -8t7 -5q10 -8 19 -21t15.5 -28t10 -30.5t3.5 -28.5q0 -44 -15.5 -85t-43.5 -73.5t-67 -53.5t-86 -24
q-59 -4 -109 2.5t-86.5 26.5t-57 55.5t-20.5 90.5q0 36 11.5 68.5t32 59.5t48.5 48t61 33q6 0 12.5 2.5t6.5 10.5q0 4 -8 14t-17.5 24t-17.5 32.5t-8 40.5q0 46 20.5 78t53 52.5t72 30t78.5 9.5zM244 520q0 -19 12 -38t30 -34t39 -24.5t39 -9.5q28 0 60.5 3t60.5 14t47 32.5
t19 59.5q0 34 -11.5 57t-32 37t-47 20.5t-56.5 6.5q-31 0 -60 -6t-51 -20t-35.5 -38t-13.5 -60zM122 187q0 -36 17 -61t43 -40.5t58 -22.5t61 -7q43 0 78.5 11.5t60.5 35t39 57.5t14 79q0 35 -17.5 59t-44 39t-58.5 22t-61 7q-37 0 -71 -14t-60.5 -38t-42.5 -56.5t-16 -70.5
z" />
    <glyph glyph-name="nine" unicode="9" horiz-adv-x="516" 
d="M399 694q46 0 86 -14t69 -41t45.5 -66t16.5 -89q0 -78 -25 -162t-72.5 -154t-116.5 -115t-158 -45q-7 0 -27.5 3t-41.5 9t-36 14t-11 18l-1 6q0 9 6 15.5t15 6.5q12 0 23.5 -4t23 -8.5t23 -8t23.5 -3.5q80 0 139.5 40.5t98.5 102.5t58 137t19 144q0 22 -7.5 50.5
t-25.5 53.5t-48.5 42t-76.5 17q-44 0 -83.5 -28t-69.5 -69.5t-48 -88.5t-18 -84q0 -64 26 -102.5t95 -38.5q27 0 43 10t28.5 22.5t25 22.5t32.5 10q12 0 21.5 -10t9.5 -22q0 -18 -18 -34t-43 -28t-50 -19t-40 -7q-91 0 -141 41.5t-50 129.5q0 58 21.5 119.5t59 111.5
t89 82.5t111.5 32.5z" />
    <glyph glyph-name="B" unicode="B" horiz-adv-x="680" 
d="M427 692q30 0 65.5 -2t71.5 -8t69.5 -17.5t59.5 -31t41.5 -48.5t15.5 -69q0 -18 -4 -38t-11 -39.5t-15.5 -36.5t-17.5 -29q8 -8 13 -21.5t8 -29.5t4 -33t1 -31q0 -26 -3.5 -46t-11 -38t-18.5 -36t-25 -39q-26 -38 -62.5 -58.5t-79 -30.5t-87 -12t-85.5 -2q-45 0 -88.5 4
t-88.5 4q-11 0 -19.5 -4.5t-19.5 -4.5l-9 1q-6 5 -13 12t-7 16q0 10 11 14.5t25.5 8.5t29 8.5t22.5 14.5q1 1 11.5 34t26.5 81.5t34 105t33.5 105t25.5 81t10 33.5q0 6 -11 8.5t-24.5 6t-24.5 10t-11 20.5q0 11 11.5 17t26.5 8.5t30 3t23 0.5q17 0 30 -8.5t13 -27.5
q0 -10 -6 -32t-15 -51t-20.5 -61.5t-22 -62.5t-19.5 -55t-13 -38q-15 -47 -27.5 -93.5t-24.5 -94.5q4 -4 10.5 -6.5t20 -3.5t37.5 -1.5t62 -0.5q53 0 104 10.5t90.5 35t63.5 66.5t24 105q0 16 -3 36t-17 31q-15 -8 -27.5 -13t-24.5 -8.5t-25.5 -5t-30.5 -1.5t-38.5 4.5
t-40.5 14.5t-32 25t-13 36q0 23 12 40t30.5 28.5t40.5 17t42 5.5q32 0 67 -11t58 -28q17 13 21.5 31.5t4.5 32.5q0 47 -25 74.5t-62 41.5t-80 18t-78 4q-51 0 -97.5 -12.5t-81.5 -39t-56 -67.5t-21 -97q0 -17 6.5 -33t6.5 -33q0 -11 -8 -17t-18 -6q-11 0 -18.5 8t-13 19.5
t-8 24t-2.5 20.5q0 66 21.5 119t60 90.5t92 57.5t118.5 20zM479 392q0 -9 6.5 -16t15.5 -11.5t19 -6.5t18 -2q9 0 22.5 1.5t27 5t25.5 9t18 12.5q-6 11 -16.5 18t-23.5 11t-26.5 5.5t-24.5 1.5q-7 0 -17.5 -0.5t-20 -3.5t-16.5 -8.5t-7 -15.5z" />
    <glyph glyph-name="C" unicode="C" horiz-adv-x="554" 
d="M496 696q45 0 76.5 -17t52 -45t30 -64t9.5 -74q0 -53 -19 -101.5t-53 -86.5t-80.5 -60.5t-100.5 -22.5q-9 0 -28 3.5t-38 10t-33.5 16t-14.5 21.5q0 11 9.5 18t19.5 7q11 0 21 -4t20 -8.5t20 -8.5t20 -4q45 0 81.5 19.5t62 51.5t39.5 72.5t14 82.5q0 41 -11.5 68
t-32.5 42.5t-51 21.5t-68 6q-42 0 -79 -16.5t-68 -44t-56 -63.5t-42.5 -76t-26.5 -80.5t-9 -77.5q0 -51 15 -93t43 -72t69 -46.5t94 -16.5q27 0 44.5 3.5t31.5 10t29 16t37 20.5q12 0 23 -5.5t11 -19.5q0 -19 -21 -33.5t-51.5 -24.5t-64.5 -15.5t-59 -5.5q-54 0 -102 22.5
t-83.5 60t-56.5 86t-21 101.5q0 50 11.5 99.5t33 95.5t52 86.5t68.5 72.5q53 43 109.5 57.5t123.5 14.5z" />
    <glyph glyph-name="D" unicode="D" horiz-adv-x="700" 
d="M484 689q69 0 122.5 -25t91 -68.5t57 -101.5t19.5 -123q0 -62 -16 -111t-52 -100q-43 -60 -91 -93t-102.5 -48.5t-116 -18.5t-131.5 -3q-9 0 -29.5 -0.5t-42 1.5t-37.5 7.5t-16 16.5q0 10 5.5 14.5t14 6t17.5 1t15 -0.5q5 0 11 1t11 4q8 5 11 20t5 24q4 15 16 50.5
t27.5 80.5t32 93.5t31 90.5t23.5 71t9 34q0 10 -9.5 13t-21 4.5t-21 5.5t-9.5 16q0 7 9.5 16t16.5 9h72q12 0 20 -10.5t8 -21.5q0 -4 -10 -36.5t-25 -80t-33.5 -102.5t-34.5 -104t-28.5 -86t-16.5 -47q-2 -5 -3.5 -10t-1.5 -10q0 -13 9 -16.5t20 -3.5q26 0 61.5 0.5t71.5 5
t69 13t54 25.5q36 27 64 56.5t47.5 63.5t29.5 73.5t10 86.5q0 57 -16 106t-47.5 85t-77.5 57t-106 21q-44 0 -84 -6.5t-74.5 -23t-62 -44.5t-46.5 -71q-14 -30 -23.5 -61t-9.5 -65q0 -32 9 -61t9 -58q0 -8 -4.5 -15t-12.5 -7q-14 0 -23.5 14t-15 33t-8 38t-2.5 30
q0 56 8 100t27.5 81t51.5 67.5t81 59.5q49 28 99 32.5t95 4.5z" />
    <glyph glyph-name="E" unicode="E" horiz-adv-x="565" 
d="M217 414q-14 -5 -27.5 -18t-24.5 -33t-18 -47.5t-7 -62.5q0 -38 12.5 -74.5t38 -65.5t65 -46.5t94.5 -17.5q56 0 90.5 15t55 38t30 49.5t16.5 49.5t15.5 38t25.5 15q20 0 23.5 -13.5t3.5 -28.5q0 -44 -24 -82.5t-61.5 -67t-82 -45.5t-84.5 -17q-51 0 -100 12.5
t-87.5 40.5t-62 73t-23.5 110q0 48 7.5 81.5t22 59t36 45.5t49.5 40q-3 4 -4 17t1 30t7 35t14 32q16 25 40.5 46t53.5 36t60.5 23t60.5 8q31 0 63.5 -9t61.5 -24.5t53.5 -38t38.5 -49.5q0 -11 -8 -21.5t-20 -10.5q-5 0 -22.5 16t-44.5 35.5t-61 36t-72 16.5q-28 0 -59.5 -11
t-57.5 -30.5t-42 -47t-13 -59.5q11 6 26 10t30.5 6t30 3t25.5 1q19 0 43 -5t45 -16t35.5 -28t14.5 -41q0 -32 -12.5 -51.5t-32 -30.5t-44.5 -14.5t-50 -3.5q-23 0 -47.5 10.5t-45.5 25t-35.5 30t-15.5 26.5zM263 440q3 -19 20 -32t38.5 -21t43 -11.5t33.5 -3.5q16 0 31 14
t15 30q0 17 -11 26.5t-26.5 14t-32 5t-28.5 0.5q-6 0 -16 -1t-22 -3.5t-24 -6.5t-21 -11z" />
    <glyph glyph-name="F" unicode="F" horiz-adv-x="635" 
d="M470 689q24 0 49 -4.5t49.5 -10t49 -10t48.5 -4.5q15 0 28.5 4t26.5 9t26 9t26 4q9 0 18.5 -5t9.5 -16q0 -18 -16 -29t-38 -17.5t-44.5 -8.5t-34.5 -2q-25 0 -49 4.5t-48 9.5t-48.5 9.5t-48.5 4.5q-58 0 -112 -19t-96 -54.5t-67 -85.5t-25 -111q0 -30 6 -57.5t20.5 -47.5
t37.5 -32t57 -12q13 0 25 3.5t22.5 8t20.5 8t20 3.5q11 0 19 -8q11 -4 11 -15q0 -18 -14 -28.5t-35 -16t-46 -7.5t-47 -2q-32 0 -60.5 18t-49.5 45.5t-33 60.5t-12 62q0 72 29 134t78 108t113 72t134 26zM630 569q14 0 17.5 -7.5t3.5 -21.5q0 -16 -5 -28.5t-11.5 -25.5
t-12.5 -30t-8 -42q11 -2 28 1t28 3t23.5 -6.5t12.5 -19.5q0 -15 -14 -21t-32 -8t-35.5 -3t-24.5 -8t-13.5 -36t-17.5 -69t-29.5 -84.5t-49.5 -82t-76.5 -62.5t-110.5 -25q-12 0 -35 4t-46.5 12t-41 19.5t-17.5 26.5q0 11 8 15t17 4q13 0 26 -4t26 -9t26.5 -9t27.5 -4
q57 0 93 14.5t59.5 40.5t39 63.5t31.5 82.5q2 6 6.5 19t9 27t7.5 26.5t3 18.5t-5 9.5t-11 3.5q-11 -2 -29 -4t-29 -2q-6 0 -14.5 0.5t-17 2.5t-14.5 6.5t-6 13.5q0 16 19.5 21.5t44.5 8t48 5t30 11.5q10 13 14 38.5t9.5 51t15.5 44.5t32 19z" />
    <glyph glyph-name="G" unicode="G" horiz-adv-x="625" 
d="M491 678q12 0 36 -1.5t53 -5.5t59.5 -10.5t55 -16.5t40.5 -23t16 -31q0 -12 -8.5 -20t-20.5 -8q-14 0 -34 11t-47 24.5t-60.5 24.5t-74.5 11q-18 0 -42 -2.5t-49 -6.5t-48 -10.5t-39 -13.5q-26 -12 -51.5 -37t-45.5 -56t-33 -64.5t-13 -62.5q0 -38 16.5 -65.5t42.5 -44.5
t59 -25t66 -8q42 0 75.5 10t60.5 25t48.5 33t38.5 33t31 25t26 10q11 0 20.5 -5.5t14.5 -15.5q0 -14 -4.5 -25t-11 -21.5t-14.5 -20.5t-14 -21q-11 -20 -14.5 -43.5t-13.5 -44.5q-30 -62 -70.5 -99.5t-90 -58t-107 -27.5t-120.5 -7q-30 0 -67 4.5t-69.5 18t-55 37.5
t-22.5 63q0 19 6 37.5t17.5 33t28 23.5t37.5 9q12 0 25 -7t13 -21t-10 -20.5t-22.5 -11.5t-22.5 -12.5t-10 -23.5q0 -6 2.5 -9.5t5.5 -8.5q17 -23 35.5 -36.5t39.5 -20t46 -8t55 -1.5q58 0 112.5 11t98.5 37.5t75 71t41 110.5q-16 -16 -41 -28.5t-55 -21.5t-63.5 -13.5
t-66.5 -4.5q-39 0 -79 11.5t-72.5 34t-53.5 56t-21 78.5q0 73 31.5 130t82.5 96t115.5 59.5t130.5 20.5z" />
    <glyph glyph-name="H.001" horiz-adv-x="705" 
d="M495 684q15 0 50 -3.5t71.5 -12t64.5 -22t28 -34.5q0 -13 -11.5 -20.5t-22.5 -7.5q-22 0 -39 7.5t-37.5 16.5t-47.5 16.5t-69 7.5q-32 0 -75.5 -11.5t-84 -34t-70 -56t-32.5 -76.5q12 6 28.5 14.5t39.5 16.5t54 14t72 6q61 0 110.5 -17t84 -50t53 -81.5t18.5 -111.5
q0 -57 -18.5 -113.5t-50.5 -106t-75 -89.5t-92 -66q-20 -11 -46.5 -16.5t-54 -8t-55 -3t-49.5 -0.5q-9 0 -22 0.5t-24.5 4t-20 10.5t-8.5 20q0 12 10 20t21 8q15 0 30 -3t30 -3q32 0 63.5 2t62.5 11q53 15 96.5 48t74.5 77t48 95.5t17 104.5q0 37 -11.5 75t-34.5 69
t-56.5 51t-77.5 20q-30 0 -68.5 -6.5t-75.5 -21t-67.5 -38.5t-44.5 -58q-11 -26 -24 -62.5t-26 -75.5t-24 -76.5t-18 -65.5q-2 -8 -5.5 -17.5t-9 -17.5t-13 -13.5t-17.5 -5.5q-19 0 -19 23q0 19 7 47.5t16.5 59.5t20 60t16.5 48q14 42 25 80.5t21.5 74.5t22.5 70t27 67
q21 46 56 76.5t77 49t89 26.5t92 8z" />
    <glyph glyph-name="I" unicode="I" horiz-adv-x="493" 
d="M608 676q11 0 19.5 -7t8.5 -18q0 -8 -3 -18t-7 -20.5t-9 -20t-8 -16.5q-27 -56 -45 -114t-34 -117t-33 -119t-41 -120q-11 -26 -21 -46.5t-34 -35.5q-20 -13 -48 -19t-51 -6q-9 0 -22.5 2t-26 7t-22 12.5t-9.5 19.5t8.5 17t19.5 5q17 0 31.5 -7t31.5 -7q8 0 18 1.5
t19.5 4.5t18 8.5t12.5 13.5q9 17 20 47.5t23 67.5t24 77t23 77.5t20 69t14 49.5q2 6 8.5 24.5t13.5 39.5l12.5 37.5t5.5 18.5q0 15 -17.5 24t-41 14t-46.5 6.5t-34 1.5q-42 0 -80 -14t-67.5 -39.5t-47 -61.5t-17.5 -79q0 -26 4.5 -47.5t15.5 -36.5t29 -23.5t46 -8.5
q16 0 30 8t30 8q9 0 19 -3.5t10 -17.5q0 -16 -14 -26t-33.5 -15.5t-39 -7.5t-30.5 -2q-29 0 -52.5 14.5t-40.5 37.5t-26.5 50.5t-9.5 53.5q0 45 15.5 85t42.5 72.5t64 55.5t79 35q29 8 56 8.5t54 -2.5t54 -6.5t56 -3.5q14 0 27.5 6t27.5 6z" />
    <glyph glyph-name="J" unicode="J" horiz-adv-x="640" 
d="M462 685q37 0 64 -4t47 -8t36 -7.5t31 -3.5q17 0 28.5 8.5t25.5 8.5q11 0 17.5 -9.5t6.5 -19.5q0 -17 -7.5 -43t-18.5 -56t-23.5 -63t-23.5 -64.5t-18.5 -59t-7.5 -47.5q0 -7 1 -9.5t9 -1.5q12 4 19 9.5t21 5.5q4 0 8 -7t4 -10q0 -22 -11 -35.5t-27 -24t-33 -19.5
t-29 -21q-19 -19 -29.5 -55.5t-20.5 -79.5t-23.5 -88t-37.5 -82t-61.5 -60.5t-96.5 -23.5q-13 0 -29.5 0.5t-31 4.5t-24.5 12.5t-10 23.5q1 18 13 22t28 2.5t32.5 -6t25.5 -4.5q34 0 61 14q10 5 23 25t26 48t25.5 60.5t22 62.5t16 54t6.5 35q1 15 -4 18.5t-11 5.5t-11 6.5
t-4 22.5q0 12 7.5 17.5t17 9t19 7.5t15.5 12t16.5 33t23 57.5t25.5 69.5t23.5 70t17 58.5t6.5 35.5q0 14 -20.5 22.5t-47.5 13.5t-53 7t-36 2q-37 0 -80.5 -11t-84 -32t-72.5 -51t-45 -67q-12 -34 -11 -70t14.5 -65t40.5 -48t67 -19q17 0 30.5 4.5t25 10.5t22 10.5t22.5 4.5
q10 0 21 -6.5t11 -17.5q0 -14 -14.5 -24.5t-34 -18.5t-39.5 -12t-30 -4q-97 0 -145.5 49t-48.5 144q0 61 31.5 111.5t80 85.5t107.5 54.5t114 19.5z" />
    <glyph glyph-name="K" unicode="K" horiz-adv-x="874" 
d="M500 271q22 -2 43.5 -2.5t43.5 3.5q67 6 122.5 44t98.5 92t74.5 116.5t52.5 119.5q8 22 32 22q9 0 16 -5.5t7 -15.5q0 -9 -4 -17t-7 -16q-18 -46 -36 -83.5t-38.5 -71.5t-44 -68t-53.5 -73q-2 -6 -2 -9q0 -15 5.5 -31t5.5 -34q0 -29 -7.5 -53.5t-17 -45t-17 -36.5
t-7.5 -27q0 -9 6.5 -19t17.5 -10l4 1q13 10 28 22t32 12q9 0 16.5 -7t7.5 -16q0 -13 -11 -25.5t-26.5 -22t-32.5 -15.5t-28 -6q-13 0 -26.5 4t-25 11.5t-19 18.5t-7.5 26q0 25 8 47.5t18 43t18 40t8 39.5q0 13 -2 21t-8 25q-60 -33 -124 -49.5t-136 -1.5
q-23 -70 -38.5 -114.5t-33 -70.5t-41 -36.5t-61.5 -11.5q-11 0 -28.5 2.5t-34 8.5t-29 15.5t-12.5 23.5q0 13 11.5 17t21.5 4q20 0 39.5 -8.5t39.5 -8.5q14 0 32.5 8.5t27.5 19.5q4 5 12.5 29.5t20 60t24 77t24 80t21 69t14.5 44.5q6 15 13.5 34.5t14.5 39.5t12 40t5 35
q0 13 -16 21.5t-37.5 12.5t-43 5.5t-31.5 1.5q-110 0 -165.5 -57t-55.5 -166q0 -17 7 -32t18 -26t26 -18t32 -7q16 0 29.5 8.5t30.5 8.5q7 0 15.5 -0.5t16 -2.5t12.5 -7t5 -15q0 -14 -13.5 -23.5t-31.5 -15.5t-36.5 -8.5t-28.5 -2.5q-27 0 -52.5 10.5t-45 30.5t-32 50.5
t-12.5 71.5q0 63 22 110t59.5 78t88.5 46.5t109 15.5q35 0 70.5 -5.5t70.5 -5.5q13 0 24.5 6.5t24.5 6.5q12 0 23.5 -5.5t11.5 -19.5q0 -22 -16.5 -67t-39 -98.5t-45 -109t-34.5 -98.5z" />
    <glyph glyph-name="L" unicode="L" horiz-adv-x="712" 
d="M555 679q15 0 46.5 -6.5t63 -18t55.5 -28t24 -35.5q0 -8 -6 -17.5t-16 -9.5q-13 0 -29 11t-35.5 24.5t-43.5 25t-52 11.5q-82 0 -132.5 -27.5t-81.5 -73t-48.5 -105.5t-33.5 -126q-8 -29 -18 -50t-18 -46q-2 -8 -10.5 -24.5t-18 -34t-17 -31.5t-7.5 -15q0 -10 9 -19
q38 -15 73 -23.5t69.5 -13t70 -6t75.5 -1.5q21 0 45.5 9.5t46.5 25t36.5 36.5t14.5 45q0 26 -15.5 39.5t-41.5 13.5q-17 0 -27 -8t-19 -17t-19.5 -17t-26.5 -8q-17 0 -27.5 10t-10.5 27q7 12 23 23.5t34.5 20.5t37.5 14.5t33 5.5q22 0 44 -5t39 -16.5t27.5 -29.5t10.5 -44
q0 -45 -26.5 -78.5t-66 -56t-85 -33.5t-82.5 -11q-40 0 -83.5 7.5t-84 16t-75.5 16t-59 7.5q-16 0 -31.5 -5t-31.5 -5t-28 9t-16 24q2 9 21 21t43 27.5t48 36t36 47.5q18 39 29 73.5t19.5 67t17 65.5t22.5 70q18 48 49 87.5t72 68t89 44t99 15.5z" />
    <glyph glyph-name="M" unicode="M" horiz-adv-x="947" 
d="M228 270q-23 0 -46 10.5t-41.5 30.5t-30 48t-11.5 64q0 62 27 106t71 73.5t100 46.5t115 25.5t114.5 11t99.5 2.5q12 0 22.5 -8t10.5 -21q0 -9 -7 -15.5t-14 -11.5q-6 0 -16 -4t-8 -12q6 -26 13 -63.5t13 -82t9 -93.5t1 -97q24 35 52 78.5t59.5 89t65 89t69 77.5
t72.5 54.5t75 20.5q7 0 16 -0.5t16 -3.5t12 -8.5t5 -15.5t-8.5 -14.5t-20 -7.5t-23.5 -5.5t-18 -9.5q-3 -3 -11 -26t-19.5 -56.5t-23.5 -72.5t-22.5 -73.5t-18.5 -58.5t-9 -29q-4 -13 -17 -45.5t-26.5 -70t-24 -72.5t-10.5 -52q0 -3 0.5 -13t14.5 -10q10 0 17 7t14 15
t15.5 15t21.5 7q11 0 21 -7t10 -19q0 -15 -12 -27t-31 -21t-41.5 -14.5t-43.5 -5.5q-9 0 -18.5 6t-15.5 16.5t-8 25.5t3 32q1 5 11 37t24.5 78.5t31.5 101t32.5 103t27.5 85t16 48.5q0 2 1.5 6.5t3.5 9.5t3 9t-2 4q-19 0 -44 -23t-52 -58t-54 -78t-49.5 -83t-39.5 -72.5
t-23 -46.5q-10 -21 -17 -43t-13.5 -44t-14.5 -43.5t-19 -41.5q-8 -14 -17 -21.5t-25 -7.5q-9 0 -19.5 7.5t-10.5 17.5q0 19 7 38.5t16 38.5t17.5 38.5t11.5 39.5q7 44 8.5 97.5t-2 108.5t-11.5 107t-20 94q-20 -53 -38.5 -120t-37.5 -134.5t-40 -128t-47 -99.5
q-13 -19 -28 -37.5t-34.5 -33.5t-45.5 -24t-60 -9q-12 0 -35 2.5t-46 9t-40.5 17t-17.5 26.5q0 13 8.5 18.5t19.5 5.5q14 0 25.5 -5t23 -11.5t25.5 -11.5t32 -5q37 0 66 19t51.5 50t39.5 71t29 81q7 25 17 57t20.5 66.5t20.5 68.5t18 63t13 50.5t5 30.5q0 16 -13 19t-25 3
q-48 0 -104 -9.5t-103.5 -32.5t-79.5 -61.5t-32 -96.5q0 -20 9.5 -38.5t25 -32.5t34.5 -22.5t39 -8.5q18 0 36.5 7t36 16t34 16t30.5 7q7 0 9.5 -15t-11.5 -32.5t-52.5 -32.5t-114.5 -15z" />
    <glyph glyph-name="N" unicode="N" horiz-adv-x="706" 
d="M841 685q10 0 20 -6.5t10 -17.5q0 -5 -3.5 -10t-8.5 -7q-9 -9 -20 -11t-22 -3.5t-21.5 -6t-20.5 -19.5q-25 -38 -45.5 -94t-38.5 -116.5t-32.5 -119.5t-27.5 -102q-5 -16 -9.5 -46t-13 -60t-21 -52t-32.5 -22q-14 0 -27.5 8.5t-13.5 23.5q0 14 6 27.5t13 26.5t13 26t6 28
t-5 53.5t-14 86.5t-21.5 99.5t-27.5 94.5t-31.5 70.5t-33.5 27.5q-6 0 -10.5 -7.5t-8.5 -18t-6.5 -20.5t-4.5 -15q-13 -32 -26.5 -78t-29 -97t-32.5 -103t-36 -96t-40.5 -76.5t-45.5 -44.5q-17 -8 -36 -14.5t-39 -6.5q-8 0 -22.5 2.5t-28.5 7.5t-25 12t-11 17q0 13 10.5 19
t21.5 6q17 0 34 -4t34 -4q19 0 39 15.5t31 29.5q7 9 23 50t35 97t39.5 119t37 117.5t27.5 92t11 41.5q0 8 -8.5 11.5t-18 6.5t-18 7.5t-8.5 13.5q0 13 10.5 19.5t25.5 8.5t30.5 2h24.5q32 0 57.5 -29t45.5 -72.5t35 -95t26.5 -97.5t21 -79t17.5 -39q13 19 22.5 58t20 86
t25 96.5t36.5 90t55 66.5t81 26z" />
    <glyph glyph-name="O" unicode="O" horiz-adv-x="621" 
d="M428 679q43 0 86 -16t76.5 -51.5t52.5 -91.5t13 -136q-6 -63 -30.5 -132t-65.5 -127t-99.5 -95.5t-132.5 -37.5q-54 0 -98 21t-74.5 56t-47 82t-16.5 98q0 75 23 152t66.5 138.5t105.5 100.5t141 39zM152 264q0 -41 10.5 -80t32 -69.5t55 -49t80.5 -18.5q58 0 107.5 33
t85.5 83t56 108.5t20 110.5q0 46 -6 90t-24.5 78t-52 55t-88.5 21q-61 0 -112 -30.5t-87.5 -81t-56.5 -115.5t-20 -135z" />
    <glyph glyph-name="P" unicode="P" horiz-adv-x="628" 
d="M467 279q36 1 70 21.5t61 51.5t43 68t16 72q0 43 -19 70t-48.5 42t-66 20t-71.5 5q-50 0 -97 -12t-84 -38t-59.5 -66t-22.5 -97t25.5 -92.5t75.5 -43.5q12 -2 19 -9.5t7 -14.5q0 -13 -10.5 -18.5t-21.5 -5.5q-47 0 -78.5 23.5t-49.5 59t-22.5 77t4.5 77.5
q13 55 43.5 94.5t73.5 65t97.5 37t115.5 11.5q42 0 85.5 -10t79 -32t58.5 -56.5t23 -83.5q0 -54 -19 -98.5t-52 -78.5t-77 -57t-94 -33q-11 -2 -17 -9.5t-11 -18.5q-15 -33 -27.5 -68.5t-30.5 -64.5t-46.5 -48t-76.5 -19q-9 0 -24.5 1t-31.5 4.5t-27.5 11t-11.5 19.5
t9.5 17.5t20.5 5.5q14 0 27.5 -5t27.5 -5q18 0 35.5 5.5t31.5 17.5q26 24 46.5 68.5t37 95t29.5 99.5t24 82q2 5 7.5 19.5t11.5 31t11 30.5t5 19q0 12 -12 14.5t-26.5 3.5t-26.5 4.5t-12 18.5q0 19 17.5 27t33.5 8q10 0 26 -0.5t31 -4t26 -11t11 -21.5q0 -20 -12.5 -58
t-28.5 -80t-31.5 -80.5t-20.5 -58.5z" />
    <glyph glyph-name="Q" unicode="Q" horiz-adv-x="597" 
d="M439 679q53 0 94.5 -17t70 -48t43 -73.5t14.5 -94.5q0 -44 -8.5 -94t-24.5 -99t-37.5 -92.5t-47.5 -73.5q2 -4 5 -8.5t8 -2.5l16 1q12 0 20 -9q8 -4 8 -13q0 -8 -6.5 -17.5t-15.5 -18t-19 -14t-18 -5.5q-10 0 -19 3.5t-17 8t-15.5 8.5t-13.5 4q-9 0 -23 -5t-32 -11
t-39.5 -11t-45.5 -5q-55 0 -100.5 18t-77.5 50t-49.5 77.5t-15.5 100.5q2 78 24.5 157t65.5 142t107 102.5t149 39.5zM152 228q0 -38 14.5 -71.5t39.5 -58.5t58.5 -39.5t71.5 -14.5q15 0 32.5 2t31.5 10q-5 8 -12.5 8h-15.5t-13 6.5t-7 13.5q5 20 17.5 28.5t28.5 10
t33.5 -0.5t32.5 -2q21 0 41 24t37 56.5t29 65t17 50.5q8 30 10.5 63t2.5 64q0 43 -9 77.5t-29.5 58.5t-52.5 37t-77 13q-73 0 -126 -39.5t-87.5 -99.5t-51 -130.5t-16.5 -131.5z" />
    <glyph glyph-name="R" unicode="R" horiz-adv-x="683" 
d="M504 673q60 0 106 -18t77.5 -47t48 -66t16.5 -74q0 -53 -15.5 -88.5t-42 -62.5t-61.5 -49t-74 -47q-13 -2 -13 -15l1 -5q14 -20 21 -46t12 -50t10.5 -40.5t17.5 -16.5q8 0 15 4t13.5 9t12.5 9t13 4q9 0 17.5 -6t8.5 -16q0 -9 -10.5 -18t-24.5 -16t-28 -11.5t-22 -4.5
q-30 0 -46 14t-24 35t-11.5 45t-8.5 45t-15 35t-32 14q-23 0 -35 -14t-19.5 -35t-15.5 -46t-21.5 -46t-37.5 -35t-65 -14q-7 0 -21.5 0.5t-28.5 3.5t-25 9t-11 16q0 14 11.5 17.5t22.5 3.5q12 0 23 -3t23 -3q33 0 53 25q10 13 24 45t29 74t30 89.5t29 92t25 81.5t18 58
l-3 12q-8 3 -18.5 3.5t-20 2.5t-16.5 7t-7 18q0 9 5.5 14.5t13 9t16 4.5t15.5 1l58 1q11 0 18 -12.5t7 -22.5q0 -14 -6.5 -38t-16.5 -52t-21 -58t-21 -57t-16.5 -48.5t-6.5 -32.5q0 -8 5.5 -12.5t13.5 -4.5q16 0 35.5 7t38.5 17t36.5 21t31.5 20q49 31 65 77.5t16 102.5
q0 45 -24 72t-59 41.5t-74 19.5t-69 5q-61 0 -113 -16.5t-90 -49t-59.5 -80t-21.5 -110.5q0 -42 19.5 -65.5t44 -37.5t46 -23t25.5 -22q0 -6 -5 -10t-12 -7t-14.5 -4t-11.5 -1q-27 0 -54 16t-48 40.5t-34.5 54t-13.5 55.5q0 82 33 140t86 95t120.5 54t136.5 17z" />
    <glyph glyph-name="U" unicode="U" horiz-adv-x="812" 
d="M495 679q17 0 38 -4t32 -19q0 -5 -3 -15t-7 -20.5t-8 -20.5t-6 -16q-7 -20 -20.5 -57t-29.5 -82t-32.5 -93.5t-30.5 -92t-22.5 -77.5t-8.5 -49q0 -42 24.5 -64t65.5 -22q21 0 44.5 7t45.5 18t42 26t34 30q10 11 22 39.5t25.5 68t28 86.5t29.5 95t29.5 93.5t27.5 81
t25 58.5t21 26q4 2 9 2q12 0 21.5 -9t9.5 -21q-5 -14 -22 -61t-39 -109t-46 -131.5t-44.5 -129t-33.5 -100.5t-13 -47q-1 -15 6.5 -15.5t19.5 5t27.5 12t30.5 6.5q11 0 20 -4t9 -17q0 -12 -14.5 -23t-33.5 -19.5t-38.5 -13.5t-29.5 -5q-15 0 -24 3t-13.5 9t-7.5 14.5
t-6 19.5q-17 -5 -36.5 -12.5t-39 -14t-39.5 -11t-39 -4.5q-76 0 -119 31t-43 93q0 10 8 41.5t21 74.5t28.5 91.5t30 92.5t26 78t17.5 48t12 29t6 32q-5 11 -11.5 14t-17.5 3q-23 0 -48.5 -8t-47.5 -16q-36 -14 -66.5 -31t-53 -41t-35.5 -56t-13 -74q0 -32 9 -51t23 -29
t30 -14.5t30 -8t23 -8t9 -15.5q-1 -10 -6 -15.5t-11.5 -8.5t-15 -3.5t-15.5 -0.5q-27 0 -53 12t-46 32t-32.5 46t-12.5 53q0 72 35 126t89.5 90t120.5 54t129 18z" />
    <glyph glyph-name="V" unicode="V" horiz-adv-x="565" 
d="M472 686q40 0 76 -12.5t63.5 -35.5t43.5 -56t16 -74q0 -60 -12.5 -121t-36.5 -117.5t-58.5 -106t-79.5 -86t-99.5 -57.5t-117.5 -21q-30 0 -57.5 12.5t-48 33.5t-32.5 48t-12 56q0 20 7.5 52t18.5 68.5t24.5 75t24.5 71t18.5 56.5t7.5 32q0 21 -10.5 22.5t-26.5 1.5
q-9 0 -16.5 5.5t-7.5 15.5q0 13 11.5 20t22.5 7h87q15 0 20 -16q-5 -31 -17 -59t-22 -58q-6 -20 -20 -53.5t-28.5 -73t-25.5 -81t-11 -78.5q-1 -48 22 -77.5t80 -28.5q53 0 98.5 21t83 55.5t67 79.5t49.5 94t30.5 99t10.5 94q0 27 -8.5 52.5t-24.5 45.5t-39.5 32t-52.5 12
q-21 0 -40.5 -6t-36 -13.5t-29.5 -13.5t-23 -6q-17 0 -23 15q0 20 15 34t36.5 23t44.5 13t38 4z" />
    <glyph glyph-name="W" unicode="W" horiz-adv-x="757" 
d="M468 89q14 -14 35.5 -21t31.5 -7q34 0 66.5 19t60.5 50.5t51 71.5t39.5 81.5t25.5 81t9 69.5q0 55 -12 92t-37 59.5t-64 32.5t-93 10q-14 0 -27.5 -4.5t-28 -10.5t-31 -10.5t-37.5 -4.5q-11 0 -21.5 4t-10.5 18q11 22 36.5 35t56 20t61 9t52.5 2q42 0 81.5 -19t71 -49.5
t50.5 -70t19 -81.5q0 -39 -11 -89t-31.5 -101.5t-49 -100.5t-64 -87.5t-77 -62t-86.5 -23.5q-17 0 -31.5 3.5t-27.5 10t-25.5 16t-27.5 21.5q-14 -10 -30 -20t-33 -18.5t-35 -14t-34 -5.5q-27 0 -56 8.5t-53.5 24.5t-40 40t-15.5 56q0 46 11.5 95t27 98t32 97t26.5 92
q3 12 -7 15t-22.5 4.5t-23.5 5.5t-11 19q0 12 12.5 19.5t29 11t33 4.5t25.5 1q13 0 25.5 -6.5t12.5 -21.5q0 -26 -9.5 -55t-17.5 -55q-10 -36 -23 -73.5t-25 -75t-20 -75t-8 -72.5q0 -27 4 -46.5t14.5 -32t29.5 -18.5t50 -6q7 0 18.5 3t24 9t25.5 14t23 18q-18 25 -26.5 67
t-7.5 89.5t12 96t33 87.5t55 63.5t78 24.5q15 0 31.5 -5.5t30.5 -17.5t23.5 -31t9.5 -46q0 -68 -19 -122.5t-44.5 -95.5t-51 -69.5t-38.5 -44.5zM428 132q32 20 57 52.5t42.5 69.5t26.5 76t9 72q0 8 -3 17.5t-8.5 18t-13.5 14.5t-19 6q-31 0 -53 -20.5t-36 -52.5t-21 -71
t-7 -75t6.5 -65t19.5 -42z" />
    <glyph glyph-name="X" unicode="X" horiz-adv-x="872" 
d="M918 720q13 0 29.5 -5.5t16.5 -21.5q0 -14 -8.5 -20.5t-20.5 -10.5t-25 -6.5t-22 -6.5q-9 -5 -28.5 -23t-44.5 -43.5t-52 -54t-49 -54.5t-36.5 -45t-14.5 -24q0 -6 7.5 -33t19.5 -63.5t25.5 -77.5t25 -75.5t19.5 -57.5t8 -24q3 -10 12 -4.5t21 15.5t25 20t24 10
q14 0 26.5 -9t12.5 -24q0 -17 -11.5 -31.5t-28 -25.5t-35 -17.5t-33.5 -6.5q-14 0 -25.5 7t-21.5 17.5t-17 23t-12 23.5q-3 7 -10.5 30.5t-16.5 54t-19.5 64.5t-20 62t-17 46.5t-11.5 18.5t-23.5 -25t-48.5 -63t-65 -81.5t-74.5 -81.5t-76 -63t-69.5 -25q-9 0 -26 2.5
t-33.5 8t-29 14t-12.5 19.5q0 9 8 22t17 13q10 0 21 -4t21.5 -8.5t21 -8t21.5 -3.5q15 0 45 25t66 63t74.5 83t69.5 85t51 69.5t20 35.5q0 13 -7.5 33.5t-12.5 34.5q-13 35 -26.5 64.5t-32 50.5t-45.5 32.5t-68 11.5q-42 0 -76.5 -13.5t-59 -38t-38.5 -59t-14 -76.5
q0 -17 9.5 -38t24.5 -40.5t32.5 -35t33.5 -22.5q12 -5 24.5 -5h25.5q15 0 26.5 -6t11.5 -23q0 -20 -14 -27t-31 -7q-41 0 -78 17.5t-65 46.5t-45 66.5t-17 76.5q0 52 21 96t55.5 76.5t79.5 51.5t92 21q78 2 128 -26t70 -73q9 -19 17 -41.5t15 -42t13.5 -32.5t11.5 -12
q12 9 29.5 30t38 47t44 54t49.5 50.5t53 37.5t55 15z" />
    <glyph glyph-name="Y" unicode="Y" horiz-adv-x="722" 
d="M575 725q18 0 26 -2.5t10 -7.5t1 -11.5t-1 -13.5q0 -13 -8 -17t-19 -5.5t-22.5 -2.5t-18.5 -8q-4 -4 -18 -40t-32.5 -88t-39 -112t-37.5 -113t-28 -91.5t-11 -45.5q0 -20 7 -37t19.5 -29.5t29 -20t35.5 -7.5q20 0 46.5 9.5t52 24t47.5 32t33 34.5q10 15 17 32t12.5 34.5
t10.5 35t12 34.5q15 39 31 92t31.5 107t32 103.5t33.5 81.5q4 8 10 14t15 6q11 0 19.5 -7.5t8.5 -17.5q0 -14 -4.5 -26.5t-8.5 -24.5q-16 -53 -34 -101t-34 -99q-32 -101 -66.5 -201t-61.5 -203q-11 -39 -32.5 -74t-52 -61.5t-68 -41.5t-79.5 -15q-9 0 -26.5 0.5t-34.5 4
t-30 11t-13 20.5t11 21t23 8q18 0 35.5 -3.5t35.5 -3.5q28 0 58.5 12t56 32t42 47.5t16.5 57.5q0 12 -10 17q-8 0 -21.5 -8t-31.5 -17t-39 -16.5t-43 -7.5q-31 0 -58.5 10t-47.5 28.5t-32 45t-12 58.5q0 28 11 68.5t27 87t35 96t35 94t27 82t11 60.5q0 16 -18 16
q-48 0 -93.5 -17t-81.5 -47.5t-57.5 -73t-21.5 -93.5q0 -44 15 -65.5t33.5 -33t33.5 -19t15 -22.5q0 -14 -9 -23.5t-23 -9.5q-24 0 -46.5 15t-39 37t-26.5 48t-10 49q0 30 4 58t17 56q32 68 74 107.5t94.5 60.5t115 27.5t135.5 8.5z" />
    <glyph glyph-name="Z" unicode="Z" horiz-adv-x="706" 
d="M457 696q34 0 60.5 -6t47.5 -12.5t35.5 -12.5t24.5 -6t18.5 5.5t16 11.5t15.5 11.5t18 5.5q9 0 17 -6t8 -16q-5 -15 -27 -46t-48 -66.5t-50.5 -69t-33.5 -54.5l36 -3q11 -1 24.5 -9t13.5 -20q0 -13 -11.5 -18.5t-27 -7.5t-31 -2t-22.5 -1q-6 -1 -17.5 -14t-26 -33
t-29.5 -43.5t-28.5 -44.5t-24 -37.5t-14.5 -22.5q-6 -9 -15.5 -20t-9.5 -23q0 -11 24 -25.5t55 -27.5t60.5 -21.5t40.5 -8.5q24 0 44.5 7.5t36.5 22t25 34.5t9 45q0 14 -5.5 28t-15 25t-22.5 18t-28 7q-14 0 -26.5 -6.5t-23 -14t-20 -13.5t-17.5 -6q-11 0 -20 9.5t-9 20.5
q0 13 14.5 23.5t33.5 18t38.5 11.5t30.5 4q26 0 50.5 -9t43 -25t29.5 -39t11 -50q0 -37 -14.5 -66.5t-38.5 -50.5t-55.5 -32.5t-65.5 -11.5q-39 0 -75 11.5t-66.5 25t-53 25t-34.5 10.5q-6 0 -23 -13.5t-43 -29t-60 -28.5t-73 -13q-14 0 -32 5.5t-34 15t-27.5 23t-11.5 29.5
q0 26 15.5 46t39 33t50 19.5t48.5 6.5q30 0 47 -3.5t28 -7t20 -6.5t23 -3q7 0 20 13.5t28.5 34t32 45.5t31.5 48.5t26.5 42.5t17.5 28q8 10 -2 12.5t-25.5 4t-29.5 5.5t-14 17q0 20 13 26t27 6q5 0 13.5 -0.5t18.5 -1t18.5 -0.5t13.5 2q4 1 13.5 13.5t21.5 30.5t25.5 39
t24.5 39.5t18 32t7 16.5q0 9 -19.5 17t-44 14t-48.5 10t-33 4q-41 0 -85 -10t-81 -33t-61 -62.5t-24 -97.5q0 -29 10 -54.5t37 -39.5q7 -4 20 -5.5t26.5 -4t23.5 -7.5t10 -15q0 -19 -15 -23t-29 -4q-26 0 -51 9.5t-45.5 28.5t-33 46t-12.5 63q-1 72 22 121.5t65 79.5t100 43
t127 13zM195 118q-11 0 -27.5 -1.5t-32.5 -6t-27 -13.5t-11 -23q0 -11 5 -17t13 -9t17 -4t17 -1q23 0 41.5 8.5t33.5 19.5t27.5 21.5t22.5 14.5q-20 3 -39.5 7t-39.5 4z" />
    <glyph glyph-name="b" unicode="b" horiz-adv-x="474" 
d="M309 694q9 0 19 -4t8 -17q-4 -16 -12.5 -22t-18.5 -8t-20 -3t-17 -7q-5 -4 -13 -24.5t-15.5 -44.5t-12.5 -45.5t-5 -28.5q0 -6 3.5 -11.5t10.5 -5.5q22 0 45.5 9.5t47.5 9.5q39 0 71 -15t54.5 -40.5t34.5 -59t12 -71.5q0 -49 -20 -103.5t-54.5 -100.5t-81 -75.5
t-100.5 -28.5q-34 0 -58.5 8t-41.5 17t-27.5 16t-17.5 7q-6 0 -12 -7.5t-12.5 -15.5t-14 -15t-17.5 -7q-11 0 -18.5 8.5t-7.5 18.5q0 1 8.5 29t23 72.5t33 101.5t38 117t38.5 117.5t34.5 103.5t26 75.5t12.5 32.5q4 6 14 9.5t21.5 5t23 2t18.5 0.5zM119 138
q0 -16 11.5 -30.5t28 -26t34 -18.5t30.5 -7q48 0 88.5 21.5t70.5 56t47 78.5t17 88q0 61 -33 99t-100 38q-13 0 -29 -2.5t-32 -8t-30 -13t-23 -16.5q-3 -3 -10.5 -22t-16 -46t-18 -58t-17.5 -58.5t-13 -48t-5 -26.5z" />
    <glyph glyph-name="c" unicode="c" horiz-adv-x="433" 
d="M523 505q10 0 17 -12t7 -20q0 -6 -9 -37.5t-21 -67.5t-23 -66t-15 -33q-10 -8 -22 -8t-23 7t-11 21q0 12 5.5 25t12 26.5t12 27t5.5 26.5t-13 22t-30.5 13.5t-36 6.5t-29.5 2q-53 0 -93 -20.5t-66.5 -55t-39.5 -79.5t-13 -94q0 -61 30 -96.5t93 -35.5q31 0 52.5 9
t39 20.5t33 20.5t35.5 9q10 0 15 -10t5 -19q0 -15 -18.5 -30.5t-45.5 -28t-58 -21t-56 -8.5q-38 -1 -72.5 10.5t-61 34t-42 54.5t-15.5 72q0 57 18 115.5t52 106t83.5 77.5t112.5 30q20 0 41.5 -5.5t40.5 -12t32 -12t16 -5.5q7 0 12.5 6.5t11.5 14t13.5 14t18.5 6.5z" />
    <glyph glyph-name="d" unicode="d" horiz-adv-x="517" 
d="M580 698q12 0 21 -8.5t9 -20.5q0 -20 -8 -38.5t-13 -38.5q-7 -30 -21.5 -74t-32 -94.5t-36 -103.5t-33.5 -101t-24.5 -87t-9.5 -62q0 -13 7.5 -14t17.5 2.5t20.5 9t16.5 5.5q9 0 17 -5.5t8 -15.5q0 -13 -8.5 -24t-21 -19t-26.5 -12.5t-25 -4.5q-18 0 -29 6.5t-17 14.5
t-9 14.5t-6 7.5q-10 2 -28 -4t-39 -14t-41.5 -15t-34.5 -7q-40 0 -71 14.5t-52 39.5t-32 58.5t-11 71.5q0 68 22.5 126.5t61.5 101t90.5 66.5t110.5 24q31 0 50.5 -6.5t32.5 -14t21.5 -14t17.5 -6.5q14 0 18.5 11.5t8.5 22.5q2 6 8.5 27t14 45t13.5 43.5t6 21.5q0 8 -7 12
t-16 8t-16 8.5t-7 13.5q0 10 10 16t23.5 9t27.5 3.5t21 0.5zM121 186q0 -31 7.5 -57t23.5 -44.5t40 -29t56 -10.5q45 1 83 32.5t57 79.5q8 21 20.5 52.5t24 64.5t20 63.5t8.5 48.5q0 16 -15 27.5t-36 19.5t-42 11.5t-33 3.5q-47 -2 -86 -28.5t-67.5 -65.5t-44.5 -84t-16 -84
z" />
    <glyph glyph-name="e" unicode="e" horiz-adv-x="436" 
d="M328 502q88 0 135.5 -41.5t47.5 -131.5q0 -36 -8.5 -57t-25 -32.5t-40.5 -14.5t-56 -3q-60 0 -122.5 -0.5t-122.5 -0.5q-12 0 -17.5 -4.5t-8 -11.5t-2.5 -16v-17q0 -27 12 -48.5t32 -37t45 -24t52 -8.5q28 0 49.5 9t38 20t29.5 20t25 9q28 0 28 -28q0 -19 -23 -35.5
t-53.5 -28.5t-61 -18.5t-45.5 -6.5q-35 0 -68.5 14t-59.5 38.5t-42 57t-16 70.5q0 58 17.5 116.5t52 105.5t87 76t121.5 29zM135 288q0 -5 3.5 -8t8.5 -4.5t10.5 -1.5h9.5q45 0 93.5 1.5t93.5 1.5q18 0 36.5 1t33.5 6.5t24 17t9 33.5q0 51 -36 77.5t-87 26.5q-33 0 -60 -4
t-49 -14.5t-40 -28.5t-34 -46q-5 -9 -10.5 -28t-5.5 -30z" />
    <glyph glyph-name="f" unicode="f" horiz-adv-x="279" 
d="M390 697q7 0 16.5 -2t18.5 -5.5t15 -9.5t6 -15q0 -13 -8.5 -18.5t-20.5 -6.5t-24.5 0.5t-20.5 1.5q-20 0 -36 -13.5t-27 -33.5t-16.5 -42t-5.5 -40q0 -8 7 -11t16 -3.5t18 0t14 0.5q12 0 26 -3t14 -19q0 -15 -11.5 -21.5t-27.5 -8.5t-32.5 -2t-26.5 -2
q-12 -3 -21.5 -20.5t-17.5 -39.5t-14 -44t-9 -34q-19 -65 -39 -129t-29 -131q-2 -13 -7 -27t-17 -21q-14 -8 -30 -8q-13 0 -22.5 8t-9.5 22q0 12 5.5 28.5t13 34t15.5 34.5t12 29q2 7 9 30t16 53.5t18.5 64.5t17.5 63.5t13.5 50t5.5 23.5q0 9 -9 11t-20 3t-20 5t-9 18
q0 9 6.5 15.5t15.5 6.5q6 3 12.5 4t12.5 1.5t11.5 2.5t11.5 8q16 17 25 38t17 42t17 41.5t24.5 36t39 25t61.5 9.5z" />
    <glyph glyph-name="g" unicode="g" horiz-adv-x="492" 
d="M492 502q14 0 23.5 -11t9.5 -24q0 -8 -6 -12t-13 -8t-13 -8.5t-6 -12.5q0 -10 4.5 -18.5t10 -21.5t10 -32.5t4.5 -50.5q0 -49 -22.5 -83t-57.5 -55t-78 -30.5t-83 -9.5q-12 0 -26 3t-28.5 6.5t-28.5 6.5t-26 3q-25 0 -42 -10t-17 -41q0 -11 6 -17t15 -9t18.5 -3.5
t17.5 -0.5q32 0 62 4t61 4q50 0 77.5 -5t41 -17.5t16.5 -33t3 -51.5q0 -35 -22.5 -64t-56.5 -50t-74.5 -33t-77.5 -13q-35 -1 -61 4t-49 15t-46 24t-53 31q-9 5 -15 14t-6 21q0 13 10 18.5t21 5.5q4 0 18.5 -12t39 -26.5t59 -26.5t78.5 -12q16 0 45 5.5t56.5 17t48 28.5
t20.5 41q0 39 -22.5 50t-57.5 11q-22 0 -43.5 -3t-43.5 -4q-72 -2 -110.5 17.5t-38.5 69.5q0 24 8 41t21 28.5t29 18.5t33 12q0 5 -6 14.5t-13 23t-13 30.5t-6 36q0 54 15.5 92t44 63t69.5 36.5t91 11.5q20 0 39.5 -4t36 -9t28.5 -9t18 -4q7 0 13 4.5t11.5 9.5t12.5 9.5
t16 4.5zM158 331v-37q0 -31 14.5 -52.5t36.5 -35t49 -20t53 -6.5q29 0 55 8.5t45.5 25t31 41t11.5 55.5t-13 55.5t-34 41.5t-48.5 26t-55.5 9q-24 0 -50 -6.5t-47 -20.5t-34.5 -35t-13.5 -49z" />
    <glyph glyph-name="h" unicode="h" horiz-adv-x="515" 
d="M400 711q11 0 25 -5.5t14 -19.5q0 -5 -2 -9q-3 -9 -19 -13.5t-36.5 -8.5t-41 -9t-31.5 -13q-21 -16 -36 -45t-20 -55q-2 -6 -3 -12t-1 -12q0 -7 4 -13t12 -6q26 0 49.5 9t49.5 9q78 0 115.5 -34.5t37.5 -112.5q0 -28 -13.5 -66.5t-29.5 -79t-29.5 -79t-13.5 -67.5
q1 -12 7.5 -11.5t15.5 5.5t18.5 11t16.5 6q12 0 19.5 -6t7.5 -19t-10.5 -23.5t-25 -17.5t-30 -11t-26.5 -4q-23 0 -43 16.5t-20 40.5q0 31 14 70.5t30.5 82t30.5 85t14 79.5q0 40 -21.5 64t-62.5 24q-15 0 -35 -4.5t-40 -12.5t-38 -18t-28 -21t-21 -36t-22.5 -58.5
t-22.5 -72.5t-21 -76t-19.5 -69.5t-16.5 -54.5q-5 -16 -14 -28.5t-28 -12.5q-15 0 -18.5 5.5t-3.5 23.5q0 1 5.5 19t12.5 40t13 41.5t7 22.5q22 74 38 131t29.5 105.5t26.5 92t31 91.5q9 25 22.5 47.5t33.5 40.5q26 23 67 38.5t76 15.5z" />
    <glyph glyph-name="i" unicode="i" horiz-adv-x="233" 
d="M346 703q12 0 22.5 -8.5t10.5 -21.5q0 -8 -14.5 -27t-33 -39t-37 -35t-26.5 -15q-12 0 -25 6t-13 20q0 8 17.5 27.5t38.5 40t39.5 36.5t20.5 16zM198 491q8 0 16 3t16 3q14 0 23.5 -10t9.5 -24q0 -10 -8.5 -38t-21 -65.5t-27.5 -80.5t-27.5 -82.5t-21.5 -71t-9 -46.5
q-1 -9 3 -11.5t11 -2.5t15 1.5t14 1.5q13 0 26.5 -9t13.5 -23t-9 -21t-22 -10t-27.5 -3h-25.5q-12 0 -25 3t-23.5 10t-17 17t-6.5 24q0 15 8.5 45.5t21 67t27.5 76.5t27.5 75t21 61.5t8.5 36.5q0 9 -9 11.5t-19.5 4.5t-19 6.5t-8.5 16.5q0 13 6.5 20t16.5 10t21.5 3.5
t20.5 0.5z" />
    <glyph glyph-name="j" unicode="j" horiz-adv-x="214" 
d="M337 690q13 0 20.5 -10t7.5 -22q0 -5 -14.5 -22t-33.5 -35.5t-36.5 -33t-24.5 -14.5q-11 0 -19.5 7t-8.5 18q0 9 13.5 28t31.5 37.5t36 32.5t28 14zM224 495q14 0 23.5 -7.5t9.5 -21.5q0 -2 -10.5 -40.5t-27 -95.5t-36 -124t-37 -127.5t-30.5 -105t-17 -56.5
q-7 -21 -17 -41.5t-25 -36t-34 -25.5t-44 -10q-7 0 -16 0.5t-16.5 3.5t-13 8.5t-5.5 15.5q0 16 12.5 20.5t29 8t34 13t27.5 35.5q16 41 31 88.5t29.5 97t28 99t26.5 94.5q3 10 9 28l12.5 37.5t11 37t4.5 26.5q0 10 -7 14.5t-15.5 7.5t-15.5 7.5t-7 15.5q0 9 11 15.5t25 10
t28.5 5.5t21.5 2z" />
    <glyph glyph-name="k" unicode="k" horiz-adv-x="439" 
d="M347 685q11 0 20.5 -5.5t9.5 -17.5q0 -20 -13.5 -25.5t-32 -8.5t-38 -9.5t-31.5 -29.5q-1 -3 -10 -32t-22 -72t-28 -92t-27.5 -91.5t-20.5 -71t-8 -29.5q6 -10 19 -10q52 0 93 12.5t73.5 36.5t57.5 59.5t45 81.5q4 9 7 27t8 36t13 31.5t22 13.5q10 0 18 -6.5t8 -17.5
q0 -51 -19.5 -97t-51 -86t-71.5 -72t-81 -54q-5 -3 -4.5 -8t0.5 -7q0 -5 8.5 -20t20 -31t22.5 -28t17 -12q11 0 21 7t21 7q10 0 19.5 -6t9.5 -17t-8 -20.5t-19 -16.5t-24 -11t-22 -4q-30 0 -47 11.5t-27.5 28t-17.5 36.5t-16 36.5t-23.5 28t-39.5 11.5q-28 0 -42 -12
t-21 -29.5t-9.5 -38t-8.5 -38t-18 -29.5t-37 -12q-13 0 -19.5 11t-6.5 22q0 26 13.5 49.5t20.5 48.5q33 121 75.5 252t84.5 252q6 16 22 29t36 21.5t41.5 13t37.5 4.5z" />
    <glyph glyph-name="l" unicode="l" horiz-adv-x="223" 
d="M309 680q0 -1 -2 -8.5t-5 -16t-5.5 -16.5t-3.5 -11q-3 -12 -12 -40t-20.5 -66.5t-25.5 -84.5t-28 -93t-27.5 -91.5t-23.5 -81t-16 -61.5t-6 -32q0 -9 5.5 -12t13 -3t15.5 1t13 1q9 0 21.5 -2.5t12.5 -15.5q0 -10 -7 -19t-16.5 -15.5t-20.5 -10.5t-20 -4q-14 0 -29 1.5
t-27 7t-20 16t-8 27.5q0 14 5.5 35t12.5 44.5t14.5 45.5t12.5 37q4 14 14.5 48.5t24 78t28 91t26.5 89t19.5 71.5t7.5 38t-6.5 13.5t-15 10.5t-15 10.5t-6.5 13.5q0 12 8.5 18.5t20.5 9.5t24.5 3.5t20.5 0.5h16.5t15 -2.5t10.5 -8.5t4 -17z" />
    <glyph glyph-name="m" unicode="m" horiz-adv-x="706" 
d="M205 514q16 0 22 -6.5t8.5 -14t4 -13.5t10.5 -6q10 0 20 4.5t22.5 10.5t30 10.5t43.5 4.5q25 0 39.5 -5.5t24 -13.5t16 -18.5t14.5 -20.5q10 10 24.5 21t33 21t41 16.5t49.5 6.5q49 0 78 -20t29 -72q0 -23 -7.5 -52t-18.5 -61.5t-23.5 -65.5t-23.5 -63t-18.5 -55
t-7.5 -41q0 -3 2 -10t7 -7q11 0 23 8.5t23 8.5q15 0 28 -2.5t13 -19.5q0 -12 -12 -23t-28 -19.5t-33 -13.5t-27 -5q-11 0 -22 5t-20 13.5t-14.5 19.5t-5.5 22q0 18 8 45t19.5 59t25.5 66.5t25.5 67t19.5 61t8 47.5q0 18 -8.5 36.5t-30.5 18.5q-43 0 -73 -19.5t-58 -51.5
q-12 -14 -24 -45t-24 -71t-23.5 -83.5t-22 -80.5t-19.5 -63.5t-15 -32.5q-6 -5 -11.5 -8t-13.5 -3q-14 0 -22 6t-8 21q0 27 16 73.5t35.5 101.5t35.5 112.5t16 104.5q0 9 -5 15.5t-12.5 10t-16.5 5.5t-16 2q-46 0 -78.5 -33.5t-56.5 -84t-41 -109.5t-32 -109.5t-31 -84
t-37 -33.5q-10 0 -16.5 9.5t-6.5 18.5q0 18 8.5 47.5t22 65.5t28.5 76.5t28.5 79.5t22 74.5t8.5 62.5q0 8 -7 11t-15.5 5.5t-15.5 6.5t-7 15q0 12 8 20.5t19.5 13.5t24.5 7t23 2z" />
    <glyph glyph-name="n" unicode="n" horiz-adv-x="538" 
d="M191 509q14 0 27.5 -4.5t22.5 -16.5q6 -5 11 -10.5t13 -5.5q28 11 62.5 22t65.5 11q40 0 67.5 -12.5t43.5 -34.5t23 -52.5t7 -65.5q0 -2 -5.5 -21t-14.5 -46.5t-19.5 -60t-19.5 -61t-16 -49t-9 -25.5q-5 -19 -1 -22t13.5 0.5t22.5 10t25 6.5q13 0 21 -7t8 -19
q0 -9 -9 -17.5t-22 -15t-26 -10.5t-21 -4q-12 0 -25 3t-23.5 9t-17 16t-6.5 25q0 31 13 69t28 80t28 85.5t13 85.5q0 13 -4 27t-12.5 25.5t-20 19t-26.5 7.5q-27 0 -56.5 -6.5t-55.5 -19.5t-46 -34t-29 -49q-19 -61 -39.5 -122t-42.5 -121q-4 -11 -7 -28t-8.5 -33t-14.5 -28
t-24 -12q-16 0 -21.5 8t-5.5 22q0 12 9.5 43t23.5 70.5t30.5 83.5t30.5 84t23.5 71.5t9.5 44.5q0 11 -8 15t-17 7t-17 6.5t-8 13.5q0 21 19 31.5t37 10.5z" />
    <glyph glyph-name="o" unicode="o" 
d="M337 516q51 0 83 -18t50.5 -47.5t25 -68t6.5 -79.5q0 -60 -20 -116t-54 -99t-79.5 -68.5t-97.5 -25.5q-95 0 -141.5 53t-46.5 144q0 60 21 118.5t58 104t87 74t108 28.5zM132 174q0 -21 8.5 -42.5t23.5 -39.5t37.5 -29t51.5 -11q48 0 84 28t60 70t36 90t12 88q0 21 -7 44
t-20.5 42t-32 31t-42.5 12q-49 -1 -88 -25t-66.5 -64t-42 -90.5t-14.5 -103.5z" />
    <glyph glyph-name="p" unicode="p" horiz-adv-x="455" 
d="M182 494q8 0 13.5 -4t10.5 -8.5t10 -8t11 -3.5q15 0 27.5 3.5l25 7t25.5 7t29 3.5q52 0 87.5 -16t56 -46.5t28 -74t4.5 -97.5q-2 -40 -21 -86.5t-50.5 -86t-74.5 -66.5t-94 -27q-27 0 -49 2.5t-39.5 11t-31.5 23.5t-26 40q-2 -8 -13 -39t-24.5 -68.5t-26 -71.5t-16.5 -47
q-5 -14 -16.5 -27t-28.5 -13q-10 0 -15 8t-5 16t0.5 13.5t1.5 11t3.5 12.5t7.5 18q7 12 22 53t34 96.5t39 119t36 119.5t27 97.5t11 54.5q3 8 -5.5 12t-19 8t-18.5 10t-5 18q0 11 8 16t19.5 7t23 2h18.5zM153 158q-5 -17 3.5 -36t24 -34.5t35.5 -25.5t37 -10q46 0 82.5 19.5
t62 52t39 73.5t13.5 84q0 25 -5 51.5t-17.5 49t-33.5 37t-52 14.5q-36 0 -61.5 -10.5t-43 -30t-28.5 -46t-19 -57.5q-5 -18 -8.5 -32t-7.5 -29t-9 -31.5t-12 -38.5z" />
    <glyph glyph-name="q" unicode="q" horiz-adv-x="469" 
d="M524 504q11 0 23.5 -7t12.5 -20l-7 -22t-19 -58.5t-27 -82.5t-31 -95t-31.5 -95.5t-27.5 -84t-20 -61.5t-9 -26q-5 -11 -12.5 -35.5t-16.5 -49t-20 -43.5t-21 -19q-13 0 -23 10t-12 22q10 39 29.5 84.5t31.5 86.5q-14 -6 -31.5 -10.5t-35.5 -7.5t-34 -4t-28 -1
q-36 0 -64.5 13t-48.5 35.5t-30.5 52t-10.5 62.5q0 57 18 119.5t53 114t86 85t117 33.5q37 0 60 -7t36.5 -16t20 -16t11.5 -7q7 0 12.5 8t12 17t15 17t21.5 8zM126 168q0 -46 10.5 -71t28.5 -36.5t41.5 -13.5t48.5 -2q42 0 76 29t58 73t37 96t14 98q0 27 -8.5 46.5t-22.5 32
t-33 18.5t-38 6q-42 1 -80 -28t-67.5 -72t-47 -91t-17.5 -85z" />
    <glyph glyph-name="r" unicode="r" horiz-adv-x="311" 
d="M378 512q14 0 26.5 -8.5t12.5 -23.5q0 -9 -6 -20t-23 -9q-34 2 -66.5 -7.5t-52.5 -17.5q-5 -2 -16.5 -25.5t-25.5 -58t-29.5 -75.5t-28.5 -79.5t-22 -70t-11 -45.5q-1 -14 5.5 -14t17 6t22 13t19.5 7q11 0 23.5 -7t12.5 -20t-11.5 -24t-28 -19t-33.5 -12.5t-27 -4.5
q-11 0 -22 4.5t-21 12.5t-16 18.5t-6 21.5q0 16 8.5 45.5t21.5 65.5t27.5 76t27.5 76.5t21.5 66.5t8.5 46q0 8 -6.5 12t-14.5 7t-14.5 7.5t-6.5 13.5q0 23 17 31.5t37 8.5q15 0 23 -3.5t13.5 -7.5t11 -7.5t14.5 -3.5q11 0 20 3.5t21 8t29.5 8.5t47.5 4z" />
    <glyph glyph-name="s" unicode="s" horiz-adv-x="446" 
d="M325 498q14 0 46 -4t64.5 -13t57.5 -23.5t25 -34.5q0 -11 -8.5 -19.5t-19.5 -8.5t-25.5 7.5t-33 16.5t-42.5 16.5t-54 7.5q-15 0 -35.5 -3.5t-39 -11.5t-32 -21t-13.5 -32q0 -17 7 -27t18 -16.5t26 -10t32 -6.5q29 -5 60.5 -15t57.5 -27t43 -42.5t17 -62.5
q0 -48 -20 -81.5t-52.5 -54.5t-73 -31t-81.5 -10q-39 0 -74.5 9t-61.5 28.5t-41.5 50t-15.5 74.5q0 20 8 38t32 18q17 0 23.5 -8t8 -19t-0.5 -23.5t-2 -22.5q0 -26 9.5 -43.5t26 -28t37 -15.5t43.5 -5t53.5 4.5t58 16.5t46.5 32.5t19 51.5t-10 50.5t-28 31.5t-42.5 18
t-53.5 10q-17 2 -40 8.5t-44 18.5t-35.5 30t-14.5 44q0 37 14.5 63.5t38.5 43t55.5 24t66.5 7.5z" />
    <glyph glyph-name="t" unicode="t" horiz-adv-x="224" 
d="M262 652q11 0 20.5 -7.5t9.5 -18.5q0 -8 -4.5 -19.5t-9.5 -24t-9.5 -25.5t-4.5 -23q0 -17 12 -20.5t26 -5t26 -5.5t12 -21q0 -20 -14.5 -24.5t-33 -6t-36 -5t-24.5 -20.5q-4 -11 -13.5 -39t-21.5 -64t-25 -76t-23.5 -75.5t-17 -61t-6.5 -33.5q0 -17 16 -17q5 0 11 3.5
t13.5 8t16 8t19.5 3.5q9 0 14 -8.5t5 -16.5q0 -12 -11 -22.5t-26 -18t-31 -12t-26 -4.5q-25 0 -42 12.5t-17 40.5q0 24 7.5 57t19.5 70t25 75.5t25 73.5t19.5 64.5t7.5 48.5q0 9 -7.5 10.5t-17 2.5t-17 4.5t-7.5 15.5q0 24 11 30.5t25 8t27 2.5t16 13q5 16 9 40t10 40
q0 17 12.5 29.5t29.5 12.5z" />
    <glyph glyph-name="u" unicode="u" horiz-adv-x="532" 
d="M507 499q7 0 17.5 -0.5t20 -3t16 -8.5t6.5 -16q0 -9 -9 -39t-22 -70t-29 -86t-29 -87.5t-22 -73.5t-9 -44q0 -11 6.5 -12t15.5 2.5t18.5 8.5t15.5 5q10 0 20 -7t10 -18q0 -12 -12 -22.5t-28.5 -17.5t-33.5 -11t-27 -4q-12 0 -23.5 4.5t-17.5 15.5q-6 5 -13 11.5t-15 6.5
q-5 0 -20.5 -6t-35.5 -13t-41.5 -13t-38.5 -6q-24 0 -48 8.5t-42.5 23.5t-30.5 36t-12 47q0 36 12.5 81t27.5 89t27.5 81.5t12.5 58.5q0 9 -6.5 12.5t-14 6.5t-13.5 7.5t-6 15.5q0 14 9.5 20.5t23 9t28 2t24.5 -0.5q14 0 26 -8t12 -24q0 -11 -7.5 -35t-19 -55t-24.5 -67
t-24.5 -70t-19 -63t-7.5 -48q0 -35 20.5 -55t55.5 -20q19 0 46 10t53 25.5t46.5 34.5t26.5 37q7 21 15 43.5t18.5 53.5t24 73.5t31.5 103.5q0 10 -6 14.5t-13 8t-13 9t-6 16.5q0 9 6 14t14.5 6.5t17.5 1.5h15z" />
    <glyph glyph-name="v" unicode="v" horiz-adv-x="539" 
d="M226 501q14 0 25.5 -8.5t11.5 -23.5q0 -13 -5.5 -23.5t-8.5 -22.5q-8 -27 -23 -68t-31 -84t-27.5 -83.5t-11.5 -65.5q0 -18 10 -31.5t25.5 -22.5t33 -13.5t32.5 -4.5q56 0 97 30t67.5 75t39.5 98t13 100q0 15 -4 30t-9 29t-8.5 27t-2.5 26q5 14 12.5 22t22.5 8
q9 0 15.5 -3.5t12 -8t11.5 -8t13 -3.5q9 0 15.5 5t12.5 11t12.5 11t15.5 5q11 0 20.5 -8.5t9.5 -19.5q0 -9 -7.5 -18t-17.5 -17t-21.5 -14t-18.5 -10q-13 -5 -18.5 -14.5t-7 -20t0 -21.5t1.5 -18q2 -69 -17.5 -132.5t-57 -112t-91 -77.5t-119.5 -29q-29 0 -57 8.5t-50 24.5
t-35.5 40t-13.5 55q0 13 6.5 38t16.5 55t22 62.5t22 61.5t16.5 51.5t6.5 32.5q0 11 -7.5 14.5t-16.5 6t-16.5 6t-7.5 13.5q0 14 19 24.5t72 15.5z" />
    <glyph glyph-name="w" unicode="w" horiz-adv-x="697" 
d="M746 496q10 0 20 -6t10 -17q0 -15 -13.5 -24.5t-29.5 -17t-29.5 -14.5t-13.5 -16q0 -3 0.5 -7t1.5 -13t2 -24t2 -40q0 -52 -18 -109t-51 -105t-80 -79t-105 -31q-21 0 -34 3.5t-23.5 9.5t-21 13t-27.5 14q-9 0 -21.5 -6.5t-28 -14t-35 -13.5t-42.5 -6q-36 0 -58.5 6
t-36 20.5t-18 39t-4.5 61.5q0 15 7 39.5t17 53.5t21.5 60.5t21.5 59.5t16.5 50t6.5 34q0 10 -7.5 13.5t-17 5.5t-17 6t-7.5 15t5 17t12.5 9t17 3.5t17.5 0.5t20.5 -0.5t24 -4t20 -10t8.5 -18.5q0 -18 -7.5 -44.5t-19 -58t-24.5 -65.5t-24.5 -67t-19 -62.5t-7.5 -52.5
q0 -24 12 -43.5t41 -19.5q38 0 62.5 20.5t41 50.5t27 64t19.5 61q7 19 17.5 50.5t21.5 65.5t21.5 66.5t16.5 53.5q4 7 11 10.5t15 3.5q13 0 22.5 -9t6.5 -21q-8 -30 -25 -74.5t-34 -93.5t-29.5 -96.5t-12.5 -84.5q0 -28 16 -46t45 -18q46 0 80 30.5t56.5 75t33.5 93.5t11 86
q0 19 -5 39.5t-11.5 39.5t-11.5 34t-5 24q0 11 9.5 17t19.5 6q17 0 30 -10t30 -10q9 0 16 4t13.5 9.5t13 9.5t15.5 4z" />
    <glyph glyph-name="x" unicode="x" horiz-adv-x="521" 
d="M334 465q0 -11 -7.5 -16.5t-16.5 -8.5t-16.5 -6t-7.5 -9q0 -8 5 -27t12.5 -39t16.5 -35t18 -15q7 0 20.5 13.5t30.5 33t38 43t43.5 43t47 33t48.5 13.5q11 0 23 -4t12 -18q0 -9 -7 -14t-16.5 -7t-19.5 -3.5t-16 -4.5q-5 -3 -20.5 -17t-35.5 -34t-42 -43.5t-40.5 -44.5
t-30.5 -36.5t-12 -20.5q0 -8 8.5 -33.5t19.5 -55t21.5 -56t15.5 -35.5q0 -6 5 -11t11 -5q8 0 15.5 3.5t15 8t15 8t15.5 3.5t14 -5.5t6 -13.5q0 -12 -10 -22t-23.5 -16.5t-28 -10.5t-24.5 -4q-24 0 -40 11.5t-27 29.5t-19 40.5t-15 45t-14 42t-17 31.5q-30 -27 -61.5 -63.5
t-64.5 -68.5t-67 -54.5t-68 -22.5q-15 0 -30 6q-5 5 -8 10t-3 12q0 2 1 5t2 5q3 7 12.5 10.5t21.5 5t23.5 3t18.5 5.5t24.5 20t39.5 37t45.5 45.5t43.5 46.5t32.5 38t12.5 21q0 13 -10.5 39t-23 55t-23 55.5t-10.5 40.5q0 15 6.5 23t17 12.5t23 5.5t23.5 1h15.5t16.5 -2.5
t13.5 -7.5t5.5 -14z" />
    <glyph glyph-name="y" unicode="y" horiz-adv-x="458" 
d="M547 468q0 -7 -8.5 -37.5t-22 -74t-29.5 -94t-30.5 -97t-26 -83.5t-15.5 -53q-1 -5 -7.5 -21t-15 -34t-15.5 -34t-10 -19q-20 -27 -39 -44.5t-40 -28t-46.5 -15t-58.5 -4.5q-6 0 -14.5 0.5t-17 2.5t-14 6.5t-5.5 13.5q0 14 8.5 19.5t20.5 7t24.5 0t21.5 -1.5
q29 0 53.5 15t44.5 39.5t35.5 56.5t27.5 67q-12 -9 -32 -19.5t-42 -20t-43 -16t-36 -6.5q-66 0 -105.5 32.5t-39.5 101.5q0 31 12.5 71t28 80.5t29 79t15.5 67.5l-4 8q-12 4 -24.5 10.5t-12.5 21.5q0 12 7 18.5t16.5 9.5t20.5 3.5t20 0.5h18t19 -2.5t15 -8.5t6 -18
q0 -26 -12 -57.5t-22 -55.5q-7 -17 -18.5 -48.5t-22.5 -65.5t-19 -65t-8 -49q0 -31 20 -56.5t53 -25.5q18 0 38 7t38.5 18t35.5 24t31 25q27 24 44 57t29.5 73t23 85t24.5 95q3 10 -3.5 13.5t-15 5.5t-16.5 4.5t-8 11.5q0 14 7 21.5t17.5 11t22.5 4t22 0.5t19 -0.5t16 -3.5
t11 -9.5t4 -19.5z" />
    <glyph glyph-name="z" unicode="z" horiz-adv-x="469" 
d="M472 502q8 0 20 1t23.5 -0.5t20 -6.5t8.5 -17q0 -5 -17.5 -24.5t-46 -47.5t-65 -63t-74.5 -70.5t-74.5 -70t-65 -62t-46 -46t-17.5 -22.5q0 -16 13 -16q12 0 35.5 -1t52.5 -1t59 2t55 8t41 17t16 29q0 10 -2 20t-2 20q0 16 11.5 21.5t25.5 5.5q23 0 32 -16t9 -36
q0 -42 -19 -67.5t-48.5 -39t-64.5 -17.5t-66 -4q-39 0 -87.5 -1t-87.5 -1h-25t-31.5 2.5t-27 9t-11.5 20.5q0 6 17.5 25t46.5 47.5t66 63t75.5 70t75.5 70t66 63t46.5 48.5t17.5 26q0 5 -6 6.5t-10 1.5q-29 0 -57 -1.5t-57 -1.5t-47.5 -11t-33 -24.5t-26.5 -24.5t-27 -11
q-10 0 -18.5 7.5t-8.5 18.5q0 8 3 13.5t8 10.5q25 30 52.5 46t58 22.5t64 7t69.5 0.5q18 0 40.5 0.5t40.5 0.5z" />
    <glyph glyph-name="space" unicode=" " horiz-adv-x="222" 
 />
    <glyph glyph-name="germandbls" unicode="&#xdf;" horiz-adv-x="479" 
d="M411 407q26 -7 42.5 -29.5t26.5 -50.5t13.5 -57t3.5 -49q0 -48 -15 -90t-42.5 -73.5t-66 -49.5t-85.5 -18q-40 0 -75 10.5t-48 25.5q-12 4 -14 12t-4 21q-2 11 2.5 19t12.5 13q11 0 19.5 -3.5t16.5 -9.5q8 -2 15.5 -8t15.5 -12t17.5 -11t20.5 -5q34 0 65.5 11.5
t55.5 33.5t38.5 54.5t16.5 75.5q-4 58 -17 86.5t-32 43t-42 22t-47 24.5q-4 6 -4 9q-3 18 5 25.5t22 11t31.5 6.5t34 12.5t29.5 28t19 52.5q8 48 -5 77.5t-58 34.5q-33 4 -59 -10.5t-45 -40t-32.5 -57.5t-21.5 -63q-3 -12 -8.5 -35.5t-11.5 -49.5t-11.5 -49.5t-8.5 -35.5
q-9 -32 -24 -80.5t-30 -100.5t-28 -101.5t-17 -82.5q-2 -13 -7 -27t-17 -21q-14 -8 -30 -8q-13 0 -22.5 8t-9.5 22q0 12 5.5 28.5t13 34t15.5 34.5t12 29q2 7 11 37.5t21.5 73t26.5 90t25.5 89t19 69.5t7.5 31q0 9 -9 11t-20 3t-20 5t-9 18q0 9 6.5 15.5t15.5 6.5
q6 3 12.5 4t12.5 1.5t11.5 2.5t11.5 8q16 17 27.5 38.5t22.5 43.5t24 43t31.5 37.5t44 26.5t63.5 10q32 0 57 -16t41.5 -41.5t22.5 -58.5t0 -67q-7 -36 -18 -56.5t-24 -32t-25 -17t-21 -12.5z" />
    <glyph glyph-name="longs" unicode="&#x17f;" horiz-adv-x="198" 
d="M390 697q7 0 16.5 -2t18.5 -5.5t15 -9.5t6 -15q0 -13 -8.5 -18.5t-20.5 -6.5t-24.5 0.5t-20.5 1.5q-20 0 -34 -14t-23.5 -34t-15.5 -42t-12 -39q-6 -18 -14.5 -45t-17.5 -56t-18 -57.5t-15 -49.5q-19 -65 -39 -129t-29 -131q-2 -13 -7 -27t-17 -21q-14 -8 -30 -8
q-13 0 -22.5 8t-9.5 22q0 12 5.5 28.5t13 34t15.5 34.5t12 29q2 7 9 30t16 53.5t18.5 64.5t17.5 63.5t13.5 50t5.5 23.5q0 9 -9 11t-20 3t-20 5t-9 18q0 9 6.5 15.5t15.5 6.5q6 3 12.5 4t12.5 1.5t11.5 2.5t11.5 8q16 17 25 38t17 42t17 41.5t24.5 36t39 25t61.5 9.5z" />
    <glyph glyph-name="dieresis" unicode="&#xa8;" horiz-adv-x="0" 
d="M248 706q7 0 15 -5.5t8 -13.5t-7 -19t-17.5 -21t-22.5 -16.5t-22 -6.5q-11 0 -18 6t-7 17q0 8 7.5 18.5t18 19.5t23 15t22.5 6zM425 705q8 0 16 -4t8 -13q0 -8 -8.5 -19t-20.5 -21.5t-25 -17.5t-22 -7q-8 0 -15.5 5t-7.5 14t8.5 19.5t20.5 20.5t24.5 16.5t21.5 6.5z" />
    <glyph glyph-name="adieresis" unicode="&#xe4;" horiz-adv-x="487" 
d="M329 499q21 0 36 -4.5t28 -10.5t26 -12.5t31 -10.5q7 2 11.5 7.5t8.5 11t9 10t13 4.5q11 0 19.5 -9t4.5 -19q-6 -17 -15 -44.5t-20 -62t-22.5 -73.5t-23 -77t-21.5 -73.5t-17 -63.5q-1 -11 5.5 -9.5t17 6.5t23.5 11.5t25 6.5q10 0 17.5 -5t7.5 -16q0 -12 -10.5 -24
t-25.5 -21.5t-31 -15t-27 -5.5t-20 4t-17 9t-17 9t-20 4q-5 0 -16.5 -4.5t-25.5 -10.5t-29 -10.5t-27 -4.5q-46 0 -81.5 10t-59.5 32t-36.5 58t-12.5 88q0 60 22.5 116.5t61.5 101t92.5 71t115.5 26.5zM96 204q0 -20 4.5 -45.5t16.5 -48t32.5 -37.5t52.5 -14q43 1 73.5 11
t62.5 39q15 14 18.5 30t9.5 34q9 28 19 62.5t18.5 65t13 52.5t2.5 26q-3 16 -12.5 28.5t-22 20t-27 11.5t-29.5 4q-44 0 -85.5 -21t-74 -54.5t-52.5 -76.5t-20 -87zM377 706q7 0 15 -5.5t8 -13.5t-7 -19t-17.5 -21t-22.5 -16.5t-22 -6.5q-11 0 -18 6t-7 17q0 8 7.5 18.5
t18 19.5t23 15t22.5 6zM554 705q8 0 16 -4t8 -13q0 -8 -8.5 -19t-20.5 -21.5t-25 -17.5t-22 -7q-8 0 -15.5 5t-7.5 14t8.5 19.5t20.5 20.5t24.5 16.5t21.5 6.5z" />
    <glyph glyph-name="edieresis" unicode="&#xeb;" horiz-adv-x="436" 
d="M328 502q88 0 135.5 -41.5t47.5 -131.5q0 -36 -8.5 -57t-25 -32.5t-40.5 -14.5t-56 -3q-60 0 -122.5 -0.5t-122.5 -0.5q-12 0 -17.5 -4.5t-8 -11.5t-2.5 -16v-17q0 -27 12 -48.5t32 -37t45 -24t52 -8.5q28 0 49.5 9t38 20t29.5 20t25 9q28 0 28 -28q0 -19 -23 -35.5
t-53.5 -28.5t-61 -18.5t-45.5 -6.5q-35 0 -68.5 14t-59.5 38.5t-42 57t-16 70.5q0 58 17.5 116.5t52 105.5t87 76t121.5 29zM135 288q0 -5 3.5 -8t8.5 -4.5t10.5 -1.5h9.5q45 0 93.5 1.5t93.5 1.5q18 0 36.5 1t33.5 6.5t24 17t9 33.5q0 51 -36 77.5t-87 26.5q-33 0 -60 -4
t-49 -14.5t-40 -28.5t-34 -46q-5 -9 -10.5 -28t-5.5 -30zM349 687q7 0 15 -5.5t8 -13.5t-7 -19t-17.5 -21t-22.5 -16.5t-22 -6.5q-11 0 -18 6t-7 17q0 8 7.5 18.5t18 19.5t23 15t22.5 6zM526 686q8 0 16 -4t8 -13q0 -8 -8.5 -19t-20.5 -21.5t-25 -17.5t-22 -7q-8 0 -15.5 5
t-7.5 14t8.5 19.5t20.5 20.5t24.5 16.5t21.5 6.5z" />
    <glyph glyph-name="udieresis" unicode="&#xfc;" horiz-adv-x="532" 
d="M507 499q7 0 17.5 -0.5t20 -3t16 -8.5t6.5 -16q0 -9 -9 -39t-22 -70t-29 -86t-29 -87.5t-22 -73.5t-9 -44q0 -11 6.5 -12t15.5 2.5t18.5 8.5t15.5 5q10 0 20 -7t10 -18q0 -12 -12 -22.5t-28.5 -17.5t-33.5 -11t-27 -4q-12 0 -23.5 4.5t-17.5 15.5q-6 5 -13 11.5t-15 6.5
q-5 0 -20.5 -6t-35.5 -13t-41.5 -13t-38.5 -6q-24 0 -48 8.5t-42.5 23.5t-30.5 36t-12 47q0 36 12.5 81t27.5 89t27.5 81.5t12.5 58.5q0 9 -6.5 12.5t-14 6.5t-13.5 7.5t-6 15.5q0 14 9.5 20.5t23 9t28 2t24.5 -0.5q14 0 26 -8t12 -24q0 -11 -7.5 -35t-19 -55t-24.5 -67
t-24.5 -70t-19 -63t-7.5 -48q0 -35 20.5 -55t55.5 -20q19 0 46 10t53 25.5t46.5 34.5t26.5 37q7 21 15 43.5t18.5 53.5t24 73.5t31.5 103.5q0 10 -6 14.5t-13 8t-13 9t-6 16.5q0 9 6 14t14.5 6.5t17.5 1.5h15zM375 701q7 0 15 -5.5t8 -13.5t-7 -19t-17.5 -21t-22.5 -16.5
t-22 -6.5q-11 0 -18 6t-7 17q0 8 7.5 18.5t18 19.5t23 15t22.5 6zM552 700q8 0 16 -4t8 -13q0 -8 -8.5 -19t-20.5 -21.5t-25 -17.5t-22 -7q-8 0 -15.5 5t-7.5 14t8.5 19.5t20.5 20.5t24.5 16.5t21.5 6.5z" />
    <glyph glyph-name="odieresis" unicode="&#xf6;" 
d="M337 516q51 0 83 -18t50.5 -47.5t25 -68t6.5 -79.5q0 -60 -20 -116t-54 -99t-79.5 -68.5t-97.5 -25.5q-95 0 -141.5 53t-46.5 144q0 60 21 118.5t58 104t87 74t108 28.5zM132 174q0 -21 8.5 -42.5t23.5 -39.5t37.5 -29t51.5 -11q48 0 84 28t60 70t36 90t12 88q0 21 -7 44
t-20.5 42t-32 31t-42.5 12q-49 -1 -88 -25t-66.5 -64t-42 -90.5t-14.5 -103.5zM353 692q7 0 15 -5.5t8 -13.5t-7 -19t-17.5 -21t-22.5 -16.5t-22 -6.5q-11 0 -18 6t-7 17q0 8 7.5 18.5t18 19.5t23 15t22.5 6zM530 691q8 0 16 -4t8 -13q0 -8 -8.5 -19t-20.5 -21.5t-25 -17.5
t-22 -7q-8 0 -15.5 5t-7.5 14t8.5 19.5t20.5 20.5t24.5 16.5t21.5 6.5z" />
    <glyph glyph-name="Adieresis" unicode="&#xc4;" horiz-adv-x="685" 
d="M491 693q45 0 83 -16t66.5 -43t44.5 -61.5t16 -71.5q0 -50 -18 -103t-39.5 -107t-39.5 -108.5t-18 -106.5q0 -6 6 -10t11 -4q10 0 17.5 5t15 11t15 11t17.5 5q9 0 17 -5t8 -16q0 -12 -13.5 -23t-32 -19.5t-37 -13.5t-28.5 -5q-23 0 -41.5 11t-18.5 37q0 22 6.5 50
t15.5 57.5t19.5 56.5t18.5 48q9 24 19.5 48.5t19.5 49.5t15 50.5t6 51.5q0 47 -14.5 79t-40.5 52t-62.5 29t-79.5 9q-58 0 -106.5 -14t-84 -42.5t-55 -72t-19.5 -103.5q0 -20 9.5 -40.5t24 -38t30.5 -28.5t28 -11q7 0 8 4t4 11q7 15 10 27t8 28l12 33t16.5 47t15 48t6.5 37
q0 10 -11 10.5t-23.5 -0.5t-23.5 0.5t-11 14.5q0 12 11.5 20.5t27 14t32 7.5t26.5 2q18 0 30 -15.5t8 -32.5q-8 -34 -20 -69t-25 -70.5t-24.5 -70.5t-18.5 -69q-2 -8 7 -12t21 -6t24.5 -2.5t17.5 -0.5q18 0 34.5 4.5t32.5 10.5t31 10.5t29 4.5q8 0 13.5 -4.5t5.5 -12.5
q0 -9 -6 -16t-14 -12q-31 -18 -54.5 -25.5t-46.5 -9t-48 1t-58 3.5q-9 0 -15.5 -14t-13 -35t-15 -46t-22 -46.5t-33.5 -35.5t-49 -14q-8 0 -23 2.5t-30 8t-26 13t-11 16.5q0 11 11.5 17.5t21.5 6.5q14 0 23 -7t26 -7q19 0 35.5 20.5t28.5 47t19 52t7 35.5q0 16 -19 26.5
t-42.5 29t-42.5 52t-19 96.5q0 83 31 136t81.5 83.5t115.5 42t133 11.5zM514 855q7 0 15 -5.5t8 -13.5t-7 -19t-17.5 -21t-22.5 -16.5t-22 -6.5q-11 0 -18 6t-7 17q0 8 7.5 18.5t18 19.5t23 15t22.5 6zM691 854q8 0 16 -4t8 -13q0 -8 -8.5 -19t-20.5 -21.5t-25 -17.5t-22 -7
q-8 0 -15.5 5t-7.5 14t8.5 19.5t20.5 20.5t24.5 16.5t21.5 6.5z" />
    <glyph glyph-name="Edieresis" unicode="&#xcb;" horiz-adv-x="565" 
d="M217 414q-14 -5 -27.5 -18t-24.5 -33t-18 -47.5t-7 -62.5q0 -38 12.5 -74.5t38 -65.5t65 -46.5t94.5 -17.5q56 0 90.5 15t55 38t30 49.5t16.5 49.5t15.5 38t25.5 15q20 0 23.5 -13.5t3.5 -28.5q0 -44 -24 -82.5t-61.5 -67t-82 -45.5t-84.5 -17q-51 0 -100 12.5
t-87.5 40.5t-62 73t-23.5 110q0 48 7.5 81.5t22 59t36 45.5t49.5 40q-3 4 -4 17t1 30t7 35t14 32q16 25 40.5 46t53.5 36t60.5 23t60.5 8q31 0 63.5 -9t61.5 -24.5t53.5 -38t38.5 -49.5q0 -11 -8 -21.5t-20 -10.5q-5 0 -22.5 16t-44.5 35.5t-61 36t-72 16.5q-28 0 -59.5 -11
t-57.5 -30.5t-42 -47t-13 -59.5q11 6 26 10t30.5 6t30 3t25.5 1q19 0 43 -5t45 -16t35.5 -28t14.5 -41q0 -32 -12.5 -51.5t-32 -30.5t-44.5 -14.5t-50 -3.5q-23 0 -47.5 10.5t-45.5 25t-35.5 30t-15.5 26.5zM263 440q3 -19 20 -32t38.5 -21t43 -11.5t33.5 -3.5q16 0 31 14
t15 30q0 17 -11 26.5t-26.5 14t-32 5t-28.5 0.5q-6 0 -16 -1t-22 -3.5t-24 -6.5t-21 -11zM469 870q7 0 15 -5.5t8 -13.5t-7 -19t-17.5 -21t-22.5 -16.5t-22 -6.5q-11 0 -18 6t-7 17q0 8 7.5 18.5t18 19.5t23 15t22.5 6zM646 869q8 0 16 -4t8 -13q0 -8 -8.5 -19t-20.5 -21.5
t-25 -17.5t-22 -7q-8 0 -15.5 5t-7.5 14t8.5 19.5t20.5 20.5t24.5 16.5t21.5 6.5z" />
    <glyph glyph-name="Idieresis" unicode="&#xcf;" horiz-adv-x="493" 
d="M608 676q11 0 19.5 -7t8.5 -18q0 -8 -3 -18t-7 -20.5t-9 -20t-8 -16.5q-27 -56 -45 -114t-34 -117t-33 -119t-41 -120q-11 -26 -21 -46.5t-34 -35.5q-20 -13 -48 -19t-51 -6q-9 0 -22.5 2t-26 7t-22 12.5t-9.5 19.5t8.5 17t19.5 5q17 0 31.5 -7t31.5 -7q8 0 18 1.5
t19.5 4.5t18 8.5t12.5 13.5q9 17 20 47.5t23 67.5t24 77t23 77.5t20 69t14 49.5q2 6 8.5 24.5t13.5 39.5l12.5 37.5t5.5 18.5q0 15 -17.5 24t-41 14t-46.5 6.5t-34 1.5q-42 0 -80 -14t-67.5 -39.5t-47 -61.5t-17.5 -79q0 -26 4.5 -47.5t15.5 -36.5t29 -23.5t46 -8.5
q16 0 30 8t30 8q9 0 19 -3.5t10 -17.5q0 -16 -14 -26t-33.5 -15.5t-39 -7.5t-30.5 -2q-29 0 -52.5 14.5t-40.5 37.5t-26.5 50.5t-9.5 53.5q0 45 15.5 85t42.5 72.5t64 55.5t79 35q29 8 56 8.5t54 -2.5t54 -6.5t56 -3.5q14 0 27.5 6t27.5 6zM435 853q7 0 15 -5.5t8 -13.5
t-7 -19t-17.5 -21t-22.5 -16.5t-22 -6.5q-11 0 -18 6t-7 17q0 8 7.5 18.5t18 19.5t23 15t22.5 6zM612 852q8 0 16 -4t8 -13q0 -8 -8.5 -19t-20.5 -21.5t-25 -17.5t-22 -7q-8 0 -15.5 5t-7.5 14t8.5 19.5t20.5 20.5t24.5 16.5t21.5 6.5z" />
    <glyph glyph-name="Odieresis" unicode="&#xd6;" horiz-adv-x="572" 
d="M428 679q43 0 86 -16t76.5 -51.5t52.5 -91.5t13 -136q-6 -63 -30.5 -132t-65.5 -127t-99.5 -95.5t-132.5 -37.5q-54 0 -98 21t-74.5 56t-47 82t-16.5 98q0 75 23 152t66.5 138.5t105.5 100.5t141 39zM152 264q0 -41 10.5 -80t32 -69.5t55 -49t80.5 -18.5q58 0 107.5 33
t85.5 83t56 108.5t20 110.5q0 46 -6 90t-24.5 78t-52 55t-88.5 21q-61 0 -112 -30.5t-87.5 -81t-56.5 -115.5t-20 -135zM479 855q7 0 15 -5.5t8 -13.5t-7 -19t-17.5 -21t-22.5 -16.5t-22 -6.5q-11 0 -18 6t-7 17q0 8 7.5 18.5t18 19.5t23 15t22.5 6zM656 854q8 0 16 -4
t8 -13q0 -8 -8.5 -19t-20.5 -21.5t-25 -17.5t-22 -7q-8 0 -15.5 5t-7.5 14t8.5 19.5t20.5 20.5t24.5 16.5t21.5 6.5z" />
    <glyph glyph-name="Udieresis" unicode="&#xdc;" horiz-adv-x="812" 
d="M495 679q17 0 38 -4t32 -19q0 -5 -3 -15t-7 -20.5t-8 -20.5t-6 -16q-7 -20 -20.5 -57t-29.5 -82t-32.5 -93.5t-30.5 -92t-22.5 -77.5t-8.5 -49q0 -42 24.5 -64t65.5 -22q21 0 44.5 7t45.5 18t42 26t34 30q10 11 22 39.5t25.5 68t28 86.5t29.5 95t29.5 93.5t27.5 81
t25 58.5t21 26q4 2 9 2q12 0 21.5 -9t9.5 -21q-5 -14 -22 -61t-39 -109t-46 -131.5t-44.5 -129t-33.5 -100.5t-13 -47q-1 -15 6.5 -15.5t19.5 5t27.5 12t30.5 6.5q11 0 20 -4t9 -17q0 -12 -14.5 -23t-33.5 -19.5t-38.5 -13.5t-29.5 -5q-15 0 -24 3t-13.5 9t-7.5 14.5
t-6 19.5q-17 -5 -36.5 -12.5t-39 -14t-39.5 -11t-39 -4.5q-76 0 -119 31t-43 93q0 10 8 41.5t21 74.5t28.5 91.5t30 92.5t26 78t17.5 48t12 29t6 32q-5 11 -11.5 14t-17.5 3q-23 0 -48.5 -8t-47.5 -16q-36 -14 -66.5 -31t-53 -41t-35.5 -56t-13 -74q0 -32 9 -51t23 -29
t30 -14.5t30 -8t23 -8t9 -15.5q-1 -10 -6 -15.5t-11.5 -8.5t-15 -3.5t-15.5 -0.5q-27 0 -53 12t-46 32t-32.5 46t-12.5 53q0 72 35 126t89.5 90t120.5 54t129 18zM707 896q7 0 15 -5.5t8 -13.5t-7 -19t-17.5 -21t-22.5 -16.5t-22 -6.5q-11 0 -18 6t-7 17q0 8 7.5 18.5
t18 19.5t23 15t22.5 6zM884 895q8 0 16 -4t8 -13q0 -8 -8.5 -19t-20.5 -21.5t-25 -17.5t-22 -7q-8 0 -15.5 5t-7.5 14t8.5 19.5t20.5 20.5t24.5 16.5t21.5 6.5z" />
    <glyph glyph-name="quotedblright" unicode="&#x201d;" horiz-adv-x="257" 
d="M168 693q6 2 15.5 -1.5t11.5 -11.5t-6.5 -28.5t-21 -43t-26.5 -40.5t-24 -20q-10 -3 -18.5 1t-11.5 14q-2 8 6.5 28.5t22 42t28 39t24.5 20.5zM258 694q8 2 17 0t11 -11q2 -8 -7.5 -29t-23.5 -44t-29 -42t-24 -21q-8 -2 -16.5 1t-10.5 12q-2 8 7.5 29t23.5 43.5t29 41
t23 20.5z" />
    <glyph glyph-name="G.alt" horiz-adv-x="625" 
d="M491 678q12 0 36 -1.5t53 -5.5t59.5 -10.5t55 -16.5t40.5 -23t16 -31q0 -12 -8.5 -20t-20.5 -8q-14 0 -34 11t-47 24.5t-60.5 24.5t-74.5 11q-18 0 -42 -2.5t-49 -6.5t-48 -10.5t-39 -13.5q-26 -12 -51.5 -37t-45.5 -56t-33 -64.5t-13 -62.5q0 -38 16.5 -65.5t42.5 -44.5
t59 -25t66 -8q42 0 75.5 10t60.5 25t48.5 33t38.5 33t31 25t26 10q11 0 20.5 -5.5t14.5 -15.5q0 -14 -4.5 -25t-11 -21.5t-14.5 -20.5t-14 -21q-11 -20 -14.5 -43.5t-13.5 -44.5q-30 -62 -70.5 -99.5t-90 -58t-107 -27.5t-120.5 -7q-30 0 -67 4.5t-69.5 18t-55 37.5
t-22.5 63q0 19 6 37.5t17.5 33t28 23.5t37.5 9q12 0 25 -7t13 -21t-10 -20.5t-22.5 -11.5t-22.5 -12.5t-10 -23.5q0 -6 2.5 -9.5t5.5 -8.5q17 -23 35.5 -36.5t39.5 -20t46 -8t55 -1.5q58 0 112.5 11t98.5 37.5t75 71t41 110.5q-16 -16 -41 -28.5t-55 -21.5t-63.5 -13.5
t-66.5 -4.5q-39 0 -79 11.5t-72.5 34t-53.5 56t-21 78.5q0 73 31.5 130t82.5 96t115.5 59.5t130.5 20.5z" />
    <glyph glyph-name="H.alt" horiz-adv-x="785" 
d="M681 300q-21 -56 -37 -109.5t-23 -101.5q-5 -30 10.5 -37.5t42.5 -7.5q11 0 19.5 6t17 12.5t18 12.5t21.5 6q8 0 13.5 -7t5.5 -15q0 -15 -17 -28t-40 -22t-46 -14t-35 -5q-17 0 -30.5 7.5t-23 19.5t-14.5 27t-5 30q0 24 8.5 59.5t19 70t19.5 63t9 37.5q0 3 -1 4
q-3 7 -15.5 11.5t-27 6t-28 2t-19.5 0.5q-35 0 -70.5 0.5t-70.5 -4.5q-12 -2 -20.5 -15.5t-16 -36t-14.5 -50.5t-16.5 -57.5t-22 -59t-30.5 -53.5q-22 -30 -53 -49t-76 -19q-12 0 -31 4t-37.5 12t-32 19.5t-13.5 26.5t14 18.5t25 3.5q9 0 18 -6l19.5 -13t22.5 -13t27 -6
q14 0 28.5 7.5t24.5 18.5q6 6 19 34q12 27 28.5 68.5t34.5 90t36 99.5t33 95.5t26 79t15 49.5q-2 13 -14.5 23.5t-29 18t-33.5 11.5t-29 4q-44 0 -83 -15t-68 -42t-46.5 -64.5t-17.5 -82.5q0 -16 4.5 -32.5t13.5 -29.5t22.5 -21.5t31.5 -8.5q13 0 24.5 5.5t24.5 5.5
q12 0 20 -4q6 0 9 -5.5t3 -10.5q0 -14 -8.5 -23t-20.5 -14t-25.5 -7.5t-23.5 -2.5q-69 0 -101.5 41.5t-32.5 105.5q0 57 22 102.5t59 78t86 49.5t103 17q15 0 44.5 -4.5t59.5 -13.5t52 -22t22 -31q0 -15 -11.5 -45.5t-25 -63.5t-24.5 -62t-11 -41q0 -8 11 -12.5t25 -6.5
t27.5 -2h19.5q13 0 41 -0.5t57 1t53 6t30 14.5q11 18 21.5 45.5t22 58.5t26 62t34 56t46 40.5t62.5 15.5q7 0 20.5 -0.5t26.5 -3.5t22.5 -9t9.5 -17q0 -9 -13 -14t-21 -5q-11 0 -22.5 3.5t-22.5 3.5q-21 0 -41 -17t-27 -34q-23 -56 -54 -127t-59 -146z" />
    <glyph glyph-name="slash" unicode="/" horiz-adv-x="466" 
d="M415 701q6 0 13 -0.5t13 -2.5t10.5 -6t4.5 -12q0 -3 -16 -33t-40.5 -74t-54 -95.5t-56 -98.5t-46 -83t-25.5 -48q-26 -54 -59 -102t-61 -106q-8 -16 -17 -33t-27 -23q-2 -1 -5.5 -2t-5.5 -1q-10 0 -21.5 8t-11.5 19t4.5 22t7.5 22q18 33 40.5 72t47 79.5t49 80t45.5 73
t36.5 58.5t21.5 37q5 9 16.5 30t26.5 47t32 54.5t32 53.5t27.5 42.5t18.5 21.5z" />
    <glyph glyph-name="comma" unicode="," horiz-adv-x="166" 
d="M108 62q10 0 16.5 -5.5t6.5 -15.5q0 -12 -6 -34t-15.5 -44.5t-22.5 -39t-27 -16.5q-12 0 -19.5 6t-7.5 19q0 8 6 22.5t13.5 30l15 31t10.5 24.5q0 11 10.5 16.5t19.5 5.5z" />
    <glyph glyph-name="period" unicode="." horiz-adv-x="178" 
d="M92 69q10 0 20.5 -3.5t15.5 -13.5q0 -10 -3.5 -24t-10.5 -26.5t-16.5 -21t-21.5 -8.5q-17 0 -22 10.5t-5 24.5q0 10 2.5 21t7.5 20t13 15t20 6z" />
    <glyph glyph-name="ordmasculine" unicode="&#xba;" horiz-adv-x="410" 
d="M283 660q22 0 40 -8.5t39 -7.5q5 -16 11.5 -28t12.5 -24t10 -25t4 -31q0 -44 -14 -88t-40 -79t-64.5 -56.5t-86.5 -21.5q-57 0 -92 34.5t-35 91.5q0 12 1.5 29.5t4.5 35.5t9 33.5t15 24.5q26 58 73.5 89t111.5 31zM129 443q0 -15 4 -32.5t12 -32.5t20.5 -25t30.5 -10
q31 0 58 15.5t47 39.5t31.5 54t11.5 60q0 19 -5 37.5t-15 33.5t-25.5 24t-37.5 9q-27 0 -51 -18t-42 -44.5t-28.5 -56.5t-10.5 -54zM146 208h33t43.5 -1.5t38 -6t16.5 -12.5q0 -10 -17 -16t-42.5 -9.5t-56 -5t-57 -2t-45.5 0t-21 0.5q-7 0 -17.5 6t-10.5 14q0 13 17.5 19.5
t40.5 9.5t45.5 3h32.5z" />
    <glyph glyph-name="hyphen" unicode="-" horiz-adv-x="408" 
d="M245 343q28 0 55 3t55 3q5 0 12.5 -0.5t14 -2.5t11.5 -6t5 -12q0 -11 -6 -18t-6 -18q-24 5 -46 6.5t-46 1.5t-48 -2t-49 -2q-20 0 -40 -3t-40 -3q-11 0 -22.5 6t-11.5 18q0 18 21 24.5t48 7.5t54 -1t39 -2z" />
    <glyph glyph-name="ellipsis" unicode="&#x2026;" horiz-adv-x="534" 
d="M92 69q10 0 20.5 -3.5t15.5 -13.5q0 -10 -3.5 -24t-10.5 -26.5t-16.5 -21t-21.5 -8.5q-17 0 -22 10.5t-5 24.5q0 10 2.5 21t7.5 20t13 15t20 6zM270 69q10 0 20.5 -3.5t15.5 -13.5q0 -10 -3.5 -24t-10.5 -26.5t-16.5 -21t-21.5 -8.5q-17 0 -22 10.5t-5 24.5q0 10 2.5 21
t7.5 20t13 15t20 6zM448 69q10 0 20.5 -3.5t15.5 -13.5q0 -10 -3.5 -24t-10.5 -26.5t-16.5 -21t-21.5 -8.5q-17 0 -22 10.5t-5 24.5q0 10 2.5 21t7.5 20t13 15t20 6z" />
    <glyph glyph-name="semicolon" unicode=";" horiz-adv-x="166" 
d="M108 62q10 0 16.5 -5.5t6.5 -15.5q0 -12 -6 -34t-15.5 -44.5t-22.5 -39t-27 -16.5q-12 0 -19.5 6t-7.5 19q0 8 6 22.5t13.5 30l15 31t10.5 24.5q0 11 10.5 16.5t19.5 5.5zM180 402q10 0 20.5 -3.5t15.5 -13.5q0 -10 -3.5 -24t-10.5 -26.5t-16.5 -21t-21.5 -8.5
q-17 0 -22 10.5t-5 24.5q0 10 2.5 21t7.5 20t13 15t20 6z" />
    <glyph glyph-name="colon" unicode=":" horiz-adv-x="178" 
d="M169 402q10 0 20.5 -3.5t15.5 -13.5q0 -10 -3.5 -24t-10.5 -26.5t-16.5 -21t-21.5 -8.5q-17 0 -22 10.5t-5 24.5q0 10 2.5 21t7.5 20t13 15t20 6zM92 69q10 0 20.5 -3.5t15.5 -13.5q0 -10 -3.5 -24t-10.5 -26.5t-16.5 -21t-21.5 -8.5q-17 0 -22 10.5t-5 24.5q0 10 2.5 21
t7.5 20t13 15t20 6z" />
    <glyph glyph-name="acute" unicode="&#xb4;" horiz-adv-x="0" 
d="M425 705q4 0 10.5 -0.5t12.5 -2t10.5 -4.5t4.5 -7q0 -8 -17 -26.5t-39 -38t-43.5 -34t-30.5 -14.5q-8 0 -15.5 5t-7.5 14t14.5 27t34 36t38.5 31.5t28 13.5z" />
    <glyph glyph-name="exclam" unicode="!" horiz-adv-x="178" 
d="M92 69q10 0 20.5 -3.5t15.5 -13.5q0 -10 -3.5 -24t-10.5 -26.5t-16.5 -21t-21.5 -8.5q-17 0 -22 10.5t-5 24.5q0 10 2.5 21t7.5 20t13 15t20 6zM312 698q7 -5 14 -9.5t7 -13.5q0 -11 -3.5 -25t-8 -29t-9.5 -29t-8 -26q-7 -24 -11 -37t-6.5 -20.5t-4.5 -13t-4 -13.5
t-6 -21t-10 -37q-12 -44 -29 -85.5t-27 -86.5q-5 -19 -6.5 -38.5t-9.5 -37.5q-6 -15 -21 -25.5t-31 -10.5q-9 0 -19 11t-10 20q0 20 11 41t18 40q13 37 22 64.5t16 49.5t13 42t13 42t16 49.5t22 64.5q2 33 10.5 60.5t20 45.5t22.5 26t19 2z" />
    <glyph glyph-name="question" unicode="?" horiz-adv-x="497" 
d="M216 140q-9 0 -19 11t-10 20q0 20 8 42.5t21 38.5q23 29 47 45.5t47 27t44.5 19t41 21.5t36 34t29.5 57q5 14 9 28t4 29q0 61 -32.5 97t-89.5 36q-31 0 -65.5 -7t-63.5 -23t-48 -42t-19 -64q0 -14 4 -28.5t4 -28.5t-7 -26.5t-24 -12.5q-12 0 -20.5 5.5t-14 14.5t-8 19.5
t-2.5 20.5q0 55 19.5 96.5t53.5 68.5t79.5 40.5t97.5 13.5q38 0 73 -11.5t62 -34t43 -55t16 -75.5q0 -55 -16.5 -92t-42.5 -62.5t-58.5 -44t-63.5 -38t-58 -42.5t-42 -58q-7 -15 -13 -27.5t-22 -12.5zM194 68q10 0 20.5 -3.5t15.5 -13.5q0 -10 -3.5 -24t-10.5 -26.5
t-16.5 -21t-21.5 -8.5q-17 0 -22 10.5t-5 24.5q0 10 2.5 21t7.5 20t13 15t20 6z" />
    <glyph glyph-name="ampersand" unicode="&#x26;" horiz-adv-x="629" 
d="M419 637q46 -15 83.5 -47.5t63 -73t39.5 -85.5t14 -87q0 -106 -48.5 -193t-144.5 -135q-19 -9 -35.5 -17.5t-34 -14.5t-36 -9.5t-40.5 -3.5q-51 0 -99.5 12t-86.5 38.5t-61 67.5t-23 98q0 59 20.5 96t67.5 69q6 4 20.5 9.5t29.5 11.5t26.5 12.5t11.5 14.5q0 9 -3 17
t-3 17q0 31 14 55t36.5 40t51 24t56.5 8q22 0 46 -8t43 -22.5t31.5 -35t12.5 -45.5q0 -16 -6.5 -32t-17.5 -29t-25.5 -21t-31.5 -8q-7 0 -13 4t-6 12q0 10 7.5 17.5t17 15.5t17 17.5t7.5 24.5q0 12 -6 22.5t-16 18.5q-9 15 -29 22t-37 7t-34.5 -6t-31.5 -16.5t-23 -25.5
t-9 -33q0 -25 18.5 -41t46.5 -28.5t60.5 -24.5t60.5 -27.5t46.5 -37t18.5 -54.5q0 -12 -7.5 -20.5t-20.5 -8.5q-9 0 -17.5 3t-13.5 11q-9 12 -10.5 27t-13.5 29q-7 8 -32 20.5t-54.5 24t-56.5 20t-37 8.5q-60 0 -97.5 -32.5t-58.5 -84.5q0 -28 5.5 -57.5t18 -55.5t32 -47
t48.5 -32q20 0 38 -6.5t38 -6.5q73 0 131.5 25t100 69.5t63.5 105.5t22 133q0 27 -6.5 57.5t-18.5 59.5t-29.5 54t-38.5 41q-22 16 -41 25t-37.5 13.5t-38 5.5t-41.5 1q-65 0 -110.5 -18.5t-75.5 -41t-48 -41t-28 -18.5q-8 0 -14.5 4.5t-6.5 13.5q0 2 2 8t3 8q13 32 48.5 56
t79 40t88 24t76.5 8q26 0 51.5 -5t41.5 -10z" />
    <glyph glyph-name="equal" unicode="=" horiz-adv-x="408" 
d="M217 236q28 0 55 3t55 3q5 0 12.5 -0.5t14 -2.5t11.5 -6t5 -12q0 -11 -6 -18t-6 -18q-24 5 -46 6.5t-46 1.5t-48 -2t-49 -2q-20 0 -40 -3t-40 -3q-11 0 -22.5 6t-11.5 18q0 18 21 24.5t48 7.5t54 -1t39 -2zM245 343q28 0 55 3t55 3q5 0 12.5 -0.5t14 -2.5t11.5 -6t5 -12
q0 -11 -6 -18t-6 -18q-24 5 -46 6.5t-46 1.5t-48 -2t-49 -2q-20 0 -40 -3t-40 -3q-11 0 -22.5 6t-11.5 18q0 18 21 24.5t48 7.5t54 -1t39 -2z" />
    <glyph glyph-name="parenleft" unicode="(" horiz-adv-x="-193" 
d="M97 778q13 3 22.5 -1t13.5 -12.5t2.5 -19t-11.5 -19.5q-48 -36 -84 -85.5t-61 -100.5t-39.5 -96.5t-19.5 -73.5l-12 -62q-8 -45 -16 -88t-8 -84q0 -38 9.5 -75.5t33.5 -72.5q6 -11 4 -21t-9 -16t-17.5 -7t-21.5 6q-33 32 -46 81t-13 107q0 51 8.5 110t21.5 113
q13 56 31.5 112.5t46 110.5t67 102.5t95.5 89.5z" />
    <glyph glyph-name="parenright" unicode=")" horiz-adv-x="-193" 
d="M-136 -54q-13 -3 -22.5 1t-14 12t-3 18.5t11.5 19.5q48 36 84.5 85.5t61.5 100.5t39.5 96.5t19.5 73.5l11 62q9 45 16.5 88t7.5 84q0 39 -9 76t-33 72q-6 11 -4.5 21t8.5 16t17.5 7t21.5 -6q33 -32 46.5 -81t13.5 -107q0 -51 -9 -110t-21 -112q-14 -56 -32 -113
t-45.5 -110.5t-67 -102.5t-95.5 -89z" />
    <glyph glyph-name="percent" unicode="%" horiz-adv-x="813" 
d="M263 700q22 0 42 -5.5t37 -18.5q24 -18 37.5 -34.5t20 -34.5t7.5 -40t1 -51q0 -41 -17.5 -85.5t-47.5 -81t-69 -60.5t-82 -24q-79 0 -118 44.5t-39 119.5q0 44 17.5 92t48.5 87.5t72.5 65.5t89.5 26zM92 393q7 -20 15 -35t19 -25t27 -15t40 -5q40 0 70 23.5t50 58t30 75
t10 73.5q0 18 -5 36t-14.5 33t-24.5 24t-34 9q-53 0 -88 -23t-56 -59t-30 -81t-9 -89zM600 701q6 0 13 -0.5t13 -2.5t10.5 -6t4.5 -12q0 -3 -16 -33t-40.5 -74t-54 -95.5t-56 -98.5t-46 -83t-25.5 -48q-26 -54 -59 -102t-61 -106q-8 -16 -17 -33t-27 -23q-2 -1 -5.5 -2
t-5.5 -1q-10 0 -21.5 8t-11.5 19t4.5 22t7.5 22q18 33 41 72t47 79.5t48.5 80t45.5 73t36 58.5t22 37q5 9 16.5 30t26.5 47t32 54.5t32 53.5t27.5 42.5t18.5 21.5zM663 437q22 0 42 -5.5t37 -18.5q24 -18 37.5 -34.5t20 -34.5t7.5 -40t1 -51q0 -41 -17.5 -85.5t-47.5 -81
t-69 -60.5t-82 -24q-79 0 -118 44.5t-39 119.5q0 44 17.5 92t48.5 87.5t72.5 65.5t89.5 26zM492 130q7 -20 15 -35t19 -25t27 -15t40 -5q40 0 70 23.5t50 58t30 75t10 73.5q0 18 -5 36t-14.5 33t-24.5 24t-34 9q-53 0 -88 -23t-56 -59t-30 -81t-9 -89z" />
    <glyph glyph-name="plus" unicode="+" horiz-adv-x="408" 
d="M247 442q1 5 3 12t6 13t9 9.5t13 1.5q10 -2 15.5 -10t16.5 -11q-11 -22 -18.5 -42.5t-13.5 -43.5q-2 -7 -3.5 -13.5t-3.5 -13.5q21 1 42 3t42 2q5 0 12.5 -0.5t14 -2.5t11.5 -6t5 -12q0 -11 -6 -18t-6 -18q-24 5 -46 6.5t-46 1.5q-8 0 -16 -0.5t-16 -0.5q-1 -10 -5 -23
q-5 -20 -7.5 -40t-7.5 -39q-3 -10 -12 -20t-20 -6q-13 3 -16.5 16.5t-1.5 31.5t7.5 38.5t11.5 38.5h-14q-20 0 -40 -3t-40 -3q-11 0 -22.5 6t-11.5 18q0 15 15.5 22t38 9t47 0.5t42.5 -2.5q6 25 10 50t11 49z" />
    <glyph glyph-name="quotedbl" unicode="&#x22;" horiz-adv-x="257" 
d="M168 693q6 2 15.5 -1.5t11.5 -11.5t-6.5 -28.5t-21 -43t-26.5 -40.5t-24 -20q-10 -3 -18.5 1t-11.5 14q-2 8 6.5 28.5t22 42t28 39t24.5 20.5zM258 694q8 2 17 0t11 -11q2 -8 -7.5 -29t-23.5 -44t-29 -42t-24 -21q-8 -2 -16.5 1t-10.5 12q-2 8 7.5 29t23.5 43.5t29 41
t23 20.5z" />
    <glyph glyph-name="quotesingle" unicode="'" horiz-adv-x="182" 
d="M168 693q6 2 15.5 -1.5t11.5 -11.5t-6.5 -28.5t-21 -43t-26.5 -40.5t-24 -20q-10 -3 -18.5 1t-11.5 14q-2 8 6.5 28.5t22 42t28 39t24.5 20.5z" />
    <glyph glyph-name="bar" unicode="|" horiz-adv-x="276" 
d="M229 695q9 0 21.5 -2.5t14.5 -18.5q0 -3 -8 -32t-20.5 -72t-28 -94t-29.5 -97t-24.5 -81t-13.5 -47q-6 -26 -13.5 -50.5t-16.5 -49t-17.5 -50.5t-15.5 -54q-3 -14 -7.5 -31t-18.5 -23q-2 -1 -4.5 -2t-4.5 -1q-8 0 -19 8t-13 19t0.5 21t3.5 21q13 49 33.5 109.5t40 117.5
t35.5 102t21 63q2 9 8 29t14 46t17 54t17.5 52t15.5 41.5t12 21.5z" />
    <glyph glyph-name="grave" unicode="`" horiz-adv-x="0" 
d="M348 705q9 0 28 -13.5t38.5 -31.5t34 -36t14.5 -27t-7.5 -14t-15.5 -5q-9 0 -30.5 14.5t-43.5 34t-39 38t-17 26.5q0 4 4.5 7t10.5 4.5t12.5 2t10.5 0.5z" />
    <glyph glyph-name="oslash" unicode="&#xf8;" 
d="M457 500q11 0 24.5 -2t13.5 -13q0 -2 -8.5 -14.5t-22.5 -32.5q16 -17 25 -33.5t13 -35t5 -41.5t1 -51q0 -49 -21 -102t-57 -97.5t-83 -73t-99 -28.5q-60 0 -103 23q-5 -6 -11 -11t-15 -7q-2 0 -5 -1t-5 -1q-9 0 -20 6t-11 14t4.5 16t7.5 16l7 10q-37 49 -37 132
q0 53 21 110.5t58 105t87 78.5t108 31q25 0 49 -7t44 -22q10 12 17.5 20.5t12.5 10.5zM250 34q48 0 84 28t60 70t36 90t12 88q0 18 -4.5 37t-13.5 35q-23 -31 -47.5 -65t-46 -63.5t-37.5 -51.5t-20 -30q-20 -32 -45.5 -61t-48.5 -61q25 -16 71 -16zM128 129l12 -30
q26 34 53.5 68.5t52 65t43 53.5t25.5 34q8 10 29.5 39.5t45.5 61.5q-19 11 -41 11q-63 0 -105.5 -27.5t-68 -71t-36 -97.5t-10.5 -107z" />
    <glyph glyph-name="Oslash" unicode="&#xd8;" horiz-adv-x="572" 
d="M561 699q6 0 13 -0.5t13 -2.5t10.5 -6t4.5 -12q0 -2 -6 -14t-17 -32q35 -26 56 -63t21 -85v-100q0 -38 -12 -73.5t-24 -70.5q-16 -46 -44 -90.5t-65.5 -79.5t-84 -56.5t-98.5 -21.5q-27 0 -51 5.5t-46 14.5q-5 -10 -12.5 -18t-18.5 -12q-2 -1 -5.5 -2t-5.5 -1
q-10 0 -21.5 8t-11.5 19t4.5 22t7.5 22l2 4q-38 36 -58 87t-20 108q0 20 5.5 51.5t15 68t23 74t29.5 70t34 57t37 34.5q13 16 37 29.5t52 23.5t55.5 16t47.5 6q54 0 102 -21q11 16 18.5 27t12.5 14zM330 47q58 0 107 35t84.5 87.5t55 113.5t19.5 113v43q0 36 -10 76t-33 69
q-24 -44 -54.5 -97.5t-58.5 -103t-49 -87.5t-27 -50q-23 -49 -52.5 -92t-55.5 -92q31 -15 74 -15zM152 264q0 -45 11.5 -85.5t36.5 -71.5q28 49 61 103t62.5 102t52.5 85t32 53q4 8 14.5 26.5t24 42.5t29 50.5t30.5 50.5q-21 8 -42 8q-69 0 -115.5 -18t-78 -51.5t-53 -81
t-41.5 -105.5q-3 -9 -7 -23.5t-8 -30.5t-6.5 -30.5t-2.5 -23.5z" />
    <glyph glyph-name="Ugrave" unicode="&#xd9;" horiz-adv-x="812" 
d="M495 679q17 0 38 -4t32 -19q0 -5 -3 -15t-7 -20.5t-8 -20.5t-6 -16q-7 -20 -20.5 -57t-29.5 -82t-32.5 -93.5t-30.5 -92t-22.5 -77.5t-8.5 -49q0 -42 24.5 -64t65.5 -22q21 0 44.5 7t45.5 18t42 26t34 30q10 11 22 39.5t25.5 68t28 86.5t29.5 95t29.5 93.5t27.5 81
t25 58.5t21 26q4 2 9 2q12 0 21.5 -9t9.5 -21q-5 -14 -22 -61t-39 -109t-46 -131.5t-44.5 -129t-33.5 -100.5t-13 -47q-1 -15 6.5 -15.5t19.5 5t27.5 12t30.5 6.5q11 0 20 -4t9 -17q0 -12 -14.5 -23t-33.5 -19.5t-38.5 -13.5t-29.5 -5q-15 0 -24 3t-13.5 9t-7.5 14.5
t-6 19.5q-17 -5 -36.5 -12.5t-39 -14t-39.5 -11t-39 -4.5q-76 0 -119 31t-43 93q0 10 8 41.5t21 74.5t28.5 91.5t30 92.5t26 78t17.5 48t12 29t6 32q-5 11 -11.5 14t-17.5 3q-23 0 -48.5 -8t-47.5 -16q-36 -14 -66.5 -31t-53 -41t-35.5 -56t-13 -74q0 -32 9 -51t23 -29
t30 -14.5t30 -8t23 -8t9 -15.5q-1 -10 -6 -15.5t-11.5 -8.5t-15 -3.5t-15.5 -0.5q-27 0 -53 12t-46 32t-32.5 46t-12.5 53q0 72 35 126t89.5 90t120.5 54t129 18zM638 822q9 0 28 -13.5t38.5 -31.5t34 -36t14.5 -27t-7.5 -14t-15.5 -5q-9 0 -30.5 14.5t-43.5 34t-39 38
t-17 26.5q0 4 4.5 7t10.5 4.5t12.5 2t10.5 0.5z" />
    <glyph glyph-name="Uacute" unicode="&#xda;" horiz-adv-x="812" 
d="M495 679q17 0 38 -4t32 -19q0 -5 -3 -15t-7 -20.5t-8 -20.5t-6 -16q-7 -20 -20.5 -57t-29.5 -82t-32.5 -93.5t-30.5 -92t-22.5 -77.5t-8.5 -49q0 -42 24.5 -64t65.5 -22q21 0 44.5 7t45.5 18t42 26t34 30q10 11 22 39.5t25.5 68t28 86.5t29.5 95t29.5 93.5t27.5 81
t25 58.5t21 26q4 2 9 2q12 0 21.5 -9t9.5 -21q-5 -14 -22 -61t-39 -109t-46 -131.5t-44.5 -129t-33.5 -100.5t-13 -47q-1 -15 6.5 -15.5t19.5 5t27.5 12t30.5 6.5q11 0 20 -4t9 -17q0 -12 -14.5 -23t-33.5 -19.5t-38.5 -13.5t-29.5 -5q-15 0 -24 3t-13.5 9t-7.5 14.5
t-6 19.5q-17 -5 -36.5 -12.5t-39 -14t-39.5 -11t-39 -4.5q-76 0 -119 31t-43 93q0 10 8 41.5t21 74.5t28.5 91.5t30 92.5t26 78t17.5 48t12 29t6 32q-5 11 -11.5 14t-17.5 3q-23 0 -48.5 -8t-47.5 -16q-36 -14 -66.5 -31t-53 -41t-35.5 -56t-13 -74q0 -32 9 -51t23 -29
t30 -14.5t30 -8t23 -8t9 -15.5q-1 -10 -6 -15.5t-11.5 -8.5t-15 -3.5t-15.5 -0.5q-27 0 -53 12t-46 32t-32.5 46t-12.5 53q0 72 35 126t89.5 90t120.5 54t129 18zM803 839q4 0 10.5 -0.5t12.5 -2t10.5 -4.5t4.5 -7q0 -8 -17 -26.5t-39 -38t-43.5 -34t-30.5 -14.5
q-8 0 -15.5 5t-7.5 14t14.5 27t34 36t38.5 31.5t28 13.5z" />
    <glyph glyph-name="agrave" unicode="&#xe0;" horiz-adv-x="487" 
d="M329 499q21 0 36 -4.5t28 -10.5t26 -12.5t31 -10.5q7 2 11.5 7.5t8.5 11t9 10t13 4.5q11 0 19.5 -9t4.5 -19q-6 -17 -15 -44.5t-20 -62t-22.5 -73.5t-23 -77t-21.5 -73.5t-17 -63.5q-1 -11 5.5 -9.5t17 6.5t23.5 11.5t25 6.5q10 0 17.5 -5t7.5 -16q0 -12 -10.5 -24
t-25.5 -21.5t-31 -15t-27 -5.5t-20 4t-17 9t-17 9t-20 4q-5 0 -16.5 -4.5t-25.5 -10.5t-29 -10.5t-27 -4.5q-46 0 -81.5 10t-59.5 32t-36.5 58t-12.5 88q0 60 22.5 116.5t61.5 101t92.5 71t115.5 26.5zM96 204q0 -20 4.5 -45.5t16.5 -48t32.5 -37.5t52.5 -14q43 1 73.5 11
t62.5 39q15 14 18.5 30t9.5 34q9 28 19 62.5t18.5 65t13 52.5t2.5 26q-3 16 -12.5 28.5t-22 20t-27 11.5t-29.5 4q-44 0 -85.5 -21t-74 -54.5t-52.5 -76.5t-20 -87zM309 705q9 0 28 -13.5t38.5 -31.5t34 -36t14.5 -27t-7.5 -14t-15.5 -5q-9 0 -30.5 14.5t-43.5 34t-39 38
t-17 26.5q0 4 4.5 7t10.5 4.5t12.5 2t10.5 0.5z" />
    <glyph glyph-name="aacute" unicode="&#xe1;" horiz-adv-x="487" 
d="M329 499q21 0 36 -4.5t28 -10.5t26 -12.5t31 -10.5q7 2 11.5 7.5t8.5 11t9 10t13 4.5q11 0 19.5 -9t4.5 -19q-6 -17 -15 -44.5t-20 -62t-22.5 -73.5t-23 -77t-21.5 -73.5t-17 -63.5q-1 -11 5.5 -9.5t17 6.5t23.5 11.5t25 6.5q10 0 17.5 -5t7.5 -16q0 -12 -10.5 -24
t-25.5 -21.5t-31 -15t-27 -5.5t-20 4t-17 9t-17 9t-20 4q-5 0 -16.5 -4.5t-25.5 -10.5t-29 -10.5t-27 -4.5q-46 0 -81.5 10t-59.5 32t-36.5 58t-12.5 88q0 60 22.5 116.5t61.5 101t92.5 71t115.5 26.5zM96 204q0 -20 4.5 -45.5t16.5 -48t32.5 -37.5t52.5 -14q43 1 73.5 11
t62.5 39q15 14 18.5 30t9.5 34q9 28 19 62.5t18.5 65t13 52.5t2.5 26q-3 16 -12.5 28.5t-22 20t-27 11.5t-29.5 4q-44 0 -85.5 -21t-74 -54.5t-52.5 -76.5t-20 -87zM424 705q4 0 10.5 -0.5t12.5 -2t10.5 -4.5t4.5 -7q0 -8 -17 -26.5t-39 -38t-43.5 -34t-30.5 -14.5
q-8 0 -15.5 5t-7.5 14t14.5 27t34 36t38.5 31.5t28 13.5z" />
    <glyph glyph-name="egrave" unicode="&#xe8;" horiz-adv-x="436" 
d="M328 502q88 0 135.5 -41.5t47.5 -131.5q0 -36 -8.5 -57t-25 -32.5t-40.5 -14.5t-56 -3q-60 0 -122.5 -0.5t-122.5 -0.5q-12 0 -17.5 -4.5t-8 -11.5t-2.5 -16v-17q0 -27 12 -48.5t32 -37t45 -24t52 -8.5q28 0 49.5 9t38 20t29.5 20t25 9q28 0 28 -28q0 -19 -23 -35.5
t-53.5 -28.5t-61 -18.5t-45.5 -6.5q-35 0 -68.5 14t-59.5 38.5t-42 57t-16 70.5q0 58 17.5 116.5t52 105.5t87 76t121.5 29zM135 288q0 -5 3.5 -8t8.5 -4.5t10.5 -1.5h9.5q45 0 93.5 1.5t93.5 1.5q18 0 36.5 1t33.5 6.5t24 17t9 33.5q0 51 -36 77.5t-87 26.5q-33 0 -60 -4
t-49 -14.5t-40 -28.5t-34 -46q-5 -9 -10.5 -28t-5.5 -30zM327 705q9 0 28 -13.5t38.5 -31.5t34 -36t14.5 -27t-7.5 -14t-15.5 -5q-9 0 -30.5 14.5t-43.5 34t-39 38t-17 26.5q0 4 4.5 7t10.5 4.5t12.5 2t10.5 0.5z" />
    <glyph glyph-name="eacute" unicode="&#xe9;" horiz-adv-x="436" 
d="M328 502q88 0 135.5 -41.5t47.5 -131.5q0 -36 -8.5 -57t-25 -32.5t-40.5 -14.5t-56 -3q-60 0 -122.5 -0.5t-122.5 -0.5q-12 0 -17.5 -4.5t-8 -11.5t-2.5 -16v-17q0 -27 12 -48.5t32 -37t45 -24t52 -8.5q28 0 49.5 9t38 20t29.5 20t25 9q28 0 28 -28q0 -19 -23 -35.5
t-53.5 -28.5t-61 -18.5t-45.5 -6.5q-35 0 -68.5 14t-59.5 38.5t-42 57t-16 70.5q0 58 17.5 116.5t52 105.5t87 76t121.5 29zM135 288q0 -5 3.5 -8t8.5 -4.5t10.5 -1.5h9.5q45 0 93.5 1.5t93.5 1.5q18 0 36.5 1t33.5 6.5t24 17t9 33.5q0 51 -36 77.5t-87 26.5q-33 0 -60 -4
t-49 -14.5t-40 -28.5t-34 -46q-5 -9 -10.5 -28t-5.5 -30zM475 705q4 0 10.5 -0.5t12.5 -2t10.5 -4.5t4.5 -7q0 -8 -17 -26.5t-39 -38t-43.5 -34t-30.5 -14.5q-8 0 -15.5 5t-7.5 14t14.5 27t34 36t38.5 31.5t28 13.5z" />
    <glyph glyph-name="dotlessi" unicode="&#x131;" horiz-adv-x="233" 
d="M200 497q8 0 16 3t16 3q14 0 23.5 -10t9.5 -24q0 -10 -8.5 -38t-21 -65.5t-27.5 -80.5t-27.5 -82.5t-21.5 -71t-9 -46.5l4 -8q8 -5 19.5 -4t19.5 1q13 0 26.5 -9t13.5 -23t-9 -21t-22 -10t-27.5 -3h-25.5q-12 0 -25 3t-23.5 10t-17 17t-6.5 24q0 15 8.5 45.5t21 67
t27.5 76.5t27.5 75t21 61.5t8.5 36.5q0 9 -9 11.5t-19.5 4.5t-19 6.5t-8.5 16.5q0 13 6.5 20t16.5 10t21.5 3.5t20.5 0.5z" />
    <glyph glyph-name="igrave" unicode="&#xec;" horiz-adv-x="233" 
d="M200 497q8 0 16 3t16 3q14 0 23.5 -10t9.5 -24q0 -10 -8.5 -38t-21 -65.5t-27.5 -80.5t-27.5 -82.5t-21.5 -71t-9 -46.5l4 -8q8 -5 19.5 -4t19.5 1q13 0 26.5 -9t13.5 -23t-9 -21t-22 -10t-27.5 -3h-25.5q-12 0 -25 3t-23.5 10t-17 17t-6.5 24q0 15 8.5 45.5t21 67
t27.5 76.5t27.5 75t21 61.5t8.5 36.5q0 9 -9 11.5t-19.5 4.5t-19 6.5t-8.5 16.5q0 13 6.5 20t16.5 10t21.5 3.5t20.5 0.5zM199 705q9 0 28 -13.5t38.5 -31.5t34 -36t14.5 -27t-7.5 -14t-15.5 -5q-9 0 -30.5 14.5t-43.5 34t-39 38t-17 26.5q0 4 4.5 7t10.5 4.5t12.5 2
t10.5 0.5z" />
    <glyph glyph-name="iacute" unicode="&#xed;" horiz-adv-x="233" 
d="M200 497q8 0 16 3t16 3q14 0 23.5 -10t9.5 -24q0 -10 -8.5 -38t-21 -65.5t-27.5 -80.5t-27.5 -82.5t-21.5 -71t-9 -46.5l4 -8q8 -5 19.5 -4t19.5 1q13 0 26.5 -9t13.5 -23t-9 -21t-22 -10t-27.5 -3h-25.5q-12 0 -25 3t-23.5 10t-17 17t-6.5 24q0 15 8.5 45.5t21 67
t27.5 76.5t27.5 75t21 61.5t8.5 36.5q0 9 -9 11.5t-19.5 4.5t-19 6.5t-8.5 16.5q0 13 6.5 20t16.5 10t21.5 3.5t20.5 0.5zM321 705q4 0 10.5 -0.5t12.5 -2t10.5 -4.5t4.5 -7q0 -8 -17 -26.5t-39 -38t-43.5 -34t-30.5 -14.5q-8 0 -15.5 5t-7.5 14t14.5 27t34 36t38.5 31.5
t28 13.5z" />
    <glyph glyph-name="idieresis" unicode="&#xef;" horiz-adv-x="233" 
d="M200 497q8 0 16 3t16 3q14 0 23.5 -10t9.5 -24q0 -10 -8.5 -38t-21 -65.5t-27.5 -80.5t-27.5 -82.5t-21.5 -71t-9 -46.5l4 -8q8 -5 19.5 -4t19.5 1q13 0 26.5 -9t13.5 -23t-9 -21t-22 -10t-27.5 -3h-25.5q-12 0 -25 3t-23.5 10t-17 17t-6.5 24q0 15 8.5 45.5t21 67
t27.5 76.5t27.5 75t21 61.5t8.5 36.5q0 9 -9 11.5t-19.5 4.5t-19 6.5t-8.5 16.5q0 13 6.5 20t16.5 10t21.5 3.5t20.5 0.5zM245 706q7 0 15 -5.5t8 -13.5t-7 -19t-17.5 -21t-22.5 -16.5t-22 -6.5q-11 0 -18 6t-7 17q0 8 7.5 18.5t18 19.5t23 15t22.5 6zM422 705q8 0 16 -4
t8 -13q0 -8 -8.5 -19t-20.5 -21.5t-25 -17.5t-22 -7q-8 0 -15.5 5t-7.5 14t8.5 19.5t20.5 20.5t24.5 16.5t21.5 6.5z" />
    <glyph glyph-name="ograve" unicode="&#xf2;" 
d="M337 516q51 0 83 -18t50.5 -47.5t25 -68t6.5 -79.5q0 -60 -20 -116t-54 -99t-79.5 -68.5t-97.5 -25.5q-95 0 -141.5 53t-46.5 144q0 60 21 118.5t58 104t87 74t108 28.5zM132 174q0 -21 8.5 -42.5t23.5 -39.5t37.5 -29t51.5 -11q48 0 84 28t60 70t36 90t12 88q0 21 -7 44
t-20.5 42t-32 31t-42.5 12q-49 -1 -88 -25t-66.5 -64t-42 -90.5t-14.5 -103.5zM344 705q9 0 28 -13.5t38.5 -31.5t34 -36t14.5 -27t-7.5 -14t-15.5 -5q-9 0 -30.5 14.5t-43.5 34t-39 38t-17 26.5q0 4 4.5 7t10.5 4.5t12.5 2t10.5 0.5z" />
    <glyph glyph-name="oacute" unicode="&#xf3;" 
d="M337 516q51 0 83 -18t50.5 -47.5t25 -68t6.5 -79.5q0 -60 -20 -116t-54 -99t-79.5 -68.5t-97.5 -25.5q-95 0 -141.5 53t-46.5 144q0 60 21 118.5t58 104t87 74t108 28.5zM132 174q0 -21 8.5 -42.5t23.5 -39.5t37.5 -29t51.5 -11q48 0 84 28t60 70t36 90t12 88q0 21 -7 44
t-20.5 42t-32 31t-42.5 12q-49 -1 -88 -25t-66.5 -64t-42 -90.5t-14.5 -103.5zM446 705q4 0 10.5 -0.5t12.5 -2t10.5 -4.5t4.5 -7q0 -8 -17 -26.5t-39 -38t-43.5 -34t-30.5 -14.5q-8 0 -15.5 5t-7.5 14t14.5 27t34 36t38.5 31.5t28 13.5z" />
    <glyph glyph-name="ugrave" unicode="&#xf9;" horiz-adv-x="532" 
d="M507 499q7 0 17.5 -0.5t20 -3t16 -8.5t6.5 -16q0 -9 -9 -39t-22 -70t-29 -86t-29 -87.5t-22 -73.5t-9 -44q0 -11 6.5 -12t15.5 2.5t18.5 8.5t15.5 5q10 0 20 -7t10 -18q0 -12 -12 -22.5t-28.5 -17.5t-33.5 -11t-27 -4q-12 0 -23.5 4.5t-17.5 15.5q-6 5 -13 11.5t-15 6.5
q-5 0 -20.5 -6t-35.5 -13t-41.5 -13t-38.5 -6q-24 0 -48 8.5t-42.5 23.5t-30.5 36t-12 47q0 36 12.5 81t27.5 89t27.5 81.5t12.5 58.5q0 9 -6.5 12.5t-14 6.5t-13.5 7.5t-6 15.5q0 14 9.5 20.5t23 9t28 2t24.5 -0.5q14 0 26 -8t12 -24q0 -11 -7.5 -35t-19 -55t-24.5 -67
t-24.5 -70t-19 -63t-7.5 -48q0 -35 20.5 -55t55.5 -20q19 0 46 10t53 25.5t46.5 34.5t26.5 37q7 21 15 43.5t18.5 53.5t24 73.5t31.5 103.5q0 10 -6 14.5t-13 8t-13 9t-6 16.5q0 9 6 14t14.5 6.5t17.5 1.5h15zM339 705q9 0 28 -13.5t38.5 -31.5t34 -36t14.5 -27t-7.5 -14
t-15.5 -5q-9 0 -30.5 14.5t-43.5 34t-39 38t-17 26.5q0 4 4.5 7t10.5 4.5t12.5 2t10.5 0.5z" />
    <glyph glyph-name="uacute" unicode="&#xfa;" horiz-adv-x="532" 
d="M507 499q7 0 17.5 -0.5t20 -3t16 -8.5t6.5 -16q0 -9 -9 -39t-22 -70t-29 -86t-29 -87.5t-22 -73.5t-9 -44q0 -11 6.5 -12t15.5 2.5t18.5 8.5t15.5 5q10 0 20 -7t10 -18q0 -12 -12 -22.5t-28.5 -17.5t-33.5 -11t-27 -4q-12 0 -23.5 4.5t-17.5 15.5q-6 5 -13 11.5t-15 6.5
q-5 0 -20.5 -6t-35.5 -13t-41.5 -13t-38.5 -6q-24 0 -48 8.5t-42.5 23.5t-30.5 36t-12 47q0 36 12.5 81t27.5 89t27.5 81.5t12.5 58.5q0 9 -6.5 12.5t-14 6.5t-13.5 7.5t-6 15.5q0 14 9.5 20.5t23 9t28 2t24.5 -0.5q14 0 26 -8t12 -24q0 -11 -7.5 -35t-19 -55t-24.5 -67
t-24.5 -70t-19 -63t-7.5 -48q0 -35 20.5 -55t55.5 -20q19 0 46 10t53 25.5t46.5 34.5t26.5 37q7 21 15 43.5t18.5 53.5t24 73.5t31.5 103.5q0 10 -6 14.5t-13 8t-13 9t-6 16.5q0 9 6 14t14.5 6.5t17.5 1.5h15zM490 705q4 0 10.5 -0.5t12.5 -2t10.5 -4.5t4.5 -7
q0 -8 -17 -26.5t-39 -38t-43.5 -34t-30.5 -14.5q-8 0 -15.5 5t-7.5 14t14.5 27t34 36t38.5 31.5t28 13.5z" />
    <glyph glyph-name="yacute" unicode="&#xfd;" horiz-adv-x="458" 
d="M547 468q0 -7 -8.5 -37.5t-22 -74t-29.5 -94t-30.5 -97t-26 -83.5t-15.5 -53q-1 -5 -7.5 -21t-15 -34t-15.5 -34t-10 -19q-20 -27 -39 -44.5t-40 -28t-46.5 -15t-58.5 -4.5q-6 0 -14.5 0.5t-17 2.5t-14 6.5t-5.5 13.5q0 14 8.5 19.5t20.5 7t24.5 0t21.5 -1.5
q29 0 53.5 15t44.5 39.5t35.5 56.5t27.5 67q-12 -9 -32 -19.5t-42 -20t-43 -16t-36 -6.5q-66 0 -105.5 32.5t-39.5 101.5q0 31 12.5 71t28 80.5t29 79t15.5 67.5l-4 8q-12 4 -24.5 10.5t-12.5 21.5q0 12 7 18.5t16.5 9.5t20.5 3.5t20 0.5h18t19 -2.5t15 -8.5t6 -18
q0 -26 -12 -57.5t-22 -55.5q-7 -17 -18.5 -48.5t-22.5 -65.5t-19 -65t-8 -49q0 -31 20 -56.5t53 -25.5q18 0 38 7t38.5 18t35.5 24t31 25q27 24 44 57t29.5 73t23 85t24.5 95q3 10 -3.5 13.5t-15 5.5t-16.5 4.5t-8 11.5q0 14 7 21.5t17.5 11t22.5 4t22 0.5t19 -0.5t16 -3.5
t11 -9.5t4 -19.5zM440 705q4 0 10.5 -0.5t12.5 -2t10.5 -4.5t4.5 -7q0 -8 -17 -26.5t-39 -38t-43.5 -34t-30.5 -14.5q-8 0 -15.5 5t-7.5 14t14.5 27t34 36t38.5 31.5t28 13.5z" />
    <glyph glyph-name="ydieresis" unicode="&#xff;" horiz-adv-x="458" 
d="M547 468q0 -7 -8.5 -37.5t-22 -74t-29.5 -94t-30.5 -97t-26 -83.5t-15.5 -53q-1 -5 -7.5 -21t-15 -34t-15.5 -34t-10 -19q-20 -27 -39 -44.5t-40 -28t-46.5 -15t-58.5 -4.5q-6 0 -14.5 0.5t-17 2.5t-14 6.5t-5.5 13.5q0 14 8.5 19.5t20.5 7t24.5 0t21.5 -1.5
q29 0 53.5 15t44.5 39.5t35.5 56.5t27.5 67q-12 -9 -32 -19.5t-42 -20t-43 -16t-36 -6.5q-66 0 -105.5 32.5t-39.5 101.5q0 31 12.5 71t28 80.5t29 79t15.5 67.5l-4 8q-12 4 -24.5 10.5t-12.5 21.5q0 12 7 18.5t16.5 9.5t20.5 3.5t20 0.5h18t19 -2.5t15 -8.5t6 -18
q0 -26 -12 -57.5t-22 -55.5q-7 -17 -18.5 -48.5t-22.5 -65.5t-19 -65t-8 -49q0 -31 20 -56.5t53 -25.5q18 0 38 7t38.5 18t35.5 24t31 25q27 24 44 57t29.5 73t23 85t24.5 95q3 10 -3.5 13.5t-15 5.5t-16.5 4.5t-8 11.5q0 14 7 21.5t17.5 11t22.5 4t22 0.5t19 -0.5t16 -3.5
t11 -9.5t4 -19.5zM361 706q7 0 15 -5.5t8 -13.5t-7 -19t-17.5 -21t-22.5 -16.5t-22 -6.5q-11 0 -18 6t-7 17q0 8 7.5 18.5t18 19.5t23 15t22.5 6zM538 705q8 0 16 -4t8 -13q0 -8 -8.5 -19t-20.5 -21.5t-25 -17.5t-22 -7q-8 0 -15.5 5t-7.5 14t8.5 19.5t20.5 20.5t24.5 16.5
t21.5 6.5z" />
    <glyph glyph-name="thorn" unicode="&#xfe;" horiz-adv-x="455" 
d="M349 491q52 0 84 -20t49 -53t22.5 -75t5.5 -86q0 -40 -20 -86.5t-53 -87t-74.5 -67.5t-84.5 -27q-28 0 -48 3t-37.5 10.5t-35 19t-38.5 28.5l-5 -1v-1q0 -7 -9.5 -35t-21.5 -62t-23.5 -65t-15.5 -44q-5 -14 -16.5 -27t-28.5 -13q-10 0 -13 6.5t-3 14.5q0 16 3 29t6 29
q52 159 91 279t66.5 208t46 147t29 94.5t15.5 50.5t6 17q4 6 14 9.5t21.5 5t23 2t18.5 0.5q9 0 16.5 -6.5t10.5 -14.5q-5 -12 -13.5 -17.5t-18 -8.5t-19.5 -5.5t-17 -8.5q-3 -3 -9 -19.5t-13 -40t-14.5 -51t-13.5 -52.5q29 1 58 11t59 10zM151 147q0 -17 9.5 -34t24.5 -30.5
t33 -22t35 -8.5q46 0 82.5 19.5t62 52t39 73.5t13.5 84q0 25 -5 51.5t-17.5 49t-33.5 37t-52 14.5q-36 0 -61.5 -10.5t-43 -30t-28.5 -46t-19 -57.5q-9 -35 -24 -70t-15 -72z" />
    <glyph glyph-name="quotedblleft" unicode="&#x201c;" horiz-adv-x="257" 
d="M168 693q6 2 15.5 -1.5t11.5 -11.5t-6.5 -28.5t-21 -43t-26.5 -40.5t-24 -20q-10 -3 -18.5 1t-11.5 14q-2 8 6.5 28.5t22 42t28 39t24.5 20.5zM258 694q8 2 17 0t11 -11q2 -8 -7.5 -29t-23.5 -44t-29 -42t-24 -21q-8 -2 -16.5 1t-10.5 12q-2 8 7.5 29t23.5 43.5t29 41
t23 20.5z" />
    <glyph glyph-name="quoteleft" unicode="&#x2018;" horiz-adv-x="177" 
d="M168 693q6 2 15.5 -1.5t11.5 -11.5t-6.5 -28.5t-21 -43t-26.5 -40.5t-24 -20q-10 -3 -18.5 1t-11.5 14q-2 8 6.5 28.5t22 42t28 39t24.5 20.5z" />
    <glyph glyph-name="quoteright" unicode="&#x2019;" horiz-adv-x="172" 
d="M168 693q6 2 15.5 -1.5t11.5 -11.5t-6.5 -28.5t-21 -43t-26.5 -40.5t-24 -20q-10 -3 -18.5 1t-11.5 14q-2 8 6.5 28.5t22 42t28 39t24.5 20.5z" />
    <glyph glyph-name="quotesinglbase" unicode="&#x201a;" horiz-adv-x="172" 
d="M82 37q6 2 15.5 -1.5t11.5 -11.5t-6.5 -28.5t-21 -43t-26.5 -40.5t-24 -20q-10 -3 -18.5 1t-11.5 14q-2 8 6.5 28.5t22 42t28 39t24.5 20.5z" />
    <glyph glyph-name="quotedblbase" unicode="&#x201e;" horiz-adv-x="257" 
d="M69 67q6 2 15.5 -1.5t11.5 -11.5t-6.5 -28.5t-21 -43t-26.5 -40.5t-24 -20q-10 -3 -18.5 1t-11.5 14q-2 8 6.5 28.5t22 42t28 39t24.5 20.5zM159 68q8 2 17 0t11 -11q2 -8 -7.5 -29t-23.5 -44t-29 -42t-24 -21q-8 -2 -16.5 1t-10.5 12q-2 8 7.5 29t23.5 43.5t29 41
t23 20.5z" />
    <glyph glyph-name="tilde" unicode="&#x2dc;" horiz-adv-x="0" 
d="M399 705q8 0 16 -4t8 -13t-11.5 -27t-28.5 -36t-36 -31.5t-34 -14.5q-2 0 -4.5 -1t-4.5 -1q-13 0 -25 15.5t-22 29.5q-12 18 -22.5 14.5t-21.5 -11.5q-16 -14 -29.5 -30t-21.5 -16q-11 0 -18 6t-7 17q0 7 8.5 21t22.5 29t31 28t34 18t32 -1.5t25 -30.5q7 -17 14 -23
t14.5 -4.5t15 8t13.5 15.5q17 15 30.5 29t21.5 14z" />
    <glyph glyph-name="circumflex" unicode="&#x2c6;" horiz-adv-x="0" 
d="M248 706q11 -3 24 -17t24.5 -31.5t19 -35t7.5 -27.5q0 -8 -6 -13t-13 -5q-19 0 -35 20.5t-26 44.5q-10 -11 -21.5 -22.5t-23 -20.5t-21 -14.5t-15.5 -5.5q-11 0 -18 6t-7 17q0 8 13.5 25.5t32 35t37 30.5t28.5 13z" />
    <glyph glyph-name="Ucircumflex" unicode="&#xdb;" horiz-adv-x="812" 
d="M495 679q17 0 38 -4t32 -19q0 -5 -3 -15t-7 -20.5t-8 -20.5t-6 -16q-7 -20 -20.5 -57t-29.5 -82t-32.5 -93.5t-30.5 -92t-22.5 -77.5t-8.5 -49q0 -42 24.5 -64t65.5 -22q21 0 44.5 7t45.5 18t42 26t34 30q10 11 22 39.5t25.5 68t28 86.5t29.5 95t29.5 93.5t27.5 81
t25 58.5t21 26q4 2 9 2q12 0 21.5 -9t9.5 -21q-5 -14 -22 -61t-39 -109t-46 -131.5t-44.5 -129t-33.5 -100.5t-13 -47q-1 -15 6.5 -15.5t19.5 5t27.5 12t30.5 6.5q11 0 20 -4t9 -17q0 -12 -14.5 -23t-33.5 -19.5t-38.5 -13.5t-29.5 -5q-15 0 -24 3t-13.5 9t-7.5 14.5
t-6 19.5q-17 -5 -36.5 -12.5t-39 -14t-39.5 -11t-39 -4.5q-76 0 -119 31t-43 93q0 10 8 41.5t21 74.5t28.5 91.5t30 92.5t26 78t17.5 48t12 29t6 32q-5 11 -11.5 14t-17.5 3q-23 0 -48.5 -8t-47.5 -16q-36 -14 -66.5 -31t-53 -41t-35.5 -56t-13 -74q0 -32 9 -51t23 -29
t30 -14.5t30 -8t23 -8t9 -15.5q-1 -10 -6 -15.5t-11.5 -8.5t-15 -3.5t-15.5 -0.5q-27 0 -53 12t-46 32t-32.5 46t-12.5 53q0 72 35 126t89.5 90t120.5 54t129 18zM735 842q11 -3 24 -17t24.5 -31.5t19 -35t7.5 -27.5q0 -8 -6 -13t-13 -5q-19 0 -35 20.5t-26 44.5
q-10 -11 -21.5 -22.5t-23 -20.5t-21 -14.5t-15.5 -5.5q-11 0 -18 6t-7 17q0 8 13.5 25.5t32 35t37 30.5t28.5 13z" />
    <glyph glyph-name="Agrave" unicode="&#xc0;" horiz-adv-x="685" 
d="M491 693q45 0 83 -16t66.5 -43t44.5 -61.5t16 -71.5q0 -50 -18 -103t-39.5 -107t-39.5 -108.5t-18 -106.5q0 -6 6 -10t11 -4q10 0 17.5 5t15 11t15 11t17.5 5q9 0 17 -5t8 -16q0 -12 -13.5 -23t-32 -19.5t-37 -13.5t-28.5 -5q-23 0 -41.5 11t-18.5 37q0 22 6.5 50
t15.5 57.5t19.5 56.5t18.5 48q9 24 19.5 48.5t19.5 49.5t15 50.5t6 51.5q0 47 -14.5 79t-40.5 52t-62.5 29t-79.5 9q-58 0 -106.5 -14t-84 -42.5t-55 -72t-19.5 -103.5q0 -20 9.5 -40.5t24 -38t30.5 -28.5t28 -11q7 0 8 4t4 11q7 15 10 27t8 28l12 33t16.5 47t15 48t6.5 37
q0 10 -11 10.5t-23.5 -0.5t-23.5 0.5t-11 14.5q0 12 11.5 20.5t27 14t32 7.5t26.5 2q18 0 30 -15.5t8 -32.5q-8 -34 -20 -69t-25 -70.5t-24.5 -70.5t-18.5 -69q-2 -8 7 -12t21 -6t24.5 -2.5t17.5 -0.5q18 0 34.5 4.5t32.5 10.5t31 10.5t29 4.5q8 0 13.5 -4.5t5.5 -12.5
q0 -9 -6 -16t-14 -12q-31 -18 -54.5 -25.5t-46.5 -9t-48 1t-58 3.5q-9 0 -15.5 -14t-13 -35t-15 -46t-22 -46.5t-33.5 -35.5t-49 -14q-8 0 -23 2.5t-30 8t-26 13t-11 16.5q0 11 11.5 17.5t21.5 6.5q14 0 23 -7t26 -7q19 0 35.5 20.5t28.5 47t19 52t7 35.5q0 16 -19 26.5
t-42.5 29t-42.5 52t-19 96.5q0 83 31 136t81.5 83.5t115.5 42t133 11.5zM486 856q9 0 28 -13.5t38.5 -31.5t34 -36t14.5 -27t-7.5 -14t-15.5 -5q-9 0 -30.5 14.5t-43.5 34t-39 38t-17 26.5q0 4 4.5 7t10.5 4.5t12.5 2t10.5 0.5z" />
    <glyph glyph-name="Aacute" unicode="&#xc1;" horiz-adv-x="685" 
d="M491 693q45 0 83 -16t66.5 -43t44.5 -61.5t16 -71.5q0 -50 -18 -103t-39.5 -107t-39.5 -108.5t-18 -106.5q0 -6 6 -10t11 -4q10 0 17.5 5t15 11t15 11t17.5 5q9 0 17 -5t8 -16q0 -12 -13.5 -23t-32 -19.5t-37 -13.5t-28.5 -5q-23 0 -41.5 11t-18.5 37q0 22 6.5 50
t15.5 57.5t19.5 56.5t18.5 48q9 24 19.5 48.5t19.5 49.5t15 50.5t6 51.5q0 47 -14.5 79t-40.5 52t-62.5 29t-79.5 9q-58 0 -106.5 -14t-84 -42.5t-55 -72t-19.5 -103.5q0 -20 9.5 -40.5t24 -38t30.5 -28.5t28 -11q7 0 8 4t4 11q7 15 10 27t8 28l12 33t16.5 47t15 48t6.5 37
q0 10 -11 10.5t-23.5 -0.5t-23.5 0.5t-11 14.5q0 12 11.5 20.5t27 14t32 7.5t26.5 2q18 0 30 -15.5t8 -32.5q-8 -34 -20 -69t-25 -70.5t-24.5 -70.5t-18.5 -69q-2 -8 7 -12t21 -6t24.5 -2.5t17.5 -0.5q18 0 34.5 4.5t32.5 10.5t31 10.5t29 4.5q8 0 13.5 -4.5t5.5 -12.5
q0 -9 -6 -16t-14 -12q-31 -18 -54.5 -25.5t-46.5 -9t-48 1t-58 3.5q-9 0 -15.5 -14t-13 -35t-15 -46t-22 -46.5t-33.5 -35.5t-49 -14q-8 0 -23 2.5t-30 8t-26 13t-11 16.5q0 11 11.5 17.5t21.5 6.5q14 0 23 -7t26 -7q19 0 35.5 20.5t28.5 47t19 52t7 35.5q0 16 -19 26.5
t-42.5 29t-42.5 52t-19 96.5q0 83 31 136t81.5 83.5t115.5 42t133 11.5zM609 873q4 0 10.5 -0.5t12.5 -2t10.5 -4.5t4.5 -7q0 -8 -17 -26.5t-39 -38t-43.5 -34t-30.5 -14.5q-8 0 -15.5 5t-7.5 14t14.5 27t34 36t38.5 31.5t28 13.5z" />
    <glyph glyph-name="Acircumflex" unicode="&#xc2;" horiz-adv-x="685" 
d="M491 693q45 0 83 -16t66.5 -43t44.5 -61.5t16 -71.5q0 -50 -18 -103t-39.5 -107t-39.5 -108.5t-18 -106.5q0 -6 6 -10t11 -4q10 0 17.5 5t15 11t15 11t17.5 5q9 0 17 -5t8 -16q0 -12 -13.5 -23t-32 -19.5t-37 -13.5t-28.5 -5q-23 0 -41.5 11t-18.5 37q0 22 6.5 50
t15.5 57.5t19.5 56.5t18.5 48q9 24 19.5 48.5t19.5 49.5t15 50.5t6 51.5q0 47 -14.5 79t-40.5 52t-62.5 29t-79.5 9q-58 0 -106.5 -14t-84 -42.5t-55 -72t-19.5 -103.5q0 -20 9.5 -40.5t24 -38t30.5 -28.5t28 -11q7 0 8 4t4 11q7 15 10 27t8 28l12 33t16.5 47t15 48t6.5 37
q0 10 -11 10.5t-23.5 -0.5t-23.5 0.5t-11 14.5q0 12 11.5 20.5t27 14t32 7.5t26.5 2q18 0 30 -15.5t8 -32.5q-8 -34 -20 -69t-25 -70.5t-24.5 -70.5t-18.5 -69q-2 -8 7 -12t21 -6t24.5 -2.5t17.5 -0.5q18 0 34.5 4.5t32.5 10.5t31 10.5t29 4.5q8 0 13.5 -4.5t5.5 -12.5
q0 -9 -6 -16t-14 -12q-31 -18 -54.5 -25.5t-46.5 -9t-48 1t-58 3.5q-9 0 -15.5 -14t-13 -35t-15 -46t-22 -46.5t-33.5 -35.5t-49 -14q-8 0 -23 2.5t-30 8t-26 13t-11 16.5q0 11 11.5 17.5t21.5 6.5q14 0 23 -7t26 -7q19 0 35.5 20.5t28.5 47t19 52t7 35.5q0 16 -19 26.5
t-42.5 29t-42.5 52t-19 96.5q0 83 31 136t81.5 83.5t115.5 42t133 11.5zM528 871q11 -3 24 -17t24.5 -31.5t19 -35t7.5 -27.5q0 -8 -6 -13t-13 -5q-19 0 -35 20.5t-26 44.5q-10 -11 -21.5 -22.5t-23 -20.5t-21 -14.5t-15.5 -5.5q-11 0 -18 6t-7 17q0 8 13.5 25.5t32 35
t37 30.5t28.5 13z" />
    <glyph glyph-name="Atilde" unicode="&#xc3;" horiz-adv-x="685" 
d="M491 693q45 0 83 -16t66.5 -43t44.5 -61.5t16 -71.5q0 -50 -18 -103t-39.5 -107t-39.5 -108.5t-18 -106.5q0 -6 6 -10t11 -4q10 0 17.5 5t15 11t15 11t17.5 5q9 0 17 -5t8 -16q0 -12 -13.5 -23t-32 -19.5t-37 -13.5t-28.5 -5q-23 0 -41.5 11t-18.5 37q0 22 6.5 50
t15.5 57.5t19.5 56.5t18.5 48q9 24 19.5 48.5t19.5 49.5t15 50.5t6 51.5q0 47 -14.5 79t-40.5 52t-62.5 29t-79.5 9q-58 0 -106.5 -14t-84 -42.5t-55 -72t-19.5 -103.5q0 -20 9.5 -40.5t24 -38t30.5 -28.5t28 -11q7 0 8 4t4 11q7 15 10 27t8 28l12 33t16.5 47t15 48t6.5 37
q0 10 -11 10.5t-23.5 -0.5t-23.5 0.5t-11 14.5q0 12 11.5 20.5t27 14t32 7.5t26.5 2q18 0 30 -15.5t8 -32.5q-8 -34 -20 -69t-25 -70.5t-24.5 -70.5t-18.5 -69q-2 -8 7 -12t21 -6t24.5 -2.5t17.5 -0.5q18 0 34.5 4.5t32.5 10.5t31 10.5t29 4.5q8 0 13.5 -4.5t5.5 -12.5
q0 -9 -6 -16t-14 -12q-31 -18 -54.5 -25.5t-46.5 -9t-48 1t-58 3.5q-9 0 -15.5 -14t-13 -35t-15 -46t-22 -46.5t-33.5 -35.5t-49 -14q-8 0 -23 2.5t-30 8t-26 13t-11 16.5q0 11 11.5 17.5t21.5 6.5q14 0 23 -7t26 -7q19 0 35.5 20.5t28.5 47t19 52t7 35.5q0 16 -19 26.5
t-42.5 29t-42.5 52t-19 96.5q0 83 31 136t81.5 83.5t115.5 42t133 11.5zM661 864q8 0 16 -4t8 -13t-11.5 -27t-28.5 -36t-36 -31.5t-34 -14.5q-2 0 -4.5 -1t-4.5 -1q-13 0 -25 15.5t-22 29.5q-12 18 -22.5 14.5t-21.5 -11.5q-16 -14 -29.5 -30t-21.5 -16q-11 0 -18 6t-7 17
q0 7 8.5 21t22.5 29t31 28t34 18t32 -1.5t25 -30.5q7 -17 14 -23t14.5 -4.5t15 8t13.5 15.5q17 15 30.5 29t21.5 14z" />
    <glyph glyph-name="Egrave" unicode="&#xc8;" horiz-adv-x="565" 
d="M217 414q-14 -5 -27.5 -18t-24.5 -33t-18 -47.5t-7 -62.5q0 -38 12.5 -74.5t38 -65.5t65 -46.5t94.5 -17.5q56 0 90.5 15t55 38t30 49.5t16.5 49.5t15.5 38t25.5 15q20 0 23.5 -13.5t3.5 -28.5q0 -44 -24 -82.5t-61.5 -67t-82 -45.5t-84.5 -17q-51 0 -100 12.5
t-87.5 40.5t-62 73t-23.5 110q0 48 7.5 81.5t22 59t36 45.5t49.5 40q-3 4 -4 17t1 30t7 35t14 32q16 25 40.5 46t53.5 36t60.5 23t60.5 8q31 0 63.5 -9t61.5 -24.5t53.5 -38t38.5 -49.5q0 -11 -8 -21.5t-20 -10.5q-5 0 -22.5 16t-44.5 35.5t-61 36t-72 16.5q-28 0 -59.5 -11
t-57.5 -30.5t-42 -47t-13 -59.5q11 6 26 10t30.5 6t30 3t25.5 1q19 0 43 -5t45 -16t35.5 -28t14.5 -41q0 -32 -12.5 -51.5t-32 -30.5t-44.5 -14.5t-50 -3.5q-23 0 -47.5 10.5t-45.5 25t-35.5 30t-15.5 26.5zM263 440q3 -19 20 -32t38.5 -21t43 -11.5t33.5 -3.5q16 0 31 14
t15 30q0 17 -11 26.5t-26.5 14t-32 5t-28.5 0.5q-6 0 -16 -1t-22 -3.5t-24 -6.5t-21 -11zM441 856q9 0 28 -13.5t38.5 -31.5t34 -36t14.5 -27t-7.5 -14t-15.5 -5q-9 0 -30.5 14.5t-43.5 34t-39 38t-17 26.5q0 4 4.5 7t10.5 4.5t12.5 2t10.5 0.5z" />
    <glyph glyph-name="Eacute" unicode="&#xc9;" horiz-adv-x="565" 
d="M217 414q-14 -5 -27.5 -18t-24.5 -33t-18 -47.5t-7 -62.5q0 -38 12.5 -74.5t38 -65.5t65 -46.5t94.5 -17.5q56 0 90.5 15t55 38t30 49.5t16.5 49.5t15.5 38t25.5 15q20 0 23.5 -13.5t3.5 -28.5q0 -44 -24 -82.5t-61.5 -67t-82 -45.5t-84.5 -17q-51 0 -100 12.5
t-87.5 40.5t-62 73t-23.5 110q0 48 7.5 81.5t22 59t36 45.5t49.5 40q-3 4 -4 17t1 30t7 35t14 32q16 25 40.5 46t53.5 36t60.5 23t60.5 8q31 0 63.5 -9t61.5 -24.5t53.5 -38t38.5 -49.5q0 -11 -8 -21.5t-20 -10.5q-5 0 -22.5 16t-44.5 35.5t-61 36t-72 16.5q-28 0 -59.5 -11
t-57.5 -30.5t-42 -47t-13 -59.5q11 6 26 10t30.5 6t30 3t25.5 1q19 0 43 -5t45 -16t35.5 -28t14.5 -41q0 -32 -12.5 -51.5t-32 -30.5t-44.5 -14.5t-50 -3.5q-23 0 -47.5 10.5t-45.5 25t-35.5 30t-15.5 26.5zM263 440q3 -19 20 -32t38.5 -21t43 -11.5t33.5 -3.5q16 0 31 14
t15 30q0 17 -11 26.5t-26.5 14t-32 5t-28.5 0.5q-6 0 -16 -1t-22 -3.5t-24 -6.5t-21 -11zM569 884q4 0 10.5 -0.5t12.5 -2t10.5 -4.5t4.5 -7q0 -8 -17 -26.5t-39 -38t-43.5 -34t-30.5 -14.5q-8 0 -15.5 5t-7.5 14t14.5 27t34 36t38.5 31.5t28 13.5z" />
    <glyph glyph-name="Ecircumflex" unicode="&#xca;" horiz-adv-x="565" 
d="M217 414q-14 -5 -27.5 -18t-24.5 -33t-18 -47.5t-7 -62.5q0 -38 12.5 -74.5t38 -65.5t65 -46.5t94.5 -17.5q56 0 90.5 15t55 38t30 49.5t16.5 49.5t15.5 38t25.5 15q20 0 23.5 -13.5t3.5 -28.5q0 -44 -24 -82.5t-61.5 -67t-82 -45.5t-84.5 -17q-51 0 -100 12.5
t-87.5 40.5t-62 73t-23.5 110q0 48 7.5 81.5t22 59t36 45.5t49.5 40q-3 4 -4 17t1 30t7 35t14 32q16 25 40.5 46t53.5 36t60.5 23t60.5 8q31 0 63.5 -9t61.5 -24.5t53.5 -38t38.5 -49.5q0 -11 -8 -21.5t-20 -10.5q-5 0 -22.5 16t-44.5 35.5t-61 36t-72 16.5q-28 0 -59.5 -11
t-57.5 -30.5t-42 -47t-13 -59.5q11 6 26 10t30.5 6t30 3t25.5 1q19 0 43 -5t45 -16t35.5 -28t14.5 -41q0 -32 -12.5 -51.5t-32 -30.5t-44.5 -14.5t-50 -3.5q-23 0 -47.5 10.5t-45.5 25t-35.5 30t-15.5 26.5zM263 440q3 -19 20 -32t38.5 -21t43 -11.5t33.5 -3.5q16 0 31 14
t15 30q0 17 -11 26.5t-26.5 14t-32 5t-28.5 0.5q-6 0 -16 -1t-22 -3.5t-24 -6.5t-21 -11zM488 874q11 -3 24 -17t24.5 -31.5t19 -35t7.5 -27.5q0 -8 -6 -13t-13 -5q-19 0 -35 20.5t-26 44.5q-10 -11 -21.5 -22.5t-23 -20.5t-21 -14.5t-15.5 -5.5q-11 0 -18 6t-7 17
q0 8 13.5 25.5t32 35t37 30.5t28.5 13z" />
    <glyph glyph-name="Igrave" unicode="&#xcc;" horiz-adv-x="493" 
d="M608 676q11 0 19.5 -7t8.5 -18q0 -8 -3 -18t-7 -20.5t-9 -20t-8 -16.5q-27 -56 -45 -114t-34 -117t-33 -119t-41 -120q-11 -26 -21 -46.5t-34 -35.5q-20 -13 -48 -19t-51 -6q-9 0 -22.5 2t-26 7t-22 12.5t-9.5 19.5t8.5 17t19.5 5q17 0 31.5 -7t31.5 -7q8 0 18 1.5
t19.5 4.5t18 8.5t12.5 13.5q9 17 20 47.5t23 67.5t24 77t23 77.5t20 69t14 49.5q2 6 8.5 24.5t13.5 39.5l12.5 37.5t5.5 18.5q0 15 -17.5 24t-41 14t-46.5 6.5t-34 1.5q-42 0 -80 -14t-67.5 -39.5t-47 -61.5t-17.5 -79q0 -26 4.5 -47.5t15.5 -36.5t29 -23.5t46 -8.5
q16 0 30 8t30 8q9 0 19 -3.5t10 -17.5q0 -16 -14 -26t-33.5 -15.5t-39 -7.5t-30.5 -2q-29 0 -52.5 14.5t-40.5 37.5t-26.5 50.5t-9.5 53.5q0 45 15.5 85t42.5 72.5t64 55.5t79 35q29 8 56 8.5t54 -2.5t54 -6.5t56 -3.5q14 0 27.5 6t27.5 6zM388 867q9 0 28 -13.5t38.5 -31.5
t34 -36t14.5 -27t-7.5 -14t-15.5 -5q-9 0 -30.5 14.5t-43.5 34t-39 38t-17 26.5q0 4 4.5 7t10.5 4.5t12.5 2t10.5 0.5z" />
    <glyph glyph-name="Iacute" unicode="&#xcd;" horiz-adv-x="493" 
d="M608 676q11 0 19.5 -7t8.5 -18q0 -8 -3 -18t-7 -20.5t-9 -20t-8 -16.5q-27 -56 -45 -114t-34 -117t-33 -119t-41 -120q-11 -26 -21 -46.5t-34 -35.5q-20 -13 -48 -19t-51 -6q-9 0 -22.5 2t-26 7t-22 12.5t-9.5 19.5t8.5 17t19.5 5q17 0 31.5 -7t31.5 -7q8 0 18 1.5
t19.5 4.5t18 8.5t12.5 13.5q9 17 20 47.5t23 67.5t24 77t23 77.5t20 69t14 49.5q2 6 8.5 24.5t13.5 39.5l12.5 37.5t5.5 18.5q0 15 -17.5 24t-41 14t-46.5 6.5t-34 1.5q-42 0 -80 -14t-67.5 -39.5t-47 -61.5t-17.5 -79q0 -26 4.5 -47.5t15.5 -36.5t29 -23.5t46 -8.5
q16 0 30 8t30 8q9 0 19 -3.5t10 -17.5q0 -16 -14 -26t-33.5 -15.5t-39 -7.5t-30.5 -2q-29 0 -52.5 14.5t-40.5 37.5t-26.5 50.5t-9.5 53.5q0 45 15.5 85t42.5 72.5t64 55.5t79 35q29 8 56 8.5t54 -2.5t54 -6.5t56 -3.5q14 0 27.5 6t27.5 6zM508 865q4 0 10.5 -0.5t12.5 -2
t10.5 -4.5t4.5 -7q0 -8 -17 -26.5t-39 -38t-43.5 -34t-30.5 -14.5q-8 0 -15.5 5t-7.5 14t14.5 27t34 36t38.5 31.5t28 13.5z" />
    <glyph glyph-name="Icircumflex" unicode="&#xce;" horiz-adv-x="493" 
d="M608 676q11 0 19.5 -7t8.5 -18q0 -8 -3 -18t-7 -20.5t-9 -20t-8 -16.5q-27 -56 -45 -114t-34 -117t-33 -119t-41 -120q-11 -26 -21 -46.5t-34 -35.5q-20 -13 -48 -19t-51 -6q-9 0 -22.5 2t-26 7t-22 12.5t-9.5 19.5t8.5 17t19.5 5q17 0 31.5 -7t31.5 -7q8 0 18 1.5
t19.5 4.5t18 8.5t12.5 13.5q9 17 20 47.5t23 67.5t24 77t23 77.5t20 69t14 49.5q2 6 8.5 24.5t13.5 39.5l12.5 37.5t5.5 18.5q0 15 -17.5 24t-41 14t-46.5 6.5t-34 1.5q-42 0 -80 -14t-67.5 -39.5t-47 -61.5t-17.5 -79q0 -26 4.5 -47.5t15.5 -36.5t29 -23.5t46 -8.5
q16 0 30 8t30 8q9 0 19 -3.5t10 -17.5q0 -16 -14 -26t-33.5 -15.5t-39 -7.5t-30.5 -2q-29 0 -52.5 14.5t-40.5 37.5t-26.5 50.5t-9.5 53.5q0 45 15.5 85t42.5 72.5t64 55.5t79 35q29 8 56 8.5t54 -2.5t54 -6.5t56 -3.5q14 0 27.5 6t27.5 6zM478 880q11 -3 24 -17t24.5 -31.5
t19 -35t7.5 -27.5q0 -8 -6 -13t-13 -5q-19 0 -35 20.5t-26 44.5q-10 -11 -21.5 -22.5t-23 -20.5t-21 -14.5t-15.5 -5.5q-11 0 -18 6t-7 17q0 8 13.5 25.5t32 35t37 30.5t28.5 13z" />
    <glyph glyph-name="Ntilde" unicode="&#xd1;" horiz-adv-x="706" 
d="M841 685q10 0 20 -6.5t10 -17.5q0 -5 -3.5 -10t-8.5 -7q-9 -9 -20 -11t-22 -3.5t-21.5 -6t-20.5 -19.5q-25 -38 -45.5 -94t-38.5 -116.5t-32.5 -119.5t-27.5 -102q-5 -16 -9.5 -46t-13 -60t-21 -52t-32.5 -22q-14 0 -27.5 8.5t-13.5 23.5q0 14 6 27.5t13 26.5t13 26t6 28
t-5 53.5t-14 86.5t-21.5 99.5t-27.5 94.5t-31.5 70.5t-33.5 27.5q-6 0 -10.5 -7.5t-8.5 -18t-6.5 -20.5t-4.5 -15q-13 -32 -26.5 -78t-29 -97t-32.5 -103t-36 -96t-40.5 -76.5t-45.5 -44.5q-17 -8 -36 -14.5t-39 -6.5q-8 0 -22.5 2.5t-28.5 7.5t-25 12t-11 17q0 13 10.5 19
t21.5 6q17 0 34 -4t34 -4q19 0 39 15.5t31 29.5q7 9 23 50t35 97t39.5 119t37 117.5t27.5 92t11 41.5q0 8 -8.5 11.5t-18 6.5t-18 7.5t-8.5 13.5q0 13 10.5 19.5t25.5 8.5t30.5 2h24.5q32 0 57.5 -29t45.5 -72.5t35 -95t26.5 -97.5t21 -79t17.5 -39q13 19 22.5 58t20 86
t25 96.5t36.5 90t55 66.5t81 26zM734 881q8 0 16 -4t8 -13t-11.5 -27t-28.5 -36t-36 -31.5t-34 -14.5q-2 0 -4.5 -1t-4.5 -1q-13 0 -25 15.5t-22 29.5q-12 18 -22.5 14.5t-21.5 -11.5q-16 -14 -29.5 -30t-21.5 -16q-11 0 -18 6t-7 17q0 7 8.5 21t22.5 29t31 28t34 18
t32 -1.5t25 -30.5q7 -17 14 -23t14.5 -4.5t15 8t13.5 15.5q17 15 30.5 29t21.5 14z" />
    <glyph glyph-name="Eth" unicode="&#xd0;" horiz-adv-x="700" 
d="M484 689q69 0 122.5 -25t91 -68.5t57 -101.5t19.5 -123q0 -62 -16 -111t-52 -100q-8 -11 -15 -25.5t-17 -22.5q-50 -44 -95 -67t-93 -34t-101.5 -12.5t-119.5 -1.5q-9 0 -29.5 -0.5t-42 1.5t-37.5 7.5t-16 16.5q0 10 5.5 14.5t14 6t17.5 1t15 -0.5q5 0 11 1t11 4
q8 5 11 20t5 24q3 12 12 39.5t21 62.5t26 75.5t27 79.5q-17 -1 -34.5 -3.5t-34.5 -2.5q-11 0 -22.5 6t-11.5 18q0 13 11.5 19.5t29.5 9.5t39 3t40 -1l25.5 76.5t10.5 37.5q0 10 -9.5 13t-21 4.5t-21 5.5t-9.5 16q0 7 9.5 16t16.5 9h72q12 0 20 -10.5t8 -21.5
q0 -3 -3.5 -15.5t-9.5 -32.5t-14.5 -45.5t-17.5 -54.5q24 1 47.5 3.5t48.5 2.5q5 0 12.5 -0.5t14 -2.5t11.5 -6t5 -12q0 -11 -6 -18t-6 -18q-24 5 -46 6.5t-46 1.5q-13 0 -25.5 -0.5t-24.5 -1.5q-14 -43 -28.5 -86t-26.5 -80t-21 -63t-12 -34q-2 -5 -3.5 -10t-1.5 -10
q0 -13 9 -16.5t20 -3.5q26 0 61.5 0.5t71.5 5t69 13t54 25.5q36 27 64 56.5t47.5 63.5t29.5 73.5t10 86.5q0 57 -16 106t-47.5 85t-77.5 57t-106 21q-44 0 -84 -6.5t-74.5 -23t-62 -44.5t-46.5 -71q-14 -30 -23.5 -61t-9.5 -65q0 -32 9 -61t9 -58q0 -8 -4.5 -15t-12.5 -7
q-14 0 -23.5 14t-15 33t-8 38t-2.5 30q0 56 8 100t27.5 81t51.5 67.5t81 59.5q16 9 33 17.5t35 10.5q32 4 63 6.5t63 2.5z" />
    <glyph glyph-name="Ograve" unicode="&#xd2;" horiz-adv-x="572" 
d="M428 679q43 0 86 -16t76.5 -51.5t52.5 -91.5t13 -136q-6 -63 -30.5 -132t-65.5 -127t-99.5 -95.5t-132.5 -37.5q-54 0 -98 21t-74.5 56t-47 82t-16.5 98q0 75 23 152t66.5 138.5t105.5 100.5t141 39zM152 264q0 -41 10.5 -80t32 -69.5t55 -49t80.5 -18.5q58 0 107.5 33
t85.5 83t56 108.5t20 110.5q0 46 -6 90t-24.5 78t-52 55t-88.5 21q-61 0 -112 -30.5t-87.5 -81t-56.5 -115.5t-20 -135zM451 850q9 0 28 -13.5t38.5 -31.5t34 -36t14.5 -27t-7.5 -14t-15.5 -5q-9 0 -30.5 14.5t-43.5 34t-39 38t-17 26.5q0 4 4.5 7t10.5 4.5t12.5 2t10.5 0.5
z" />
    <glyph glyph-name="Oacute" unicode="&#xd3;" horiz-adv-x="572" 
d="M428 679q43 0 86 -16t76.5 -51.5t52.5 -91.5t13 -136q-6 -63 -30.5 -132t-65.5 -127t-99.5 -95.5t-132.5 -37.5q-54 0 -98 21t-74.5 56t-47 82t-16.5 98q0 75 23 152t66.5 138.5t105.5 100.5t141 39zM152 264q0 -41 10.5 -80t32 -69.5t55 -49t80.5 -18.5q58 0 107.5 33
t85.5 83t56 108.5t20 110.5q0 46 -6 90t-24.5 78t-52 55t-88.5 21q-61 0 -112 -30.5t-87.5 -81t-56.5 -115.5t-20 -135zM587 868q4 0 10.5 -0.5t12.5 -2t10.5 -4.5t4.5 -7q0 -8 -17 -26.5t-39 -38t-43.5 -34t-30.5 -14.5q-8 0 -15.5 5t-7.5 14t14.5 27t34 36t38.5 31.5
t28 13.5z" />
    <glyph glyph-name="Ocircumflex" unicode="&#xd4;" horiz-adv-x="572" 
d="M428 679q43 0 86 -16t76.5 -51.5t52.5 -91.5t13 -136q-6 -63 -30.5 -132t-65.5 -127t-99.5 -95.5t-132.5 -37.5q-54 0 -98 21t-74.5 56t-47 82t-16.5 98q0 75 23 152t66.5 138.5t105.5 100.5t141 39zM152 264q0 -41 10.5 -80t32 -69.5t55 -49t80.5 -18.5q58 0 107.5 33
t85.5 83t56 108.5t20 110.5q0 46 -6 90t-24.5 78t-52 55t-88.5 21q-61 0 -112 -30.5t-87.5 -81t-56.5 -115.5t-20 -135zM478 854q11 -3 24 -17t24.5 -31.5t19 -35t7.5 -27.5q0 -8 -6 -13t-13 -5q-19 0 -35 20.5t-26 44.5q-10 -11 -21.5 -22.5t-23 -20.5t-21 -14.5
t-15.5 -5.5q-11 0 -18 6t-7 17q0 8 13.5 25.5t32 35t37 30.5t28.5 13z" />
    <glyph glyph-name="Otilde" unicode="&#xd5;" horiz-adv-x="572" 
d="M428 679q43 0 86 -16t76.5 -51.5t52.5 -91.5t13 -136q-6 -63 -30.5 -132t-65.5 -127t-99.5 -95.5t-132.5 -37.5q-54 0 -98 21t-74.5 56t-47 82t-16.5 98q0 75 23 152t66.5 138.5t105.5 100.5t141 39zM152 264q0 -41 10.5 -80t32 -69.5t55 -49t80.5 -18.5q58 0 107.5 33
t85.5 83t56 108.5t20 110.5q0 46 -6 90t-24.5 78t-52 55t-88.5 21q-61 0 -112 -30.5t-87.5 -81t-56.5 -115.5t-20 -135zM596 853q8 0 16 -4t8 -13t-11.5 -27t-28.5 -36t-36 -31.5t-34 -14.5q-2 0 -4.5 -1t-4.5 -1q-13 0 -25 15.5t-22 29.5q-12 18 -22.5 14.5t-21.5 -11.5
q-16 -14 -29.5 -30t-21.5 -16q-11 0 -18 6t-7 17q0 7 8.5 21t22.5 29t31 28t34 18t32 -1.5t25 -30.5q7 -17 14 -23t14.5 -4.5t15 8t13.5 15.5q17 15 30.5 29t21.5 14z" />
    <glyph glyph-name="Yacute" unicode="&#xdd;" horiz-adv-x="708" 
d="M575 725q18 0 26 -2.5t10 -7.5t1 -11.5t-1 -13.5q0 -13 -8 -17t-19 -5.5t-22.5 -2.5t-18.5 -8q-4 -4 -18 -40t-32.5 -88t-39 -112t-37.5 -113t-28 -91.5t-11 -45.5q0 -20 7 -37t19.5 -29.5t29 -20t35.5 -7.5q20 0 46.5 9.5t52 24t47.5 32t33 34.5q10 15 17 32t12.5 34.5
t10.5 35t12 34.5q15 39 31 92t31.5 107t32 103.5t33.5 81.5q4 8 10 14t15 6q11 0 19.5 -7.5t8.5 -17.5q0 -14 -4.5 -26.5t-8.5 -24.5q-16 -53 -34 -101t-34 -99q-32 -101 -66.5 -201t-61.5 -203q-11 -39 -32.5 -74t-52 -61.5t-68 -41.5t-79.5 -15q-9 0 -26.5 0.5t-34.5 4
t-30 11t-13 20.5t11 21t23 8q18 0 35.5 -3.5t35.5 -3.5q28 0 58.5 12t56 32t42 47.5t16.5 57.5q0 12 -10 17q-8 0 -21.5 -8t-31.5 -17t-39 -16.5t-43 -7.5q-31 0 -58.5 10t-47.5 28.5t-32 45t-12 58.5q0 28 11 68.5t27 87t35 96t35 94t27 82t11 60.5q0 16 -18 16
q-48 0 -93.5 -17t-81.5 -47.5t-57.5 -73t-21.5 -93.5q0 -44 15 -65.5t33.5 -33t33.5 -19t15 -22.5q0 -14 -9 -23.5t-23 -9.5q-24 0 -46.5 15t-39 37t-26.5 48t-10 49q0 30 4 58t17 56q32 68 74 107.5t94.5 60.5t115 27.5t135.5 8.5zM750 899q4 0 10.5 -0.5t12.5 -2
t10.5 -4.5t4.5 -7q0 -8 -17 -26.5t-39 -38t-43.5 -34t-30.5 -14.5q-8 0 -15.5 5t-7.5 14t14.5 27t34 36t38.5 31.5t28 13.5z" />
    <glyph glyph-name="acircumflex" unicode="&#xe2;" horiz-adv-x="487" 
d="M329 499q21 0 36 -4.5t28 -10.5t26 -12.5t31 -10.5q7 2 11.5 7.5t8.5 11t9 10t13 4.5q11 0 19.5 -9t4.5 -19q-6 -17 -15 -44.5t-20 -62t-22.5 -73.5t-23 -77t-21.5 -73.5t-17 -63.5q-1 -11 5.5 -9.5t17 6.5t23.5 11.5t25 6.5q10 0 17.5 -5t7.5 -16q0 -12 -10.5 -24
t-25.5 -21.5t-31 -15t-27 -5.5t-20 4t-17 9t-17 9t-20 4q-5 0 -16.5 -4.5t-25.5 -10.5t-29 -10.5t-27 -4.5q-46 0 -81.5 10t-59.5 32t-36.5 58t-12.5 88q0 60 22.5 116.5t61.5 101t92.5 71t115.5 26.5zM96 204q0 -20 4.5 -45.5t16.5 -48t32.5 -37.5t52.5 -14q43 1 73.5 11
t62.5 39q15 14 18.5 30t9.5 34q9 28 19 62.5t18.5 65t13 52.5t2.5 26q-3 16 -12.5 28.5t-22 20t-27 11.5t-29.5 4q-44 0 -85.5 -21t-74 -54.5t-52.5 -76.5t-20 -87zM386 683q11 -3 24 -17t24.5 -31.5t19 -35t7.5 -27.5q0 -8 -6 -13t-13 -5q-19 0 -35 20.5t-26 44.5
q-10 -11 -21.5 -22.5t-23 -20.5t-21 -14.5t-15.5 -5.5q-11 0 -18 6t-7 17q0 8 13.5 25.5t32 35t37 30.5t28.5 13z" />
    <glyph glyph-name="atilde" unicode="&#xe3;" horiz-adv-x="487" 
d="M329 499q21 0 36 -4.5t28 -10.5t26 -12.5t31 -10.5q7 2 11.5 7.5t8.5 11t9 10t13 4.5q11 0 19.5 -9t4.5 -19q-6 -17 -15 -44.5t-20 -62t-22.5 -73.5t-23 -77t-21.5 -73.5t-17 -63.5q-1 -11 5.5 -9.5t17 6.5t23.5 11.5t25 6.5q10 0 17.5 -5t7.5 -16q0 -12 -10.5 -24
t-25.5 -21.5t-31 -15t-27 -5.5t-20 4t-17 9t-17 9t-20 4q-5 0 -16.5 -4.5t-25.5 -10.5t-29 -10.5t-27 -4.5q-46 0 -81.5 10t-59.5 32t-36.5 58t-12.5 88q0 60 22.5 116.5t61.5 101t92.5 71t115.5 26.5zM96 204q0 -20 4.5 -45.5t16.5 -48t32.5 -37.5t52.5 -14q43 1 73.5 11
t62.5 39q15 14 18.5 30t9.5 34q9 28 19 62.5t18.5 65t13 52.5t2.5 26q-3 16 -12.5 28.5t-22 20t-27 11.5t-29.5 4q-44 0 -85.5 -21t-74 -54.5t-52.5 -76.5t-20 -87zM480 676q8 0 16 -4t8 -13t-11.5 -27t-28.5 -36t-36 -31.5t-34 -14.5q-2 0 -4.5 -1t-4.5 -1q-13 0 -25 15.5
t-22 29.5q-12 18 -22.5 14.5t-21.5 -11.5q-16 -14 -29.5 -30t-21.5 -16q-11 0 -18 6t-7 17q0 7 8.5 21t22.5 29t31 28t34 18t32 -1.5t25 -30.5q7 -17 14 -23t14.5 -4.5t15 8t13.5 15.5q17 15 30.5 29t21.5 14z" />
    <glyph glyph-name="ecircumflex" unicode="&#xea;" horiz-adv-x="436" 
d="M328 502q88 0 135.5 -41.5t47.5 -131.5q0 -36 -8.5 -57t-25 -32.5t-40.5 -14.5t-56 -3q-60 0 -122.5 -0.5t-122.5 -0.5q-12 0 -17.5 -4.5t-8 -11.5t-2.5 -16v-17q0 -27 12 -48.5t32 -37t45 -24t52 -8.5q28 0 49.5 9t38 20t29.5 20t25 9q28 0 28 -28q0 -19 -23 -35.5
t-53.5 -28.5t-61 -18.5t-45.5 -6.5q-35 0 -68.5 14t-59.5 38.5t-42 57t-16 70.5q0 58 17.5 116.5t52 105.5t87 76t121.5 29zM135 288q0 -5 3.5 -8t8.5 -4.5t10.5 -1.5h9.5q45 0 93.5 1.5t93.5 1.5q18 0 36.5 1t33.5 6.5t24 17t9 33.5q0 51 -36 77.5t-87 26.5q-33 0 -60 -4
t-49 -14.5t-40 -28.5t-34 -46q-5 -9 -10.5 -28t-5.5 -30zM392 689q11 -3 24 -17t24.5 -31.5t19 -35t7.5 -27.5q0 -8 -6 -13t-13 -5q-19 0 -35 20.5t-26 44.5q-10 -11 -21.5 -22.5t-23 -20.5t-21 -14.5t-15.5 -5.5q-11 0 -18 6t-7 17q0 8 13.5 25.5t32 35t37 30.5t28.5 13z
" />
    <glyph glyph-name="icircumflex" unicode="&#xee;" horiz-adv-x="233" 
d="M200 497q8 0 16 3t16 3q14 0 23.5 -10t9.5 -24q0 -10 -8.5 -38t-21 -65.5t-27.5 -80.5t-27.5 -82.5t-21.5 -71t-9 -46.5l4 -8q8 -5 19.5 -4t19.5 1q13 0 26.5 -9t13.5 -23t-9 -21t-22 -10t-27.5 -3h-25.5q-12 0 -25 3t-23.5 10t-17 17t-6.5 24q0 15 8.5 45.5t21 67
t27.5 76.5t27.5 75t21 61.5t8.5 36.5q0 9 -9 11.5t-19.5 4.5t-19 6.5t-8.5 16.5q0 13 6.5 20t16.5 10t21.5 3.5t20.5 0.5zM289 712q11 -3 24 -17t24.5 -31.5t19 -35t7.5 -27.5q0 -8 -6 -13t-13 -5q-19 0 -35 20.5t-26 44.5q-10 -11 -21.5 -22.5t-23 -20.5t-21 -14.5
t-15.5 -5.5q-11 0 -18 6t-7 17q0 8 13.5 25.5t32 35t37 30.5t28.5 13z" />
    <glyph glyph-name="T" unicode="T" horiz-adv-x="638" 
d="M779 681q8 0 16 -4.5t8 -14.5q0 -11 -17 -20t-38.5 -16.5t-42.5 -11.5t-30 -4q-23 0 -48 3t-55 6t-67 6t-83 3q-53 0 -94.5 -19t-71.5 -51.5t-47.5 -76t-22.5 -93.5q-3 -28 7 -51t26.5 -39.5t37 -25.5t39.5 -9q34 0 55.5 5.5t35.5 12.5t23 12.5t17 5.5q11 0 19 -6t8 -17
q0 -17 -19 -29t-44 -19.5t-50 -11t-37 -3.5q-39 0 -72.5 12t-57.5 34t-37.5 54t-13.5 72q0 69 27.5 123t73.5 92t105.5 58t123.5 20q53 0 103 -10t102 -10q20 0 38 3.5t33 8t27.5 8t22.5 3.5zM630 590q29 0 29 -28q0 -3 -11 -38t-28 -85.5t-36.5 -109.5t-37 -110t-30 -86.5
t-14.5 -40.5q-20 -44 -53.5 -67.5t-82.5 -23.5q-10 0 -28 3t-36 9.5t-31 16t-13 22.5q0 12 13.5 16t22.5 4q20 0 38.5 -8.5t41.5 -8.5q26 0 47.5 17.5t32.5 51.5q36 109 71 208.5t61 203.5q1 6 3.5 14t5.5 16t7.5 14t11.5 8q10 2 16 2z" />
    <glyph glyph-name="S" unicode="S" horiz-adv-x="642" 
d="M447 683q25 0 60 -5t66.5 -15.5t53.5 -26t22 -35.5q0 -11 -11 -18t-21 -7q-20 0 -35.5 8.5t-35.5 19t-48.5 18.5t-72.5 8q-23 0 -50 -9t-51 -24t-41 -35.5t-18 -44.5q7 -42 34.5 -61.5t65 -29t79.5 -16t77 -23t58 -50t23 -96.5q0 -57 -25.5 -102t-66.5 -75.5t-92.5 -47
t-103.5 -16.5q-39 0 -84.5 12.5t-84 36.5t-64.5 59.5t-26 81.5q0 15 4.5 40t14 48.5t24.5 41t35 17.5q14 0 23 -10t9 -23q0 -3 -1.5 -7.5l-2.5 -7.5q-19 -19 -30 -33t-11 -42q0 -45 20.5 -77t52 -51.5t70.5 -28.5t76 -9q35 0 72 14.5t67 39.5t49.5 58t19.5 71q0 46 -13.5 72
t-36.5 39.5t-52 19t-60 9.5t-61 10.5t-55 23.5t-43 43t-18 58q0 46 22.5 79.5t57 55.5t77 32t82.5 10z" />
    <glyph glyph-name="dollar" unicode="$" horiz-adv-x="587" 
d="M449 706q8 0 18.5 -2.5t12.5 -16.5q0 -1 -2.5 -11.5t-8.5 -28.5q20 -5 40.5 -11t37 -14t27 -18t10.5 -21t-10 -17t-19 -6q-5 0 -16.5 6t-24.5 13.5t-26 14.5t-22 10q-6 2 -9 2q-13 -39 -29 -89.5t-33 -103.5q28 -5 54.5 -13t47 -24.5t33 -44t12.5 -70.5q0 -50 -22.5 -90
t-59.5 -67.5t-83 -42t-92 -14.5h-11q-3 -6 -5 -14l-4 -16q-2 -14 -6.5 -28.5t-16.5 -19.5l-4 -2t-4 -1q-8 0 -17.5 7t-11.5 17q-1 10 1 18.5t3 18.5q2 8 4 15t5 14q-30 7 -59.5 21t-52.5 34.5t-37 47t-14 58.5q0 13 4 35t12.5 43t22 36.5t31.5 15.5q11 0 19.5 -9t8.5 -20
q0 -3 -1 -7t-2 -7q-17 -17 -27 -29t-10 -37q0 -29 5.5 -47.5t16.5 -32t27 -25t37 -25.5q9 -1 17 -2.5t16 -3.5q12 37 26 74t26 68.5t21 56t13 37.5l12 41q-23 4 -45 10t-40 19q-21 15 -37 38t-16 52q0 42 19.5 71.5t50.5 48.5t68.5 28t73.5 9q4 0 9 -0.5t12 -1.5
q8 22 14.5 36t9.5 17zM308 89q31 0 64 13t60 35.5t44 52.5t17 63q0 35 -9 56.5t-24.5 34.5t-35.5 19t-42 9q-13 -38 -24.5 -73.5t-20.5 -64t-15 -48t-8 -26.5q-5 -23 -11 -39.5t-12 -31.5h17zM385 609q-20 0 -39 -9q-24 -9 -40.5 -14t-28 -12.5t-20 -22t-15.5 -44.5
q3 -20 12.5 -34t23 -23.5t31 -16t36.5 -10.5l30.5 91.5t33.5 94.5h-24z" />
    <glyph glyph-name="asterisk" unicode="*" horiz-adv-x="311" 
d="M235 486q-2 -6 -9.5 -12.5t-15.5 -4.5q-6 2 -19 18t-29 40q-14 -23 -25.5 -37.5t-18.5 -16.5q-10 -3 -18.5 1t-11.5 14q-2 6 6 25t21 44q-26 0 -45 2t-24 7q-8 7 -9 16t7 17q4 4 23.5 6.5t45.5 4.5q-12 23 -18.5 40.5t-4.5 24.5q2 10 9.5 15t18.5 3q5 -2 17.5 -17.5
t26.5 -37.5q14 22 26.5 37.5t20.5 17.5q6 2 15.5 -1.5t11.5 -11.5q2 -6 -6 -25.5t-21 -44.5q27 -2 47.5 -5t25.5 -8q2 -2 3.5 -7t2.5 -10t0 -9t-4 -4q-6 0 -27.5 -2t-50.5 -4q14 -26 22.5 -46.5t6.5 -28.5z" />
    <glyph glyph-name="less" unicode="&#x3c;" horiz-adv-x="405" 
d="M368 385q7 -5 15.5 -11t4.5 -12q-1 -1 -11.5 -7t-27.5 -14t-37 -17.5t-38.5 -18.5t-33 -16t-20.5 -10l-52 -26t-54 -26q36 -26 59.5 -44.5t38.5 -28.5q6 -5 24.5 -18.5t38.5 -29.5t37 -30.5t20 -20.5q2 -8 1.5 -18.5t-7.5 -11.5q-2 0 -20.5 11.5t-41.5 27.5t-45 30.5
t-30 20.5q-26 16 -49.5 37t-51.5 39q-4 2 -11.5 8.5t-14.5 14.5t-11 16t-1 13q2 5 7 7.5t10 5.5q26 12 58 27.5t61.5 30.5t53.5 26.5t33 15.5q7 3 20.5 8t27.5 10t27 8t20 3z" />
    <glyph glyph-name="greater" unicode="&#x3e;" horiz-adv-x="405" 
d="M70 25q-7 5 -15.5 11t-4.5 12q0 1 11 7t28 14t37 17.5t38.5 18.5t33 16t20.5 10l52 26t54 26q-36 26 -59.5 44.5t-38.5 28.5q-6 5 -24.5 18.5t-38.5 29.5t-37 30.5t-20 20.5q-2 8 -1.5 18.5t7.5 11.5q2 0 20.5 -11.5t41.5 -27.5t45 -30.5t30 -20.5q26 -16 49.5 -37
t51.5 -39q4 -2 11.5 -8.5t14 -14.5t11 -16t1.5 -13q-2 -5 -7 -7.5t-10 -5.5q-26 -12 -58 -27.5t-61.5 -30.5t-53.5 -26.5t-33 -15.5q-8 -3 -21 -8t-27.5 -10t-27 -8t-19.5 -3z" />
    <glyph glyph-name="numbersign" unicode="#" horiz-adv-x="408" 
d="M243 319h20.5t20.5 1q5 15 9 30t7 32q11 -5 19.5 -1.5t18.5 -0.5q7 -3 9.5 -9t1.5 -13t-3 -14t-4 -12l-3 -7h14q5 0 12.5 -0.5t14 -2.5t11.5 -6t5 -12q0 -11 -6 -18t-6 -18q-18 3 -35 4.5t-34 2.5q-5 -11 -10 -21.5t-9 -21.5l-5 -12q9 1 17.5 1h17.5q5 0 12.5 -0.5
t14 -2.5t11.5 -6t5 -12q0 -11 -6 -18t-6 -18q-22 4 -41.5 5.5t-39.5 2.5q-6 -17 -13 -33t-15.5 -28t-18 -17.5t-19.5 -1.5q-11 4 -12.5 17t2.5 23t9 19t10 19q-13 -1 -25.5 -1.5t-25.5 -0.5h-7q-6 -16 -13 -31.5t-15.5 -27t-17.5 -17t-19 -1.5q-11 5 -12.5 17.5t2.5 22.5
q3 8 6.5 15.5t7.5 15.5h-12q-11 0 -22.5 6t-11.5 18q0 18 22 24.5t51 7.5l22 50q-8 -1 -17 -1.5t-17 -0.5q-11 0 -22.5 6t-11.5 18q0 10 8 16.5t20.5 10t28.5 4.5t33 1q9 30 15 59q11 -4 19.5 -1t18.5 -1q7 -3 9.5 -8.5t1.5 -12.5t-3 -14.5t-4 -12.5q-2 -3 -2.5 -6t-2.5 -5
q6 -1 11 -1h9zM216 215h23l27 60q-17 -1 -33 -2t-33 -1q-5 -11 -9.5 -20.5t-8.5 -20.5q-2 -3 -2.5 -6t-2.5 -8q12 -1 22.5 -1.5t16.5 -0.5z" />
    <glyph glyph-name="backslash" unicode="\" horiz-adv-x="466" 
d="M39 701q11 0 28.5 -2.5t34.5 -18.5q3 -3 18 -33t36.5 -74t46 -95.5t47.5 -98.5t40.5 -83t24.5 -48q15 -27 26 -52t21.5 -50t21.5 -51t28 -55q4 -8 9 -16.5t8 -16.5t3 -14t-6 -9l-4 -2t-4 -1q-5 0 -13 2t-17 6t-17 9t-14 10q-12 11 -18.5 22t-15.5 22q-17 33 -35 72
t-35.5 79.5t-34 80t-30.5 73t-25 58.5t-17 37q-5 9 -15 30t-22.5 47t-25.5 54.5t-23.5 53.5t-16.5 42.5t-4 21.5z" />
    <glyph glyph-name="oe" unicode="&#x153;" horiz-adv-x="830" 
d="M709 502q88 0 131 -41.5t43 -131.5q0 -36 -7 -57t-21.5 -32.5t-37.5 -14.5t-55 -3q-60 0 -117.5 -0.5t-117.5 -0.5q-12 0 -17.5 -4.5t-8 -11.5t-2.5 -16v-17q0 -27 10.5 -48.5t28.5 -37t41.5 -24t50.5 -8.5q28 0 49.5 9t38 20t29.5 20t25 9q28 0 28 -28q0 -19 -23 -35.5
t-53.5 -28.5t-61 -18.5t-45.5 -6.5q-27 0 -53.5 7t-49.5 20t-41 31.5t-29 42.5q-37 -51 -88 -85.5t-108 -34.5q-95 0 -141.5 53t-46.5 144q0 53 21 110.5t58 105t87 78.5t108 31q26 0 50 -7t44 -22q30 -22 46 -41.5t24 -42.5q35 51 87.5 84t123.5 33zM250 34q48 0 84 28
t60 70t36 90t12 88q0 21 -6 43t-17.5 39.5t-29 28.5t-41.5 11q-51 0 -93.5 -29.5t-72 -73.5t-44 -96t-8 -96t35 -73.5t84.5 -29.5zM526 288q0 -5 3.5 -8t8.5 -4.5t10.5 -1.5h9.5q45 0 88.5 1.5t88.5 1.5q18 0 34 2t27.5 8.5t18 19.5t6.5 35q0 51 -27.5 74t-78.5 23
q-33 0 -58.5 -4t-45.5 -14.5t-36.5 -28.5t-32.5 -46q-5 -9 -10.5 -28t-5.5 -30z" />
    <glyph glyph-name="OE" unicode="&#x152;" horiz-adv-x="1075" 
d="M923 682q31 0 64.5 -6.5t63.5 -20t54.5 -35t36.5 -52.5q0 -11 -8 -21.5t-20 -10.5q-5 0 -22.5 16t-44.5 35.5t-61 36t-72 16.5q-27 0 -57 -10t-55.5 -28t-42.5 -43t-17 -55q6 -8 16 -8q24 0 47.5 8t48.5 8q19 0 43 -5t45 -16t35.5 -28t14.5 -41q0 -32 -13.5 -51
t-34.5 -28.5t-47 -12.5t-51 -3q-23 0 -46.5 12.5t-43 27t-33.5 27t-18 12.5q-12 0 -26.5 -19t-26.5 -43q-4 -20 -9.5 -38.5t-12.5 -37.5q1 -50 14.5 -90.5t39.5 -69t65.5 -44t92.5 -15.5q56 0 90.5 15t55 38t30 49.5t16.5 49.5t15.5 38t25.5 15q20 0 23.5 -13.5t3.5 -28.5
q0 -44 -22 -82.5t-56.5 -67t-77 -45.5t-82.5 -17q-29 0 -59 2.5t-59 9.5q-19 4 -43 20t-47.5 37.5t-43 46t-28.5 47.5q-20 -35 -47 -66t-60 -54.5t-70.5 -37t-78.5 -13.5q-54 0 -98 21t-74.5 56t-47 82t-16.5 98q0 20 5.5 51.5t15 68t23 74t29.5 70t34 57t37 34.5
q13 16 37 29.5t52 23.5t55.5 16t47.5 6q43 0 84 -13.5t73 -38.5t51.5 -61t19.5 -82v-52l13.5 13.5t12.5 14.5q4 5 5.5 19t4 31.5t6.5 35t12 30.5q16 25 40.5 45t53 33.5t59.5 20.5t60 7zM152 264q0 -41 10.5 -80t32 -69.5t55 -49t80.5 -18.5q58 0 107 35t84.5 87.5t55 113.5
t19.5 113v43q0 30 -6.5 63.5t-22 61t-41 46t-62.5 18.5q-69 0 -115.5 -18t-78 -51.5t-53 -81t-41.5 -105.5q-3 -9 -7 -23.5t-8 -30.5t-6.5 -30.5t-2.5 -23.5zM765 438q0 -17 15 -29.5t35 -20.5t41.5 -12t33.5 -4q16 0 31 14t15 30q0 17 -11 26.5t-26.5 14t-32 5t-28.5 0.5
q-6 0 -18 -0.5t-24.5 -2.5t-21.5 -7t-9 -14z" />
    <glyph glyph-name="ae" unicode="&#xe6;" horiz-adv-x="831" 
d="M713 502q88 0 131 -41.5t43 -131.5q0 -36 -7 -57t-21.5 -32.5t-37.5 -14.5t-55 -3q-60 0 -117.5 -0.5t-117.5 -0.5q-13 0 -20 -7l-4 -12l-4 -12q-1 -5 -0.5 -9t0.5 -9q0 -27 10.5 -48.5t28.5 -37t41.5 -24t50.5 -8.5q28 0 49.5 9t38 20t29.5 20t25 9q28 0 28 -28
q0 -19 -23 -35.5t-53.5 -28.5t-61 -18.5t-45.5 -6.5q-54 0 -101.5 25.5t-70.5 72.5q-35 -45 -84 -72t-113 -27q-88 0 -131 41.5t-43 131.5q0 36 7 57t21.5 32.5t37.5 14.5t55 3q60 0 117.5 0.5t117.5 0.5q13 0 19 6l9 25v18q0 27 -10.5 48.5t-28.5 37t-41.5 24t-50.5 8.5
q-29 0 -50 -9t-37.5 -20t-29.5 -20t-25 -9q-28 0 -28 28q0 19 23 35.5t53.5 28.5t61 18.5t45.5 6.5q54 0 101 -26t70 -72q35 44 84 71.5t114 27.5zM530 288q0 -5 3.5 -8t8.5 -4.5t10.5 -1.5h9.5q45 0 88.5 1.5t88.5 1.5q18 0 34 2t27.5 8.5t18 19.5t6.5 35q0 51 -27.5 74
t-78.5 23q-33 0 -58.5 -4t-45.5 -14.5t-36.5 -28.5t-32.5 -46q-5 -9 -10.5 -28t-5.5 -30zM435 208q0 5 -3.5 8t-8.5 4.5t-10.5 1.5h-9.5q-45 0 -88.5 -1.5t-88.5 -1.5q-18 0 -34 -2t-27.5 -9t-18 -19.5t-6.5 -34.5q0 -51 27.5 -74t78.5 -23q33 0 58.5 4t45.5 14.5t36.5 28.5
t32.5 46q5 9 10.5 28t5.5 30z" />
    <glyph glyph-name="ucircumflex" unicode="&#xfb;" horiz-adv-x="532" 
d="M507 499q7 0 17.5 -0.5t20 -3t16 -8.5t6.5 -16q0 -9 -9 -39t-22 -70t-29 -86t-29 -87.5t-22 -73.5t-9 -44q0 -11 6.5 -12t15.5 2.5t18.5 8.5t15.5 5q10 0 20 -7t10 -18q0 -12 -12 -22.5t-28.5 -17.5t-33.5 -11t-27 -4q-12 0 -23.5 4.5t-17.5 15.5q-6 5 -13 11.5t-15 6.5
q-5 0 -20.5 -6t-35.5 -13t-41.5 -13t-38.5 -6q-24 0 -48 8.5t-42.5 23.5t-30.5 36t-12 47q0 36 12.5 81t27.5 89t27.5 81.5t12.5 58.5q0 9 -6.5 12.5t-14 6.5t-13.5 7.5t-6 15.5q0 14 9.5 20.5t23 9t28 2t24.5 -0.5q14 0 26 -8t12 -24q0 -11 -7.5 -35t-19 -55t-24.5 -67
t-24.5 -70t-19 -63t-7.5 -48q0 -35 20.5 -55t55.5 -20q19 0 46 10t53 25.5t46.5 34.5t26.5 37q7 21 15 43.5t18.5 53.5t24 73.5t31.5 103.5q0 10 -6 14.5t-13 8t-13 9t-6 16.5q0 9 6 14t14.5 6.5t17.5 1.5h15zM428 706q11 -3 24 -17t24.5 -31.5t19 -35t7.5 -27.5
q0 -8 -6 -13t-13 -5q-19 0 -35 20.5t-26 44.5q-10 -11 -21.5 -22.5t-23 -20.5t-21 -14.5t-15.5 -5.5q-11 0 -18 6t-7 17q0 8 13.5 25.5t32 35t37 30.5t28.5 13z" />
    <glyph glyph-name="ocircumflex" unicode="&#xf4;" 
d="M337 516q51 0 83 -18t50.5 -47.5t25 -68t6.5 -79.5q0 -60 -20 -116t-54 -99t-79.5 -68.5t-97.5 -25.5q-95 0 -141.5 53t-46.5 144q0 60 21 118.5t58 104t87 74t108 28.5zM132 174q0 -21 8.5 -42.5t23.5 -39.5t37.5 -29t51.5 -11q48 0 84 28t60 70t36 90t12 88q0 21 -7 44
t-20.5 42t-32 31t-42.5 12q-49 -1 -88 -25t-66.5 -64t-42 -90.5t-14.5 -103.5zM421 706q11 -3 24 -17t24.5 -31.5t19 -35t7.5 -27.5q0 -8 -6 -13t-13 -5q-19 0 -35 20.5t-26 44.5q-10 -11 -21.5 -22.5t-23 -20.5t-21 -14.5t-15.5 -5.5q-11 0 -18 6t-7 17q0 8 13.5 25.5
t32 35t37 30.5t28.5 13z" />
    <glyph glyph-name="otilde" unicode="&#xf5;" 
d="M337 516q51 0 83 -18t50.5 -47.5t25 -68t6.5 -79.5q0 -60 -20 -116t-54 -99t-79.5 -68.5t-97.5 -25.5q-95 0 -141.5 53t-46.5 144q0 60 21 118.5t58 104t87 74t108 28.5zM132 174q0 -21 8.5 -42.5t23.5 -39.5t37.5 -29t51.5 -11q48 0 84 28t60 70t36 90t12 88q0 21 -7 44
t-20.5 42t-32 31t-42.5 12q-49 -1 -88 -25t-66.5 -64t-42 -90.5t-14.5 -103.5zM519 705q8 0 16 -4t8 -13t-11.5 -27t-28.5 -36t-36 -31.5t-34 -14.5q-2 0 -4.5 -1t-4.5 -1q-13 0 -25 15.5t-22 29.5q-12 18 -22.5 14.5t-21.5 -11.5q-16 -14 -29.5 -30t-21.5 -16q-11 0 -18 6
t-7 17q0 7 8.5 21t22.5 29t31 28t34 18t32 -1.5t25 -30.5q7 -17 14 -23t14.5 -4.5t15 8t13.5 15.5q17 15 30.5 29t21.5 14z" />
    <glyph glyph-name="ntilde" unicode="&#xf1;" horiz-adv-x="538" 
d="M191 509q14 0 27.5 -4.5t22.5 -16.5q6 -5 11 -10.5t13 -5.5q28 11 62.5 22t65.5 11q40 0 67.5 -12.5t43.5 -34.5t23 -52.5t7 -65.5q0 -2 -5.5 -21t-14.5 -46.5t-19.5 -60t-19.5 -61t-16 -49t-9 -25.5q-5 -19 -1 -22t13.5 0.5t22.5 10t25 6.5q13 0 21 -7t8 -19
q0 -9 -9 -17.5t-22 -15t-26 -10.5t-21 -4q-12 0 -25 3t-23.5 9t-17 16t-6.5 25q0 31 13 69t28 80t28 85.5t13 85.5q0 13 -4 27t-12.5 25.5t-20 19t-26.5 7.5q-27 0 -56.5 -6.5t-55.5 -19.5t-46 -34t-29 -49q-19 -61 -39.5 -122t-42.5 -121q-4 -11 -7 -28t-8.5 -33t-14.5 -28
t-24 -12q-16 0 -21.5 8t-5.5 22q0 12 9.5 43t23.5 70.5t30.5 83.5t30.5 84t23.5 71.5t9.5 44.5q0 11 -8 15t-17 7t-17 6.5t-8 13.5q0 21 19 31.5t37 10.5zM537 705q8 0 16 -4t8 -13t-11.5 -27t-28.5 -36t-36 -31.5t-34 -14.5q-2 0 -4.5 -1t-4.5 -1q-13 0 -25 15.5t-22 29.5
q-12 18 -22.5 14.5t-21.5 -11.5q-16 -14 -29.5 -30t-21.5 -16q-11 0 -18 6t-7 17q0 7 8.5 21t22.5 29t31 28t34 18t32 -1.5t25 -30.5q7 -17 14 -23t14.5 -4.5t15 8t13.5 15.5q17 15 30.5 29t21.5 14z" />
    <glyph glyph-name="odieresis_" unicode="&#xf506;" 
 />
    <glyph glyph-name="aring" unicode="&#xe5;" horiz-adv-x="487" 
d="M272 624q11 34 35 61.5t61 32.5q23 3 41 -4.5t29.5 -22.5t15.5 -35.5t-1 -41.5q-7 -28 -25 -47.5t-39.5 -30t-44.5 -11t-41 10t-27 32t-4 56.5zM312 621q-5 -35 8.5 -47.5t32.5 -8.5t37.5 20t23.5 39q3 15 0 27t-11 19.5t-20 8.5t-26 -6q-19 -9 -29.5 -24t-16.5 -35z
M329 499q21 0 36 -4.5t28 -10.5t26 -12.5t31 -10.5q7 2 11.5 7.5t8.5 11t9 10t13 4.5q11 0 19.5 -9t4.5 -19q-6 -17 -15 -44.5t-20 -62t-22.5 -73.5t-23 -77t-21.5 -73.5t-17 -63.5q-1 -11 5.5 -9.5t17 6.5t23.5 11.5t25 6.5q10 0 17.5 -5t7.5 -16q0 -12 -10.5 -24
t-25.5 -21.5t-31 -15t-27 -5.5t-20 4t-17 9t-17 9t-20 4q-5 0 -16.5 -4.5t-25.5 -10.5t-29 -10.5t-27 -4.5q-46 0 -81.5 10t-59.5 32t-36.5 58t-12.5 88q0 60 22.5 116.5t61.5 101t92.5 71t115.5 26.5zM96 204q0 -20 4.5 -45.5t16.5 -48t32.5 -37.5t52.5 -14q43 1 73.5 11
t62.5 39q15 14 18.5 30t9.5 34q9 28 19 62.5t18.5 65t13 52.5t2.5 26q-3 16 -12.5 28.5t-22 20t-27 11.5t-29.5 4q-44 0 -85.5 -21t-74 -54.5t-52.5 -76.5t-20 -87z" />
    <glyph glyph-name="Aring" unicode="&#xc5;" horiz-adv-x="685" 
d="M455 817q11 34 35 61.5t61 32.5q23 3 41 -4.5t29.5 -22.5t15.5 -35.5t-1 -41.5q-7 -28 -25 -47.5t-39.5 -30t-44.5 -11t-41 10t-27 32t-4 56.5zM495 814q-5 -35 8.5 -47.5t32.5 -8.5t37.5 20t23.5 39q3 15 0 27t-11 19.5t-20 8.5t-26 -6q-19 -9 -29.5 -24t-16.5 -35z
M491 693q45 0 83 -16t66.5 -43t44.5 -61.5t16 -71.5q0 -50 -18 -103t-39.5 -107t-39.5 -108.5t-18 -106.5q0 -6 6 -10t11 -4q10 0 17.5 5t15 11t15 11t17.5 5q9 0 17 -5t8 -16q0 -12 -13.5 -23t-32 -19.5t-37 -13.5t-28.5 -5q-23 0 -41.5 11t-18.5 37q0 22 6.5 50t15.5 57.5
t19.5 56.5t18.5 48q9 24 19.5 48.5t19.5 49.5t15 50.5t6 51.5q0 47 -14.5 79t-40.5 52t-62.5 29t-79.5 9q-58 0 -106.5 -14t-84 -42.5t-55 -72t-19.5 -103.5q0 -20 9.5 -40.5t24 -38t30.5 -28.5t28 -11q7 0 8 4t4 11q7 15 10 27t8 28l12 33t16.5 47t15 48t6.5 37
q0 10 -11 10.5t-23.5 -0.5t-23.5 0.5t-11 14.5q0 12 11.5 20.5t27 14t32 7.5t26.5 2q18 0 30 -15.5t8 -32.5q-8 -34 -20 -69t-25 -70.5t-24.5 -70.5t-18.5 -69q-2 -8 7 -12t21 -6t24.5 -2.5t17.5 -0.5q18 0 34.5 4.5t32.5 10.5t31 10.5t29 4.5q8 0 13.5 -4.5t5.5 -12.5
q0 -9 -6 -16t-14 -12q-31 -18 -54.5 -25.5t-46.5 -9t-48 1t-58 3.5q-9 0 -15.5 -14t-13 -35t-15 -46t-22 -46.5t-33.5 -35.5t-49 -14q-8 0 -23 2.5t-30 8t-26 13t-11 16.5q0 11 11.5 17.5t21.5 6.5q14 0 23 -7t26 -7q19 0 35.5 20.5t28.5 47t19 52t7 35.5q0 16 -19 26.5
t-42.5 29t-42.5 52t-19 96.5q0 83 31 136t81.5 83.5t115.5 42t133 11.5z" />
    <glyph glyph-name="AE" unicode="&#xc6;" horiz-adv-x="986" 
d="M445 641q-58 0 -105 -14.5t-80 -44t-51 -74t-18 -104.5q0 -11 4.5 -26.5t12.5 -30.5t18 -28t22 -17q25 -9 36 29q5 18 14 42.5t17.5 50t15 47.5t6.5 36q0 10 -8.5 13.5t-18.5 6t-18.5 7t-8.5 17.5q0 12 11.5 20.5t27 14t32 7.5t26.5 2q18 0 29 -11.5t11 -29.5
q0 -33 -14 -70t-31 -74.5t-31 -73.5t-14 -68q0 -8 9 -12t21 -6t23.5 -2.5t16.5 -0.5h9q2 45 15.5 88t42.5 77q11 13 24 23.5t23 24.5q4 5 5.5 19t4 31.5t6.5 35t12 30.5q12 20 31 37q-26 15 -58 21.5t-70 6.5zM640 504q24 9 55.5 8t60 -11.5t48.5 -30.5t20 -48
q0 -32 -13.5 -51t-34.5 -28.5t-47 -12.5t-51 -3q-33 0 -55 11t-38 25t-27 26.5t-21 16.5t-23 -11.5t-24.5 -38t-19.5 -44.5t-8 -32v-20q17 6 33 11.5t32 5.5q8 0 13.5 -4.5t5.5 -12.5q0 -9 -6 -16t-14 -12q-17 -11 -31 -17t-26 -10q9 -43 32 -72t54 -47t66 -25.5t67 -7.5
q59 0 95.5 15t57 37.5t29.5 49t13.5 49t8.5 37t15 13.5q20 -2 23.5 -14.5t3.5 -27.5q0 -44 -22 -82.5t-56.5 -67t-77 -45.5t-82.5 -17q-36 0 -85 10.5t-94 34t-76 60t-31 87.5v4q-15 0 -33 1t-42 1q-21 0 -31.5 -14t-18 -34.5t-14 -45t-17.5 -45t-30.5 -34.5t-52.5 -14
q-8 0 -23 2.5t-30 8t-26 13t-11 16.5q0 11 11.5 17.5t21.5 6.5q14 0 24.5 -7t24.5 -7q13 0 26.5 20.5t24.5 47t17.5 52t6.5 35.5q0 16 -17 30.5t-37 35.5t-37 53.5t-17 84.5q0 83 30.5 137.5t81 86t115 42t132.5 4.5q33 -3 55 -7.5t37 -10t25.5 -11t20.5 -11.5q30 16 63 24
t65 8q31 0 64.5 -6.5t63.5 -20t54.5 -35t36.5 -52.5q0 -11 -8 -21.5t-20 -10.5q-4 0 -21 16t-44 35.5t-61.5 36t-73.5 16.5q-2 0 -17 -4t-35.5 -11.5t-43.5 -19t-41.5 -26.5t-29 -34t-5.5 -41q6 -8 16 -8q13 0 25 2.5t25 5.5zM597 438q0 -20 12.5 -32.5t31 -20t40.5 -10.5
t41 -3q16 0 31 14t15 30t-12.5 25.5t-31.5 14t-41.5 4t-41.5 -3t-31.5 -8t-12.5 -10.5z" />
    <glyph glyph-name="cedilla" unicode="&#xb8;" horiz-adv-x="0" 
d="M104 56q6 7 13 9t13 -0.5t9 -9t2 -15.5q-6 -11 -9.5 -23.5t-7.5 -25.5q13 2 26.5 2.5t24.5 -2.5t20 -11t13 -22l-3 -18q-16 -30 -46.5 -44.5t-59.5 -27.5q-10 -4 -17.5 -1t-10.5 9t-1.5 13.5t10.5 13.5q24 11 45 21t41 27q-19 5 -35.5 1.5t-33.5 -8.5l-23 28q0 5 4 17
t9 25t10 25t7 17z" />
    <glyph glyph-name="Ccedilla" unicode="&#xc7;" horiz-adv-x="554" 
d="M496 696q45 0 76.5 -17t52 -45t30 -64t9.5 -74q0 -53 -19 -101.5t-53 -86.5t-80.5 -60.5t-100.5 -22.5q-9 0 -28 3.5t-38 10t-33.5 16t-14.5 21.5q0 11 9.5 18t19.5 7q11 0 21 -4t20 -8.5t20 -8.5t20 -4q45 0 81.5 19.5t62 51.5t39.5 72.5t14 82.5q0 41 -11.5 68
t-32.5 42.5t-51 21.5t-68 6q-42 0 -79 -16.5t-68 -44t-56 -63.5t-42.5 -76t-26.5 -80.5t-9 -77.5q0 -51 15 -93t43 -72t69 -46.5t94 -16.5q27 0 44.5 3.5t31.5 10t29 16t37 20.5q12 0 23 -5.5t11 -19.5q0 -19 -21 -33.5t-51.5 -24.5t-64.5 -15.5t-59 -5.5q-54 0 -102 22.5
t-83.5 60t-56.5 86t-21 101.5q0 50 11.5 99.5t33 95.5t52 86.5t68.5 72.5q53 43 109.5 57.5t123.5 14.5zM323 15q6 7 13 9t13 -0.5t9 -9t2 -15.5q-6 -11 -9.5 -23.5t-7.5 -25.5q13 2 26.5 2.5t24.5 -2.5t20 -11t13 -22l-3 -18q-16 -30 -46.5 -44.5t-59.5 -27.5
q-10 -4 -17.5 -1t-10.5 9t-1.5 13.5t10.5 13.5q24 11 45 21t41 27q-19 5 -35.5 1.5t-33.5 -8.5l-23 28q0 5 4 17t9 25t10 25t7 17z" />
    <glyph glyph-name="ccedilla" unicode="&#xe7;" horiz-adv-x="433" 
d="M523 505q10 0 17 -12t7 -20q0 -6 -9 -37.5t-21 -67.5t-23 -66t-15 -33q-10 -8 -22 -8t-23 7t-11 21q0 12 5.5 25t12 26.5t12 27t5.5 26.5t-13 22t-30.5 13.5t-36 6.5t-29.5 2q-53 0 -93 -20.5t-66.5 -55t-39.5 -79.5t-13 -94q0 -61 30 -96.5t93 -35.5q31 0 52.5 9
t39 20.5t33 20.5t35.5 9q10 0 15 -10t5 -19q0 -15 -18.5 -30.5t-45.5 -28t-58 -21t-56 -8.5q-38 -1 -72.5 10.5t-61 34t-42 54.5t-15.5 72q0 57 18 115.5t52 106t83.5 77.5t112.5 30q20 0 41.5 -5.5t40.5 -12t32 -12t16 -5.5q7 0 12.5 6.5t11.5 14t13.5 14t18.5 6.5zM191 19
q6 7 13 9t13 -0.5t9 -9t2 -15.5q-6 -11 -9.5 -23.5t-7.5 -25.5q13 2 26.5 2.5t24.5 -2.5t20 -11t13 -22l-3 -18q-16 -30 -46.5 -44.5t-59.5 -27.5q-10 -4 -17.5 -1t-10.5 9t-1.5 13.5t10.5 13.5q24 11 45 21t41 27q-19 5 -35.5 1.5t-33.5 -8.5l-23 28q0 5 4 17t9 25t10 25
t7 17z" />
    <glyph glyph-name="Thorn" unicode="&#xde;" horiz-adv-x="603" 
d="M429 562q17 0 34 -1.5t34 -5.5q8 27 8 32q0 12 -11 18t-24 10.5t-24 11.5t-11 22q0 19 17.5 27t33.5 8q10 0 26 -0.5t31 -4t26 -11t11 -21.5q0 -9 -8 -37.5t-21 -69.5q52 -20 88 -59t36 -101q0 -54 -19 -98.5t-52 -78.5t-77 -57t-94 -33q-11 -2 -19 -11t-17 -17
q-22 -19 -30 -34.5t-17 -27t-27 -17.5t-60 -6q-9 0 -24.5 1t-31.5 4.5t-27.5 11t-11.5 19.5t9.5 17.5t20.5 5.5q14 0 27.5 -5t27.5 -5q18 0 35.5 5.5t31.5 17.5q13 12 18 17t7.5 10t4 13t7.5 25q5 16 14.5 29.5t13.5 30.5q6 24 13 55t19 53q1 3 8.5 24t17 51t20.5 64.5
t20 64.5q-17 2 -35 3.5t-35 1.5q-50 0 -97 -12t-84 -38t-59.5 -66t-22.5 -97q0 -27 11.5 -58t31.5 -50q6 -6 20 -12t28.5 -12t25 -13t10.5 -15q0 -13 -10.5 -18.5t-21.5 -5.5q-27 0 -54.5 14t-50 36.5t-36.5 50t-14 54.5q0 78 26 133t72 90t108 51t133 16zM437 189
q0 -8 6 -12t14 -4q31 0 60 20t51.5 50.5t36 66.5t13.5 67q0 48 -23.5 76t-58.5 42l-33.5 -100.5t-32 -96.5t-24 -74.5t-9.5 -34.5z" />
    <glyph glyph-name="eth" unicode="&#xf0;" 
d="M380 666q4 0 10.5 -0.5t12.5 -2t10.5 -4.5t4.5 -7q0 -6 -8.5 -17t-22.5 -25q27 -27 49 -62.5t42 -80.5q3 -7 6.5 -21l7.5 -30t7 -30.5t5 -21.5h-1q4 -18 4.5 -39.5t0.5 -47.5q0 -49 -21 -102t-57 -97.5t-83 -73t-99 -28.5q-95 0 -141.5 53t-46.5 144q0 53 21 110.5
t58 105t87 78.5t108 31q23 0 45 -5.5t41 -18.5q-27 52 -79 96q-17 -14 -31.5 -22.5t-21.5 -8.5q-8 0 -15.5 5t-7.5 14q0 6 8.5 18t21.5 26q-12 6 -24 12.5t-21 14t-14 16t-2 17.5q2 10 10.5 16t19.5 3q43 -13 79 -36q11 9 21.5 15t15.5 6zM128 129q9 -24 18.5 -42t23 -29.5
t32.5 -17.5t48 -6q48 0 84 28t60 70t36 90t12 88q0 21 -6 43t-17.5 39.5t-29 28.5t-41.5 11q-63 0 -105.5 -27.5t-68 -71t-36 -97.5t-10.5 -107z" />
    <glyph glyph-name="endash" unicode="&#x2013;" horiz-adv-x="492" 
d="M309 342q28 0 55 3t55 3q5 0 12.5 -0.5t14 -2.5t11.5 -6t5 -12q0 -11 -6 -18t-6 -18q-24 5 -46 6.5t-46 1.5q-12 0 -34 -0.5t-46 -1t-46.5 -1t-34.5 -0.5q-20 0 -40 -3t-40 -3q-11 0 -22.5 6t-11.5 18t14.5 18.5t37 9.5t49.5 3.5t52 -0.5t45 -2t28 -1z" />
    <glyph glyph-name="emdash" unicode="&#x2014;" horiz-adv-x="659" 
d="M245 343h36.5t64.5 0.5t78.5 1t78.5 1t64.5 0.5h36.5q5 0 12.5 -0.5t14 -2.5t11.5 -6t5 -12q0 -11 -6 -18t-6 -18q-8 1 -34 2.5t-61.5 3t-75 2.5t-75 1.5t-61.5 1t-34 0.5q-24 0 -48 -2t-49 -2q-20 0 -40 -3t-40 -3q-11 0 -22.5 6t-11.5 18q0 18 21 24.5t48 7.5t54 -1
t39 -2z" />
    <glyph glyph-name="at" unicode="@" horiz-adv-x="701" 
d="M393 361q23 0 42.5 -10t41.5 -15l5 6h-1q5 7 11.5 11.5t14.5 4.5q14 0 21.5 -9.5t7.5 -22.5q0 -19 -10.5 -54t-24.5 -74t-27.5 -77.5t-19.5 -63.5q5 -9 13.5 -14t18.5 -5q30 0 54 20t41 48.5t26 61t9 57.5q0 44 -13.5 89t-39 81t-63.5 59t-87 23q-73 0 -131.5 -25.5
t-100 -70t-63.5 -105.5t-22 -132q0 -56 18 -103t51 -81t79.5 -53.5t102.5 -19.5q62 0 107.5 18.5t77 41t50 41t27.5 18.5q8 0 14.5 -4.5t6.5 -13.5q0 -23 -17.5 -43.5t-45.5 -38t-63 -31.5t-69 -24t-64 -15t-48 -5q-65 0 -118.5 24.5t-92.5 66.5t-60.5 98t-21.5 119
q0 78 27.5 148.5t76 123t116 83.5t148.5 31q70 0 121 -23.5t84 -64.5t49 -97t16 -122q0 -49 -17 -91t-47 -73t-71.5 -48.5t-90.5 -17.5q-15 0 -28.5 6.5t-27.5 10.5q-16 -5 -31.5 -12.5t-32.5 -7.5q-75 0 -110 34t-35 110q0 44 16.5 86t45.5 74.5t68.5 52t85.5 19.5z
M242 143q0 -14 3 -30t10 -29.5t19 -22t29 -8.5q49 0 89 32v-1l32 88t24 91q-5 18 -21.5 26.5t-33.5 8.5q-29 0 -56 -13.5t-48 -35.5t-34 -50t-13 -56z" />
    <glyph glyph-name="Euro" unicode="&#x20ac;" horiz-adv-x="554" 
d="M211 346q28 0 55 3t55 3q5 0 12.5 -0.5t14 -2.5t11.5 -6t5 -12q0 -11 -6 -18t-6 -18q-24 5 -46 6.5t-46 1.5t-48 -2t-49 -2h-3v-17q0 -23 3 -42q6 -1 11 -1h9q28 0 55 3t55 3q5 0 12.5 -0.5t14 -2.5t11.5 -6t5 -12q0 -11 -6 -18t-6 -18q-24 5 -46 6.5t-46 1.5
q-15 0 -29.5 -1t-29.5 -2q22 -65 74.5 -102t133.5 -37q27 0 44.5 3.5t31.5 10t29 16t37 20.5q12 0 23 -5.5t11 -19.5q0 -19 -25.5 -33.5t-59 -24.5t-66 -15.5t-45.5 -5.5q-18 0 -31.5 3t-26 7.5t-25 10.5t-27.5 11q-54 19 -89.5 62t-52.5 97q-14 -2 -27 -3.5t-27 -1.5
q-11 0 -22.5 6t-11.5 18q0 19 24 25.5t54 6.5q-1 7 -1 14v14v23h-15q-11 0 -22.5 6t-11.5 18q0 15 16.5 22t39.5 9q14 80 55 152t103 124q53 43 109.5 57.5t123.5 14.5q15 0 34 -5t38 -14t35 -20.5t24 -24.5q4 -3 9 -11t8 -17.5t4 -18.5t-2 -14q-6 -9 -18.5 -9.5t-20.5 5.5
q-8 5 -14 14t-11 18q-24 23 -59 32t-82 9q-54 0 -99.5 -26.5t-81 -68.5t-59.5 -94t-34 -103q14 -1 25.5 -1.5t18.5 -0.5z" />
    <glyph glyph-name="twosuperior" unicode="&#xb2;" horiz-adv-x="357" 
d="M353 693q28 0 56.5 -7.5t51.5 -23t37 -39.5t14 -56q0 -44 -16 -74t-42.5 -51.5t-59 -36t-65.5 -26.5q-26 -9 -51.5 -19t-48.5 -23.5t-42.5 -31t-32.5 -41.5q2 0 6.5 0.5t7.5 0.5q2 0 4.5 0.5t4.5 0.5q14 0 27.5 -3.5t26.5 -7.5h-1q9 -3 19 -5t21 -2q26 0 50.5 3.5
t47.5 17.5q7 5 10.5 12t6.5 15v-1q5 14 12.5 24t24.5 10q12 0 22 -9t10 -21q0 -32 -20 -52t-48.5 -31t-60 -15t-53.5 -4q-14 0 -26 2.5t-23 5.5q-11 2 -22.5 5t-20.5 3q-13 0 -24 -4.5t-20 -9.5q-14 -8 -24 -8q-13 0 -23 9t-10 22q0 25 11 45t24 39q19 27 42.5 46t48.5 33
t50.5 24t49.5 18q24 7 45.5 15t40 19.5t33 27.5t22.5 39q4 9 6.5 18t2.5 19q0 38 -28 58.5t-64 20.5q-20 0 -43 -4.5t-42 -14.5t-31.5 -27t-12.5 -41q0 -10 3 -19l2 -10t1 -11q0 -13 -7 -24.5t-23 -11.5q-22 0 -31 17t-9 34q0 41 14.5 71t39 50t58 30t71.5 10z" />
    <glyph glyph-name="threesuperior" unicode="&#xb3;" horiz-adv-x="345" 
d="M342 694q65 0 105.5 -29t40.5 -99q0 -18 -7.5 -33t-18 -28t-22.5 -23t-22 -17l-11 -8l6 -9q11 -19 17.5 -35t6.5 -42q0 -35 -14.5 -65.5t-38.5 -53.5t-56 -36.5t-66 -13.5q-26 0 -47.5 1.5t-41 7.5t-37.5 17t-36 31h1l-6 6q-6 6 -12 12.5t-6 17.5t6.5 19t14.5 12
q17 0 26.5 -7t18.5 -18q6 -8 14.5 -16t21 -14.5t31 -11t45.5 -4.5q22 0 44.5 7.5t39.5 22t28 34.5t11 44q0 22 -3.5 34.5t-9 20t-13 10.5t-16.5 6l1 -1q-9 3 -20 7.5t-22 15.5l-2 6t-1 5q0 18 15.5 24t38.5 11q14 3 29 7t27 12t20 21t8 34q0 27 -18.5 48t-47.5 21
q-27 0 -47.5 -5t-36 -12.5t-26 -16t-18.5 -15.5q-8 -8 -14 -12t-13 -4q-14 0 -19.5 9t-5.5 20q0 10 4.5 15.5t10.5 10.5q17 15 32.5 26t32 18.5t35.5 11t43 3.5z" />
    <glyph glyph-name="onesuperior" unicode="&#xb9;" horiz-adv-x="173" 
d="M336 692q10 0 16.5 -7.5t6.5 -16.5q0 -15 -5 -30t-10 -29v1q-10 -42 -24 -84.5t-28.5 -84.5t-28 -84t-22.5 -84q-3 -14 -5 -27.5t-7 -26.5t-17.5 -22t-26.5 -9q-9 0 -19 10.5t-10 19.5q0 11 4 22t9 21v-1q2 5 11 30.5t21 61t25 76t24 76t18.5 61t8.5 30.5q-8 -1 -18 -8.5
t-21 -16t-22.5 -15.5t-22.5 -7t-21.5 6.5t-10.5 18.5l6 15q46 29 83 52q16 10 31 19t27 16.5t19.5 12t8.5 4.5z" />
    <glyph glyph-name="onequarter" unicode="&#xbc;" horiz-adv-x="736" 
d="M221 695q10 0 16.5 -7.5t6.5 -16.5q0 -15 -5 -30t-10 -29v1q-10 -42 -24 -84.5t-28.5 -84.5t-28 -84t-22.5 -84q-3 -14 -5 -27.5t-7 -26.5t-17.5 -22t-26.5 -9q-9 0 -19 10.5t-10 19.5q0 11 4 22t9 21v-1q2 5 11 30.5t21 61t25 76t24 76t18.5 61t8.5 30.5q-8 -1 -18 -8.5
t-21 -16t-22.5 -15.5t-22.5 -7t-21.5 6.5t-10.5 18.5l6 15q46 29 83 52q16 10 31 19t27 16.5t19.5 12t8.5 4.5zM634 498q9 0 14.5 -6t5.5 -15q0 -16 -8 -26.5t-13 -24.5q-13 -31 -36 -69.5t-47 -76t-43.5 -69.5t-25.5 -51q5 -2 17 -2.5t26 -0.5h27h19h11t14.5 0.5t14 2.5
t8.5 5q8 13 13.5 38.5t13 51.5t19 47t31.5 26q11 -3 18.5 -10t7.5 -18q0 -17 -6 -33t-13.5 -31.5t-13.5 -31.5t-6 -33l6 -4l13 2q2 2 9.5 2h9.5q13 0 22.5 -9t9.5 -22q0 -14 -9.5 -21t-22.5 -9t-27 -1.5t-23 0.5t-13.5 -16.5t-9.5 -37t-14.5 -37t-27.5 -16.5q-12 0 -21 8.5
t-9 20.5q0 11 4 20.5t8.5 18.5l8.5 17t4 17q0 6 -10.5 7t-14.5 1q-33 0 -66 -4t-66 -4q-14 0 -29 7.5t-15 24.5q0 1 11.5 20t29 46.5t38.5 61t40 63.5t33 53.5t19 31.5v-1q4 8 10.5 22.5t14.5 29t18 25t21 10.5zM526 701h12t13.5 -2t11 -6.5t4.5 -12.5q0 -3 -16 -32.5
t-40 -73t-53 -95t-55.5 -98t-46.5 -83t-27 -50.5q-26 -54 -60 -104t-60 -104q-8 -17 -16.5 -32.5t-27.5 -23.5q-2 -1 -5.5 -2t-5.5 -1q-10 0 -21.5 8t-11.5 19q0 8 4.5 22t7.5 22q2 6 20 36t45 76.5t61.5 103.5t70 116t69.5 115t61.5 100l45 72t20.5 30z" />
    <glyph glyph-name="onehalf" unicode="&#xbd;" horiz-adv-x="834" 
d="M221 695q10 0 16.5 -7.5t6.5 -16.5q0 -15 -5 -30t-10 -29v1q-10 -42 -24 -84.5t-28.5 -84.5t-28 -84t-22.5 -84q-3 -14 -5 -27.5t-7 -26.5t-17.5 -22t-26.5 -9q-9 0 -19 10.5t-10 19.5q0 11 4 22t9 21v-1q2 5 11 30.5t21 61t25 76t24 76t18.5 61t8.5 30.5q-8 -1 -18 -8.5
t-21 -16t-22.5 -15.5t-22.5 -7t-21.5 6.5t-10.5 18.5l6 15q46 29 83 52q16 10 31 19t27 16.5t19.5 12t8.5 4.5zM526 701h12t13.5 -2t11 -6.5t4.5 -12.5q0 -3 -16 -32.5t-40 -73t-53 -95t-55.5 -98t-46.5 -83t-27 -50.5q-26 -54 -60 -104t-60 -104q-8 -17 -16.5 -32.5
t-27.5 -23.5q-2 -1 -5.5 -2t-5.5 -1q-10 0 -21.5 8t-11.5 19q0 8 4.5 22t7.5 22q2 6 20 36t45 76.5t61.5 103.5t70 116t69.5 115t61.5 100l45 72t20.5 30zM658 493q28 0 56.5 -7.5t51.5 -23t37 -39.5t14 -56q0 -44 -16 -74t-42.5 -51.5t-59 -36t-65.5 -26.5
q-26 -9 -51.5 -19t-48.5 -23.5t-42.5 -31t-32.5 -41.5q2 0 6.5 0.5t7.5 0.5q2 0 4.5 0.5t4.5 0.5q14 0 27.5 -3.5t26.5 -7.5h-1q9 -3 19 -5t21 -2q26 0 50.5 3.5t47.5 17.5q7 5 10.5 12t6.5 15v-1q5 14 12.5 24t24.5 10q12 0 22 -9t10 -21q0 -32 -20 -52t-48.5 -31t-60 -15
t-53.5 -4q-14 0 -26 2.5t-23 5.5q-11 2 -22.5 5t-20.5 3q-13 0 -24 -4.5t-20 -9.5q-14 -8 -24 -8q-13 0 -23 9t-10 22q0 25 11 45t24 39q19 27 42.5 46t48.5 33t50.5 24t49.5 18q24 7 45.5 15t40 19.5t33 27.5t22.5 39q4 9 6.5 18t2.5 19q0 38 -28 58.5t-64 20.5
q-20 0 -43 -4.5t-42 -14.5t-31.5 -27t-12.5 -41q0 -10 3 -19l2 -10t1 -11q0 -13 -7 -24.5t-23 -11.5q-22 0 -31 17t-9 34q0 41 14.5 71t39 50t58 30t71.5 10z" />
    <glyph glyph-name="threequarters" unicode="&#xbe;" horiz-adv-x="939" 
d="M837 498q9 0 14.5 -6t5.5 -15q0 -15 -11.5 -39t-28.5 -53t-38 -61t-40.5 -62.5t-34.5 -57t-20 -44.5q11 -3 30 -3h31q6 0 17.5 -0.5t23.5 0t22 2.5t13 6q12 14 16.5 39t10.5 50.5t16.5 46.5t33.5 27q10 -3 18 -10t8 -18q0 -17 -6 -33t-13.5 -31.5t-13.5 -31.5t-6 -33
l6 -4q8 2 16 3t16 1q13 0 22.5 -9t9.5 -22q0 -14 -9.5 -21t-22.5 -9t-27 -1.5t-23 0.5t-13.5 -16.5t-9.5 -37t-14.5 -37t-27.5 -16.5q-12 0 -21 8.5t-9 20.5q0 10 4 19.5t8.5 18t8.5 17.5t4 18q0 5 -10.5 6.5t-14.5 1.5q-33 0 -66 -4t-66 -4q-14 0 -29 7.5t-15 24.5
q43 69 87.5 137t83.5 139v-1q4 9 10.5 23.5t14.5 28.5t18 24.5t21 10.5zM729 701q5 1 12 0.5t13.5 -2.5t11 -6.5t4.5 -12.5q0 -6 -13.5 -33t-36 -67.5t-51.5 -91t-60.5 -104.5l-63 -108t-58 -100.5t-46.5 -82t-29 -53.5l-9 -18t-11.5 -19t-15 -15.5t-19.5 -6.5
q-10 0 -21.5 8t-11.5 19q0 10 4 22.5t8 21.5q3 7 20.5 38t44.5 76.5t60.5 101.5t68.5 114t69 113.5t61.5 99.5t46 72.5t22.5 33.5zM331 694q32 0 59 -7t46.5 -22t30 -39.5t10.5 -59.5q0 -18 -7.5 -34t-19.5 -29.5t-26.5 -24.5t-27.5 -21q14 -19 22 -41t8 -45
q0 -35 -14.5 -65.5t-39 -53.5t-56 -36.5t-65.5 -13.5q-50 0 -88.5 9.5t-73.5 47.5h1l-16 16t-8 20q0 10 6 18.5t15 12.5q20 0 30.5 -11t24 -24.5t36 -24.5t66.5 -11q22 0 44.5 7.5t39.5 22t28 34.5t11 44q0 29 -6.5 46t-35.5 25l1 -1q-26 8 -42 23q-1 2 -2 5.5t-1 5.5
q0 13 10 20t25.5 11t33.5 7.5t33.5 11t25.5 21.5t10 38q0 27 -19 48t-47 21q-38 0 -64 -10t-43.5 -22.5t-28.5 -22.5t-19 -10q-14 0 -19.5 8.5t-5.5 20.5q0 19 19 34.5t44.5 26.5t52.5 17.5t42 6.5z" />
    <glyph glyph-name="periodcentered" unicode="&#xb7;" horiz-adv-x="178" 
d="M169 402q10 0 20.5 -3.5t15.5 -13.5q0 -10 -3.5 -24t-10.5 -26.5t-16.5 -21t-21.5 -8.5q-17 0 -22 10.5t-5 24.5q0 10 2.5 21t7.5 20t13 15t20 6z" />
    <glyph glyph-name="divide" unicode="&#xf7;" horiz-adv-x="374" 
d="M282 511q10 0 20.5 -3.5t15.5 -13.5q0 -10 -3.5 -24t-10.5 -26.5t-16.5 -21t-21.5 -8.5q-17 0 -22 10.5t-5 24.5q0 10 2.5 21t7.5 20t13 15t20 6zM212 222q10 0 20.5 -3.5t15.5 -13.5q0 -10 -3.5 -24t-10.5 -26.5t-16.5 -21t-21.5 -8.5q-17 0 -22 10.5t-5 24.5
q0 10 2.5 21t7.5 20t13 15t20 6zM245 343q28 0 55 3t55 3q5 0 12.5 -0.5t14 -2.5t11.5 -6t5 -12q0 -11 -6 -18t-6 -18q-24 5 -46 6.5t-46 1.5t-48 -2t-49 -2q-20 0 -40 -3t-40 -3q-11 0 -22.5 6t-11.5 18q0 18 21 24.5t48 7.5t54 -1t39 -2z" />
    <glyph glyph-name="uni00AD" unicode="&#xad;" horiz-adv-x="408" 
d="M245 343q28 0 55 3t55 3q5 0 12.5 -0.5t14 -2.5t11.5 -6t5 -12q0 -11 -6 -18t-6 -18q-24 5 -46 6.5t-46 1.5t-48 -2t-49 -2q-20 0 -40 -3t-40 -3q-11 0 -22.5 6t-11.5 18q0 18 21 24.5t48 7.5t54 -1t39 -2z" />
    <glyph glyph-name="degree" unicode="&#xb0;" horiz-adv-x="304" 
d="M147 624q11 34 35 61.5t61 32.5q23 3 41 -4.5t29.5 -22.5t15.5 -35.5t-1 -41.5q-7 -28 -25 -47.5t-39.5 -30t-44.5 -11t-41 10t-27 32t-4 56.5zM187 621q-5 -35 8.5 -47.5t32.5 -8.5t37.5 20t23.5 39q3 15 0 27t-11 19.5t-20 8.5t-26 -6q-19 -9 -29.5 -24t-16.5 -35z" />
    <glyph glyph-name="exclamdown" unicode="&#xa1;" horiz-adv-x="178" 
d="M240 437q-10 0 -20.5 3.5t-15.5 13.5q0 10 3.5 24t10.5 26.5t16.5 21t21.5 8.5q17 0 22 -10.5t5 -24.5q0 -10 -2.5 -21t-7.5 -20t-13 -15t-20 -6zM20 -192q-7 5 -14 9.5t-7 13.5q0 11 3.5 25t8 29t9.5 29t8 26q7 23 11 36.5t6.5 21t4.5 13t4 13.5t6 21t10 37
q12 44 29 85.5t27 86.5q5 19 6.5 38.5t9.5 37.5q6 15 21 25.5t31 10.5q9 0 19 -11t10 -20q0 -20 -11 -41t-18 -40q-13 -37 -22 -64.5t-16 -49.5t-13 -42t-13 -42t-16 -49.5t-22 -64.5q-2 -33 -10.5 -60.5t-20 -45.5t-23 -26t-18.5 -2z" />
    <glyph glyph-name="questiondown" unicode="&#xbf;" horiz-adv-x="497" 
d="M328 359q9 0 19 -11t10 -20q0 -20 -8 -42.5t-21 -38.5q-24 -29 -47.5 -45.5t-46.5 -27t-44.5 -19t-41 -21.5t-36 -34t-29.5 -57q-5 -14 -9 -28t-4 -29q0 -61 32.5 -97t89.5 -36q31 0 65.5 7t63.5 23t48 42t19 64q0 14 -4 28.5t-4 28.5t7 26.5t24 12.5q12 0 20.5 -5.5
t14 -14.5t8 -19.5t2.5 -20.5q0 -56 -19.5 -97t-53.5 -68t-79.5 -40.5t-97.5 -13.5q-38 0 -73 11.5t-62 34t-43 55t-16 75.5q0 55 16.5 92t42.5 62.5t58.5 44t63.5 38t58 42.5t42 58q7 15 13 27.5t22 12.5zM350 431q-10 0 -20.5 3.5t-15.5 13.5q0 10 3.5 24t10.5 26.5
t16.5 21t21.5 8.5q17 0 22 -10.5t5 -24.5q0 -10 -2.5 -21t-7.5 -20t-13 -15t-20 -6z" />
    <glyph glyph-name="guilsinglleft" unicode="&#x2039;" horiz-adv-x="358" 
d="M100 309q5 5 17 20.5t29.5 35.5t39 41.5t45 40t48.5 30t49 11.5q11 0 23 -4t12 -18q0 -9 -7 -14t-16.5 -7t-19.5 -3.5t-16 -4.5q-5 -3 -20.5 -17t-35.5 -34t-42 -43.5t-40.5 -44.5t-30.5 -36.5t-12 -20.5q0 -8 8.5 -33.5t19.5 -55t21.5 -56t15.5 -35.5q0 -6 5 -11t11 -5
q8 0 15.5 3.5t15 8t15 8t15.5 3.5t14 -5.5t6 -13.5q0 -12 -10 -22t-23.5 -16.5t-28 -10.5t-24.5 -4q-24 0 -39.5 11t-26 29t-17.5 40t-13 44t-12.5 41.5t-16.5 31.5q1 5 -0.5 6.5t-4 5.5t-5.5 12t-5 27q-1 7 3.5 16.5t11.5 18.5t14 17t12 13z" />
    <glyph glyph-name="guilsinglright" unicode="&#x203a;" horiz-adv-x="363" 
d="M334 465q0 -11 -7.5 -16.5t-16.5 -8.5t-16.5 -6t-7.5 -9q0 -8 6 -24t14 -34t17 -34t15 -24q3 -4 10.5 -16t0.5 -30q-3 -8 -11 -19.5t-17 -23t-17.5 -22.5t-13.5 -17q-24 -22 -53 -55t-60.5 -64t-65 -53t-67.5 -22q-15 0 -30 6q-5 5 -8 10t-3 12q0 2 1 5t2 5
q3 7 12.5 10.5t21.5 5t23.5 3t18.5 5.5t24.5 20t39.5 37t45.5 45.5t43.5 46.5t32.5 38t12.5 21q0 13 -10.5 39t-23 55t-23 55.5t-10.5 40.5q0 15 6.5 23t17 12.5t23 5.5t23.5 1h15.5t16.5 -2.5t13.5 -7.5t5.5 -14z" />
    <glyph glyph-name="guillemotright" unicode="&#xbb;" horiz-adv-x="564" 
d="M530 463q0 -11 -7.5 -16.5t-16.5 -8.5t-16.5 -6t-7.5 -9q0 -8 6 -24t14 -34t17 -34t15 -24q3 -4 10.5 -16t0.5 -30q-3 -8 -11 -19.5t-17 -23t-17.5 -22.5t-13.5 -17q-24 -22 -53 -55t-60.5 -64t-65 -53t-67.5 -22q-15 0 -30 6q-5 5 -8 10t-3 12q0 2 1 5t2 5
q3 7 12.5 10.5t21.5 5t23.5 3t18.5 5.5t24.5 20t39.5 37t45.5 45.5t43.5 46.5t32.5 38t12.5 21q0 13 -10.5 39t-23 55t-23 55.5t-10.5 40.5q0 15 6.5 23t17 12.5t23 5.5t23.5 1h15.5t16.5 -2.5t13.5 -7.5t5.5 -14zM334 465q0 -11 -7.5 -16.5t-16.5 -8.5t-16.5 -6t-7.5 -9
q0 -8 6 -24t14 -34t17 -34t15 -24q3 -4 10.5 -16t0.5 -30q-3 -8 -11 -19.5t-17 -23t-17.5 -22.5t-13.5 -17q-24 -22 -53 -55t-60.5 -64t-65 -53t-67.5 -22q-15 0 -30 6q-5 5 -8 10t-3 12q0 2 1 5t2 5q3 7 12.5 10.5t21.5 5t23.5 3t18.5 5.5t24.5 20t39.5 37t45.5 45.5
t43.5 46.5t32.5 38t12.5 21q0 13 -10.5 39t-23 55t-23 55.5t-10.5 40.5q0 15 6.5 23t17 12.5t23 5.5t23.5 1h15.5t16.5 -2.5t13.5 -7.5t5.5 -14z" />
    <glyph glyph-name="guillemotleft" unicode="&#xab;" horiz-adv-x="504" 
d="M282 309q5 5 17 20.5t29.5 35.5t39 41.5t45 40t48.5 30t49 11.5q11 0 23 -4t12 -18q0 -9 -7 -14t-16.5 -7t-19.5 -3.5t-16 -4.5q-5 -3 -20.5 -17t-35.5 -34t-42 -43.5t-40.5 -44.5t-30.5 -36.5t-12 -20.5q0 -8 8.5 -33.5t19.5 -55t21.5 -56t15.5 -35.5q0 -6 5 -11t11 -5
q8 0 15.5 3.5t15 8t15 8t15.5 3.5t14 -5.5t6 -13.5q0 -12 -10 -22t-23.5 -16.5t-28 -10.5t-24.5 -4q-24 0 -39.5 11t-26 29t-17.5 40t-13 44t-12.5 41.5t-16.5 31.5q1 5 -0.5 6.5t-4 5.5t-5.5 12t-5 27q-1 7 3.5 16.5t11.5 18.5t14 17t12 13zM100 309q5 5 17 20.5t29.5 35.5
t39 41.5t45 40t48.5 30t49 11.5q11 0 23 -4t12 -18q0 -9 -7 -14t-16.5 -7t-19.5 -3.5t-16 -4.5q-5 -3 -20.5 -17t-35.5 -34t-42 -43.5t-40.5 -44.5t-30.5 -36.5t-12 -20.5q0 -8 8.5 -33.5t19.5 -55t21.5 -56t15.5 -35.5q0 -6 5 -11t11 -5q8 0 15.5 3.5t15 8t15 8t15.5 3.5
t14 -5.5t6 -13.5q0 -12 -10 -22t-23.5 -16.5t-28 -10.5t-24.5 -4q-24 0 -39.5 11t-26 29t-17.5 40t-13 44t-12.5 41.5t-16.5 31.5q1 5 -0.5 6.5t-4 5.5t-5.5 12t-5 27q-1 7 3.5 16.5t11.5 18.5t14 17t12 13z" />
    <glyph glyph-name="bracketleft" unicode="[" horiz-adv-x="276" 
d="M229 695q17 -1 31.5 -2t28.5 3q20 5 40 5.5t40 0.5q11 0 22.5 -6t11.5 -18q0 -15 -16 -22t-38.5 -9.5t-47 -1t-42.5 2.5l-16 -56t-22.5 -75.5t-25.5 -83.5t-24 -80t-19 -64.5t-11 -37.5q-6 -26 -16 -63.5t-21.5 -77.5t-22.5 -79t-18 -67q-1 -2 -1 -7q17 2 33.5 3t33.5 1
q5 0 12.5 -0.5t14 -2.5t11.5 -6t5 -12q0 -14 -1.5 -24.5t-10.5 -11.5q-24 5 -46 6.5t-46 1.5h-20t-11 -2q-2 -1 -4.5 -2t-4.5 -1q-8 0 -19 8t-13 19t0.5 21t3.5 21q9 32 22.5 77t28.5 93.5t30.5 98t28.5 91.5t22.5 72.5t12.5 42.5q2 9 8 29t14 46t17 54t17.5 52t15.5 41.5
t12 21.5z" />
    <glyph glyph-name="bracketright" unicode="]" horiz-adv-x="276" 
d="M355 695h4q8 0 12 -1q7 -2 12.5 -6t7.5 -14q0 -3 -8 -32t-20.5 -72t-28 -94t-29.5 -97t-24.5 -81t-13.5 -47q-6 -26 -16 -63.5t-21.5 -77.5t-22.5 -79t-18 -67q-3 -14 -7.5 -31t-18.5 -23q-2 -1 -4.5 -2t-4.5 -1q-29 0 -62.5 -1.5t-64.5 -1.5q-11 0 -22.5 6t-11.5 18
q0 14 13.5 21t33.5 9.5t42.5 2t41.5 -1.5q1 5 1.5 8.5t0.5 8.5q9 32 22.5 77t28.5 93.5t30.5 98t28.5 91.5t22.5 72.5t12.5 42.5q3 9 9.5 32.5t15.5 52t18.5 59t18.5 54.5q-17 -2 -33 -3t-33 -1q-5 0 -12.5 0.5t-14.5 2.5t-11.5 6t-4.5 12q0 11 6 18t6 18q24 -5 46 -7t46 -1
l25 1h2z" />
    <glyph glyph-name="asciitilde" unicode="~" horiz-adv-x="549" 
d="M111 235q-2 -17 -9 -31.5t-21 -14.5q-13 0 -21 7t-8 20q0 14 2 23.5t7 22.5q10 39 29 62.5t44.5 33.5t56.5 9t65 -10q2 -1 20.5 -11t45.5 -26t58 -34.5t59 -34.5t48 -28t24 -15q2 8 -1 26.5t-7 39.5t-7 39.5t0 27.5q3 12 13.5 18t22.5 2q9 -2 16 -24.5t11 -50t5.5 -53
t-0.5 -32.5q-3 -12 -9 -23.5t-15 -20t-20.5 -12.5t-25.5 0q-30 8 -63 30t-69 47t-74.5 48t-78.5 34q-26 7 -55 -2.5t-37 -38.5q-4 -13 -6 -28z" />
    <glyph glyph-name="multiply" unicode="&#xd7;" horiz-adv-x="491" 
d="M315 175q11 -23 18.5 -44.5t11.5 -29.5q0 -6 5 -11t11 -5q8 0 15.5 3.5t15 8t15 8t15.5 3.5t14 -5.5t6 -13.5q0 -12 -10 -22t-23.5 -16.5t-28 -10.5t-24.5 -4q-21 0 -35 7.5t-24 20t-17 28.5t-12 33q-1 3 -5 7l-16 7l-8 -3l-4.5 -4.5t-6.5 -4.5q-37 -39 -77 -69.5
t-81 -30.5q-15 0 -30 6q-11 11 -11 22q0 2 1 5t2 5q3 7 12.5 10.5t21.5 5t23.5 3t18.5 5.5q5 3 16 12.5t25 23t30.5 29.5t33.5 33v-1q16 21 16 26q0 9 -5.5 24.5t-13.5 34.5q-11 21 -17.5 39t-6.5 29q0 15 6.5 23t17 12.5t23 5.5t23.5 1h15.5t16.5 -2.5t13.5 -7.5t5.5 -14
q0 -11 -7.5 -16.5t-16.5 -8.5t-16.5 -6t-7.5 -9q0 -4 1 -9.5t3 -13.5q5 -14 11 -22t13 -8q6 0 24 16v1q30 33 65.5 59.5t70.5 26.5q11 0 23 -4t12 -18q0 -9 -7 -14t-16.5 -7t-19.5 -3.5t-16 -4.5q-7 -4 -29.5 -25.5t-50.5 -50.5q-15 -16 -24 -28t-9 -16q0 -3 1 -8.5t4 -12.5
z" />
    <glyph glyph-name="logicalnot" unicode="&#xac;" horiz-adv-x="492" 
d="M309 342q28 0 55 3t55 3q5 0 12.5 -0.5t14 -2.5t11.5 -6t5 -12q0 -12 -9 -35.5t-22.5 -47.5t-28.5 -43.5t-27 -24.5q-10 -3 -22.5 1.5t-7.5 13.5q7 13 19.5 31.5t23 36t15 29t-3.5 10.5q-11 1 -20.5 1h-20.5q-12 0 -34 -0.5t-46 -1t-46.5 -1t-34.5 -0.5q-20 0 -40 -3
t-40 -3q-11 0 -22.5 6t-11.5 18t14.5 18.5t37 9.5t49.5 3.5t52 -0.5t45 -2t28 -1z" />
    <glyph glyph-name="ordfeminine" unicode="&#xaa;" horiz-adv-x="410" 
d="M283 660q32 0 56 -12t39 -34q2 11 9 23.5t21 9.5q11 -3 16 -10.5t16 -10.5q-26 -59 -38.5 -116.5t-28.5 -116.5q-5 -20 -7 -40t-7 -39q-3 -10 -11.5 -20t-20.5 -7t-16.5 14.5t-2.5 28.5q-23 -18 -51.5 -28.5t-61.5 -10.5q-57 0 -92 34.5t-35 91.5q0 12 1.5 29.5t4.5 35.5
t9 33.5t15 24.5q26 58 73.5 89t111.5 31zM129 443q0 -15 4 -32.5t12 -32.5t20.5 -25t30.5 -10q31 0 58 15.5t47 39.5t31.5 54t11.5 60q0 19 -5 37.5t-15 33.5t-25.5 24t-37.5 9q-27 0 -51 -18t-42 -44.5t-28.5 -56.5t-10.5 -54zM146 208q11 0 40 0.5t59 -1t53.5 -5.5
t23.5 -12q0 -10 -20.5 -16t-51 -10t-66.5 -5.5t-67.5 -2t-54 -0.5h-24.5q-7 0 -17.5 6t-10.5 14q0 13 17.5 19.5t40.5 9.5t45.5 3h32.5z" />
    <glyph glyph-name="trademark" unicode="&#x2122;" horiz-adv-x="968" 
d="M506 697q8 0 15 -4.5t7 -14.5q0 -8 -11 -14.5t-25.5 -12t-28 -8.5t-19.5 -3q-14 0 -30 2t-30 4t-26 3.5t-23 1.5h-43q-30 0 -55 -12t-42.5 -32t-27.5 -46t-10 -55q0 -9 3.5 -19t10 -19t15 -15t17.5 -6h36q6 0 14 3.5t16 7.5h-1q8 4 14.5 7t12.5 3q9 0 16.5 -5.5
t7.5 -15.5q0 -12 -12.5 -21t-29 -14t-32.5 -7.5t-24 -2.5q-51 0 -83 29.5t-32 80.5q0 43 17 77t45.5 57.5t65.5 36t77 12.5q17 0 32 -2t31 -4q15 -2 30.5 -4t29.5 -2t25.5 2.5t21.5 5.5q15 6 25 6zM409 609q12 0 18.5 -5t6.5 -19q0 -2 -5.5 -20.5t-13.5 -45t-18 -57.5
t-19 -58t-15.5 -46t-8.5 -21v1l-8 -13q-4 -7 -8 -13.5t-9 -11.5q-9 -9 -29.5 -15t-32.5 -6q-7 0 -19 2.5t-24 7t-20.5 12t-8.5 16.5q0 12 10.5 15.5t17.5 3.5t12.5 -1.5t12.5 -3.5q5 -2 10.5 -3.5t12.5 -1.5q14 0 25.5 11.5t15.5 24.5q3 10 4 15t1.5 8t1.5 7.5t5 15.5
q4 10 12 32t16 47t14.5 48t8.5 36q2 8 7 21t16 16q3 1 11 1zM814 694q10 0 18.5 -7t8.5 -18q0 -8 -6.5 -13.5t-11.5 -9.5q-2 0 -5.5 -0.5t-3.5 -2.5q0 -14 7 -31q7 -16 9 -33q4 -27 4.5 -55t0.5 -56q6 8 12.5 18t14.5 21q19 29 42 62t49 60.5t54 46t57 18.5q11 0 23.5 -3.5
t12.5 -20.5q0 -11 -8 -15t-19 -6q-5 -2 -10 -3t-7 -3t-7 -15t-11.5 -32.5t-14 -42.5t-13.5 -43t-10 -34t-4 -17q0 -6 -5.5 -21.5t-13.5 -34.5q-10 -23 -19 -46.5t-9 -34.5v-1q0 -1 1 -2q4 0 6.5 3t6.5 6q5 5 11.5 9.5t17.5 4.5q9 0 17.5 -6t8.5 -17q0 -10 -10.5 -19
t-24 -15.5t-28 -10t-21.5 -3.5q-14 0 -25.5 13.5t-11.5 27.5q0 3 6 22.5t15 48t20 61.5t21.5 63t18.5 53t11 31q0 1 -0.5 2.5t0.5 2.5q-8 -1 -22 -20t-27 -38q-3 -5 -7 -9.5t-7 -9.5q-4 -5 -7 -10h1q-23 -26 -39.5 -57.5t-31.5 -63.5q-6 -12 -9.5 -23.5t-7.5 -22.5v1
q-5 -16 -9.5 -31t-12.5 -27q-11 -21 -31 -21q-8 0 -16.5 6.5t-8.5 15.5q0 14 4 27.5t9 27.5q8 20 11 40q5 35 7 69t2 69q0 9 -1.5 20.5t-3.5 23.5q-2 8 -2.5 15t-1.5 14l-2 3q-5 -6 -15 -32t-20 -57.5t-19 -60.5t-12 -41l-3 -15q-3 -15 -7.5 -30t-14.5 -29q-9 -12 -21 -23.5
t-26.5 -21t-29.5 -15.5t-30 -6q-8 0 -23 2t-30 6.5t-26 12.5t-11 19t7 16.5t17 5.5q9 0 17 -3l16 -6q9 -4 18 -7t20 -3q13 0 24.5 8t21 19.5t16.5 25t10 24.5l3.5 10.5t6.5 15.5q5 12 8.5 23.5t3.5 13.5q0 6 -4 6t-9 -3t-11 -5q-17 -10 -31 -10h-46q-15 0 -30.5 9t-27.5 23
t-20 30t-8 31q0 16 4 29.5t11 27.5l5 9q3 5 5.5 11t7.5 12q24 25 60.5 40t77 23.5t81 11t72.5 2.5zM541 528q0 -21 16.5 -34.5t37.5 -13.5q10 0 18 3t16 7q8 5 16 7.5t17 2.5q5 0 12 -4t12 -8q6 11 15 33.5t17 46.5t13.5 44.5t5.5 27.5q0 5 -5.5 5.5t-10.5 0.5
q-28 0 -59.5 -6t-58.5 -20t-44.5 -36.5t-17.5 -55.5z" />
    <glyph glyph-name="plusminus" unicode="&#xb1;" horiz-adv-x="408" 
d="M247 442q1 5 3 12t6 13t9 9.5t13 1.5q10 -2 15.5 -10t16.5 -11q-11 -22 -18.5 -42.5t-13.5 -43.5q-2 -7 -3.5 -13.5t-3.5 -13.5q21 1 42 3t42 2q5 0 12.5 -0.5t14 -2.5t11.5 -6t5 -12q0 -11 -6 -18t-6 -18q-24 5 -46 6.5t-46 1.5q-8 0 -16 -0.5t-16 -0.5q-1 -10 -5 -23
q-5 -20 -7.5 -40t-7.5 -39q-3 -10 -12 -20t-20 -6q-13 3 -16.5 16.5t-1.5 31.5t7.5 38.5t11.5 38.5h-14q-20 0 -40 -3t-40 -3q-11 0 -22.5 6t-11.5 18q0 15 15.5 22t38 9t47 0.5t42.5 -2.5q6 25 10 50t11 49zM211 118q28 0 55 3t55 3q5 0 12.5 -0.5t14 -2.5t11.5 -6t5 -12
q0 -11 -6 -18t-6 -18q-24 5 -46 6.5t-46 1.5t-48 -2t-49 -2q-20 0 -40 -3t-40 -3q-11 0 -22.5 6t-11.5 18q0 18 21 24.5t48 7.5t54 -1t39 -2z" />
    <glyph glyph-name="L.alt" horiz-adv-x="712" 
d="M555 679q15 0 46.5 -6.5t63 -18t55.5 -28t24 -35.5q0 -8 -6 -17.5t-16 -9.5q-13 0 -29 11t-35.5 24.5t-43.5 25t-52 11.5q-82 0 -132.5 -27.5t-81.5 -73t-48.5 -105.5t-33.5 -126q-8 -29 -18 -50t-18 -46q-2 -8 -10.5 -24.5t-18 -34t-17 -31.5t-7.5 -15q0 -10 9 -19
q38 -15 73 -23.5t69.5 -13t70 -6t75.5 -1.5q21 0 45.5 9.5t46.5 25t36.5 36.5t14.5 45q0 26 -15.5 39.5t-41.5 13.5q-17 0 -27 -8t-19 -17t-19.5 -17t-26.5 -8q-17 0 -27.5 10t-10.5 27q7 12 23 23.5t34.5 20.5t37.5 14.5t33 5.5q22 0 44 -5t39 -16.5t27.5 -29.5t10.5 -44
q0 -45 -26.5 -78.5t-66 -56t-85 -33.5t-82.5 -11q-40 0 -83.5 7.5t-84 16t-75.5 16t-59 7.5q-16 0 -31.5 -5t-31.5 -5t-28 9t-16 24q2 9 21 21t43 27.5t48 36t36 47.5q18 39 29 73.5t19.5 67t17 65.5t22.5 70q18 48 49 87.5t72 68t89 44t99 15.5z" />
    <glyph glyph-name="sterling" unicode="&#xa3;" horiz-adv-x="754" 
d="M555 679q15 0 46.5 -6.5t63 -18t55.5 -28t24 -35.5q0 -8 -6 -17.5t-16 -9.5q-13 0 -29 11t-35.5 24.5t-43.5 25t-52 11.5q-76 0 -124.5 -23.5t-79.5 -63.5t-49 -93t-33 -112q20 1 39.5 3t39.5 2q5 0 12.5 -0.5t14 -2.5t11.5 -6t5 -12q0 -11 -6 -18t-6 -18q-24 5 -46 6.5
t-46 1.5h-15t-15 -1q-5 -18 -11.5 -33t-12.5 -30q22 2 43 4t44 2q5 0 12.5 -0.5t14 -2.5t11.5 -6t5 -12q0 -11 -6 -18t-6 -18q-24 5 -46 6.5t-46 1.5q-11 0 -21.5 -0.5t-21.5 -1.5q-6 -12 -13.5 -26.5t-15 -28t-12.5 -23t-5 -10.5q0 -10 9 -19q38 -15 73 -23.5t69.5 -13
t70 -6t75.5 -1.5q16 0 24.5 2.5t15.5 6t14.5 8.5t21.5 11q28 12 47.5 33.5t19.5 54.5q0 26 -15.5 39.5t-41.5 13.5q-17 0 -27 -8t-19 -17t-19.5 -17t-26.5 -8q-17 0 -27.5 10t-10.5 27q7 12 23 23.5t34.5 20.5t37.5 14.5t33 5.5q22 0 44 -5t39 -16.5t27.5 -29.5t10.5 -44
q0 -45 -26.5 -78.5t-66 -56t-85 -33.5t-82.5 -11q-40 0 -83.5 7.5t-84 16t-75.5 16t-59 7.5q-16 0 -31.5 -5t-31.5 -5t-28 9t-16 24q2 9 21 21t43 27.5t48 36t36 47.5v1q-17 -1 -34.5 -3.5t-34.5 -2.5q-11 0 -22.5 6t-11.5 18q0 13 12.5 20t31 10t40 2.5t40.5 -1.5
q11 32 18 58q-20 0 -40 -3t-40 -3q-11 0 -22.5 6t-11.5 18q0 13 13 20t32.5 10t41.5 2.5t41 -1.5q8 29 15.5 58t19.5 61q18 48 49 87.5t72 68t89 44t99 15.5z" />
    <glyph glyph-name="section" unicode="&#xa7;" horiz-adv-x="525" 
d="M393 54q0 -40 -18.5 -69t-47 -47.5t-63 -27.5t-66.5 -9q-13 0 -40.5 4.5t-55.5 14t-49.5 24t-21.5 33.5q0 14 12 22t23 8q6 0 17.5 -6.5t24.5 -14.5v1q11 -6 20.5 -12t16.5 -8q14 -3 30 -3.5t30 -0.5h10q8 0 15 2t15 5l28 10q11 3 19 6.5t15 10.5t12 18.5t10 30.5
q-6 31 -27.5 44.5t-49.5 20.5q-11 1 -19 3t-15 4h1q-28 5 -55 12t-48.5 22.5t-35 43t-13.5 73.5q0 36 11.5 66t31.5 54.5t47 42.5t57 29q-12 14 -19.5 31t-7.5 38q0 40 18.5 69t47 48t63 27.5t66.5 8.5q13 0 40.5 -4.5t55.5 -14t49 -24t21 -33.5q0 -14 -12 -22t-23 -8
q-5 0 -16.5 6.5t-24.5 14.5v-1q-11 6 -21 12t-16 8q-14 3 -30.5 3.5t-30.5 0.5h-9q-9 0 -16 -2t-15 -5l-28 -9q-21 -8 -33.5 -20.5t-21.5 -47.5q6 -32 30 -45t53 -21q5 -1 10.5 -1.5t10.5 -2.5q27 -5 55 -12.5t50.5 -23t37 -43t14.5 -73.5q0 -36 -11.5 -66.5t-31.5 -55
t-46.5 -42.5t-56.5 -28q12 -14 19.5 -31t7.5 -38zM284 412q-26 -2 -53 -12t-49.5 -28t-37 -42t-14.5 -53q0 -38 15.5 -59.5t39.5 -32t51.5 -13.5t51.5 -4h11q25 0 52 11t49 29.5t36 44t14 54.5q0 41 -21.5 62.5t-49.5 31.5t-55.5 11t-39.5 0z" />
    <glyph glyph-name="braceleft" unicode="{" horiz-adv-x="223" 
d="M39 322q-5 2 -8 9t-3 15t3 15t9 10h-1q27 15 44 39t27.5 53.5t16 61.5t10.5 63q2 15 4.5 32t5.5 31q6 27 13 52t19.5 45.5t32 34.5t50.5 19q13 -1 21 -8.5t9.5 -16.5t-4 -18.5t-17.5 -14.5h-8q-11 -2 -17 -5q-11 -7 -18.5 -20t-12.5 -28.5t-8 -32t-5 -31.5q0 -4 -1 -9
t-1 -8l-6 -37q-6 -32 -12 -63t-16 -60t-25.5 -55t-39.5 -48l11 -12q17 -19 23.5 -48t6.5 -61q0 -38 -5.5 -78t-11.5 -72l-6 -30q0 -3 -1 -8t-1 -7q-2 -15 -5 -32.5t-3 -31.5q0 -23 11 -44l-2 2l1 -2l7 -2q13 -6 18 -17t2.5 -20.5t-12 -15.5t-23.5 -2q-35 14 -46.5 41
t-11.5 57q0 11 0.5 20.5t1.5 18.5q2 16 4.5 34t5.5 37q7 35 13 73t6 72q0 24 -4 45t-15 35q-4 8 -8.5 11t-9.5 7z" />
    <glyph glyph-name="braceright" unicode="}" horiz-adv-x="223" 
d="M254 367q5 -7 8.5 -10t8.5 -6l8 -6q5 -2 8.5 -9t3.5 -15t-2.5 -15t-9.5 -10h1q-27 -15 -43.5 -39t-27 -53.5t-16.5 -61.5t-11 -62q-2 -16 -4.5 -32.5t-5.5 -30.5q-5 -27 -12 -52t-19.5 -45.5t-32.5 -34.5t-50 -19q-14 1 -21.5 8.5t-9 16.5t3.5 18t17 14q1 0 3.5 0.5
t4.5 0.5q5 1 8.5 2t7.5 3q12 7 19.5 20t13 28.5t8.5 32t5 31.5q0 4 1 8t1 8l6 37q5 31 11 62t16.5 60.5t26 56t38.5 48.5l-12 11q-17 19 -23 48t-6 61q0 39 6 79t12 72l6 30q0 3 0.5 8t0.5 7q2 15 5 32t3 32q0 11 -2 21.5t-7 21.5q-5 0 -7 2q-14 7 -18.5 18t-2.5 20.5
t11 15.5t24 2q36 -14 47.5 -41t11.5 -57q0 -11 -0.5 -21t-1.5 -18q-2 -17 -4.5 -34.5t-6.5 -36.5q-7 -35 -12.5 -73t-5.5 -72q0 -25 3.5 -46t14.5 -36z" />
    <glyph glyph-name="perthousand" unicode="&#x2030;" horiz-adv-x="1197" 
d="M263 700q22 0 42 -5.5t37 -18.5q24 -18 37.5 -34.5t20 -34.5t7.5 -40t1 -51q0 -41 -17.5 -85.5t-47.5 -81t-69 -60.5t-82 -24q-79 0 -118 44.5t-39 119.5q0 44 17.5 92t48.5 87.5t72.5 65.5t89.5 26zM92 393q7 -20 15 -35t19 -25t27 -15t40 -5q40 0 70 23.5t50 58t30 75
t10 73.5q0 18 -5 36t-14.5 33t-24.5 24t-34 9q-53 0 -88 -23t-56 -59t-30 -81t-9 -89zM600 701q6 0 13 -0.5t13 -2.5t10.5 -6t4.5 -12q0 -3 -16 -33t-40.5 -74t-54 -95.5t-56 -98.5t-46 -83t-25.5 -48q-26 -54 -59 -102t-61 -106q-8 -16 -17 -33t-27 -23q-2 -1 -5.5 -2
t-5.5 -1q-10 0 -21.5 8t-11.5 19t4.5 22t7.5 22q18 33 41 72t47 79.5t48.5 80t45.5 73t36 58.5t22 37q5 9 16.5 30t26.5 47t32 54.5t32 53.5t27.5 42.5t18.5 21.5zM1063 437q22 0 42 -5.5t37 -18.5q24 -18 37.5 -34.5t20 -34.5t7.5 -40t1 -51q0 -41 -17.5 -85.5t-47.5 -81
t-69 -60.5t-82 -24q-79 0 -118 44.5t-39 119.5q0 44 17.5 92t48.5 87.5t72.5 65.5t89.5 26zM892 130q7 -20 15 -35t19 -25t27 -15t40 -5q40 0 70 23.5t50 58t30 75t10 73.5q0 18 -5 36t-14.5 33t-24.5 24t-34 9q-53 0 -88 -23t-56 -59t-30 -81t-9 -89zM663 437q22 0 42 -5.5
t37 -18.5q24 -18 37.5 -34.5t20 -34.5t7.5 -40t1 -51q0 -41 -17.5 -85.5t-47.5 -81t-69 -60.5t-82 -24q-79 0 -118 44.5t-39 119.5q0 44 17.5 92t48.5 87.5t72.5 65.5t89.5 26zM492 130q7 -20 15 -35t19 -25t27 -15t40 -5q40 0 70 23.5t50 58t30 75t10 73.5q0 18 -5 36
t-14.5 33t-24.5 24t-34 9q-53 0 -88 -23t-56 -59t-30 -81t-9 -89z" />
    <glyph glyph-name="cent" unicode="&#xa2;" horiz-adv-x="433" 
d="M383 602q9 0 21.5 -2.5t14.5 -18.5q0 -3 -7 -28.5t-18 -63.5q27 -8 48 -16.5t25 -8.5q7 0 12.5 6.5t11.5 14t13.5 14t18.5 6.5q10 0 17 -12t7 -20q0 -6 -9 -37.5t-21 -67.5t-23 -66t-15 -33q-10 -8 -22 -8t-23 7t-11 21q0 12 5.5 25t12 26.5t12 27t5.5 26.5
q0 10 -7.5 17.5t-19.5 12.5t-26 7.5t-27 4.5q-12 -42 -25.5 -86.5t-25.5 -83.5t-20.5 -68.5t-11.5 -39.5q-6 -27 -14 -51.5t-17 -49.5q30 1 50.5 10t38 20t33 20t34.5 9q10 0 15 -10t5 -19q0 -15 -22.5 -30.5t-52.5 -28.5t-59.5 -21t-43.5 -8h-9t-8 1q-4 -11 -7 -22.5
t-6 -23.5q-3 -14 -7.5 -31t-18.5 -23q-2 -1 -4.5 -2t-4.5 -1q-8 0 -19 8t-13 19t0.5 21t3.5 21q3 11 6 23t7 24q-48 18 -79.5 58t-31.5 99q0 57 18 115.5t52 106t83.5 77.5t112.5 30h5q12 38 23 67.5t18 35.5zM137 189q0 -45 15.5 -75.5t47.5 -45.5q15 45 30.5 91t29.5 85.5
t24.5 69.5t14.5 44q2 9 8.5 30.5t14.5 47.5q-47 -5 -81.5 -27t-57.5 -56t-34.5 -76t-11.5 -88z" />
    <glyph glyph-name="yen" unicode="&#xa5;" horiz-adv-x="759" 
d="M594 214h18q6 16 10.5 31.5t9.5 31.5q-14 -1 -28.5 -2t-29.5 -1q-20 0 -40 -3t-40 -3q-11 0 -22.5 6t-11.5 18q0 18 21 24.5t48 7.5t54 -1t39 -2h13t13 1q15 40 30 91.5t30.5 103t31.5 98.5t32 78q4 8 10 14t15 6q11 0 17.5 -9t6.5 -19q0 -14 -5 -26t-4 -26l-4 4
q-11 -52 -29.5 -100.5t-34.5 -99.5q-9 -28 -18 -55.5t-19 -55.5q6 1 12.5 1h12.5q5 0 12.5 -0.5t14 -2.5t11.5 -6t5 -12q0 -11 -6 -18t-6 -18q-19 3 -36.5 5t-35.5 3q-5 -15 -9.5 -30t-9.5 -29q8 0 16 0.5t16 0.5q5 0 12.5 -0.5t14 -2.5t11.5 -6t5 -12q0 -11 -6 -18t-6 -18
q-13 -6 -23.5 -6.5t-19.5 1.5t-18 5.5t-18 5.5q-11 -34 -21 -68t-19 -68q-11 -39 -32.5 -74t-52 -61.5t-68 -41.5t-79.5 -15q-9 0 -26.5 0.5t-34.5 4t-30 11t-13 20.5t11 21t23 8q18 0 35.5 -3.5t35.5 -3.5q28 0 58.5 12t56 32t42 47.5t16.5 57.5q0 12 -10 17q-8 0 -21.5 -8
t-31.5 -17t-39 -16.5t-43 -7.5q-31 0 -58.5 10t-47.5 28.5t-32 45t-12 58.5q0 28 11 68.5t27 87t35 96t35 94t27 82t11 60.5q0 16 -18 16q-48 0 -93.5 -17t-81.5 -47.5t-57.5 -73t-21.5 -93.5q0 -44 15 -65.5t33.5 -33t33.5 -19t15 -22.5q0 -14 -9 -23.5t-23 -9.5
q-24 0 -47 14.5t-40 36.5t-27.5 47.5t-10.5 48.5q0 30 5.5 59t18.5 57q34 74 76 115.5t93.5 61t113.5 23.5t136 4q14 0 25 -10.5t11 -24.5q0 -13 -8 -17t-19 -5.5t-22.5 -2.5t-18.5 -8q-4 -4 -18 -40t-32.5 -88t-39 -112t-37.5 -113t-28 -91.5t-11 -45.5q0 -20 7 -37
t19.5 -29.5t29 -20t35.5 -7.5t44.5 9t50.5 22.5t46.5 30.5t33.5 33q-11 -1 -21 -1h-21q-20 0 -40 -3t-40 -3q-11 0 -22.5 6t-11.5 18q0 18 21 24.5t48 7.5t54 -1t39 -2z" />
    <glyph glyph-name="paragraph" unicode="&#xb6;" horiz-adv-x="410" 
d="M462 662h33t43.5 -1.5t38 -6t16.5 -12.5q0 -11 -28 -18t-67 -10q-5 -20 -15.5 -55t-22.5 -76t-25.5 -84.5t-25 -81.5t-20 -66t-10.5 -38q-6 -26 -13.5 -50.5t-16.5 -49t-17.5 -50.5t-15.5 -54q-3 -14 -7.5 -31t-18.5 -23q-2 -1 -4.5 -2t-4.5 -1q-8 0 -19 8t-13 19t0.5 21
t3.5 21q13 49 33.5 109.5t40 117.5t35.5 102t21 63q3 9 9.5 32t15.5 51.5t18.5 59t18.5 54.5q-23 -1 -43.5 -1.5t-39.5 -0.5q-5 -18 -15 -52.5t-22.5 -76t-26 -86t-25 -83.5t-20.5 -68t-11 -40q-6 -26 -13.5 -50.5t-16.5 -49t-17.5 -50.5t-15.5 -54q-3 -14 -7.5 -31
t-18.5 -23q-2 -1 -4.5 -2t-4.5 -1q-8 0 -19 8t-13 19t0.5 21t3.5 21q8 30 19.5 66t23.5 73t25 73.5t24 68.5h-13q-57 0 -92 34.5t-35 91.5q0 12 1.5 29.5t4.5 35.5t9 33.5t15 24.5q26 58 73.5 89t111.5 31q12 0 27 -5q15 -4 39 -3.5t47.5 3t42 5t23.5 2.5zM261 616
q-27 0 -51 -18t-42 -44.5t-28.5 -56.5t-10.5 -54q0 -15 4 -32.5t12 -32.5t20.5 -25t30.5 -10q19 0 32 4q7 19 11.5 33t6.5 22q3 10 10 35t16.5 55.5t20 62t19.5 54.5q-11 1 -23.5 4t-27.5 3z" />
    <glyph glyph-name="mu" unicode="&#xb5;" horiz-adv-x="532" 
d="M20 -192q-7 5 -14 9.5t-7 13.5q0 11 3.5 25t8 29t9.5 29t8 26q7 23 11 36.5t6.5 21t4.5 13t4 13.5t6 21t10 37q11 42 26 83.5t29 83.5q0 3 1 5q1 5 3 10.5t4 10.5q15 42 27 78t12 57q0 9 -6.5 12.5t-14 6.5t-13.5 7.5t-6 15.5q0 14 9.5 20.5t23 9t28 2t24.5 -0.5
q14 0 26 -8t12 -24q0 -11 -7.5 -35t-19 -55t-24.5 -67t-24.5 -70t-19 -63t-7.5 -48q0 -35 20.5 -55t55.5 -20q19 0 46 10t53 25.5t46.5 34.5t26.5 37q14 42 29.5 83.5t26.5 84.5l33 106q0 10 -6 14.5t-13 8t-13 9t-6 16.5q0 9 6 14t14.5 6.5t17.5 1.5h15q7 0 17.5 -0.5
t20 -3t16 -8.5t6.5 -16q0 -9 -9 -39t-22 -70t-29 -86t-29 -87.5t-22 -73.5t-9 -44q0 -5 4 -9t8 -7q10 7 20.5 13.5t23.5 6.5q10 0 20 -7t10 -18q0 -12 -12 -22.5t-28.5 -17.5t-33.5 -11t-27 -4q-12 0 -23.5 4.5t-17.5 15.5q-6 5 -13 11.5t-15 6.5q-5 0 -20.5 -6t-35.5 -13
t-41.5 -13t-38.5 -6q-29 0 -57 11.5t-48 32.5q-5 -18 -12 -39l-16 -48q-17 -45 -27.5 -73.5t-18 -44t-13.5 -19t-13 2.5z" />
    <glyph glyph-name="currency" unicode="&#xa4;" horiz-adv-x="570" 
d="M555 654q4 0 10.5 -0.5t12.5 -2t10.5 -4.5t4.5 -7q0 -6 -9 -17.5t-23.5 -25t-31 -28t-31.5 -24.5q18 -17 27.5 -34t14 -36.5t5.5 -42.5t1 -52q0 -48 -20 -99t-54 -95q13 -9 28.5 -23t28.5 -27.5t22 -26t9 -18.5q0 -9 -7.5 -14t-15.5 -5q-6 0 -18 7t-26.5 17.5t-30 23.5
t-27.5 26q-32 -31 -70 -49t-79 -18q-73 0 -118 33q-12 -12 -26.5 -24.5t-28 -22.5t-24.5 -16t-17 -6q-8 0 -15.5 5t-7.5 14q0 6 7.5 17t19.5 24t26.5 26t27.5 23q-32 47 -32 124q0 56 23 116.5t64 109.5q-15 10 -32.5 24.5t-32.5 29t-25 27t-10 18.5q0 4 4.5 7t10.5 4.5
t12.5 2t10.5 0.5q6 0 18 -7.5t26 -19t28 -25t25 -26.5q32 29 70.5 46.5t81.5 17.5q23 0 45 -5.5t41 -18.5q10 12 24.5 26t28.5 25t26 18.5t18 7.5zM166 232q9 -24 18.5 -42t23 -29.5t32.5 -17.5t48 -6q48 0 84 28t60 70t36 90t12 88q0 21 -6 43t-17.5 39.5t-29 28.5
t-41.5 11q-63 0 -105.5 -27.5t-68 -71t-36 -97.5t-10.5 -107z" />
    <glyph glyph-name="brokenbar" unicode="&#xa6;" horiz-adv-x="276" 
d="M141 251q-6 -26 -13.5 -50.5t-16.5 -49t-17.5 -50.5t-15.5 -54q-3 -14 -7.5 -31t-18.5 -23q-2 -1 -4.5 -2t-4.5 -1q-8 0 -19 8t-13 19t0.5 21t3.5 21q17 60 37.5 119t43.5 123q12 0 27.5 0.5t32.5 0.5zM229 695q9 0 21.5 -2.5t14.5 -18.5q0 -3 -8 -32t-21 -72t-28 -93
t-29 -96q-11 1 -25.5 1.5t-30.5 0.5l22 68q2 9 8 29t14 46t17 54t17.5 52t15.5 41.5t12 21.5z" />
    <glyph glyph-name="bullet" unicode="&#x2022;" horiz-adv-x="264" 
d="M160 483q20 0 41 -6.5t30 -26.5q0 -20 -7 -47t-20.5 -52t-32.5 -42t-43 -17q-32 0 -42.5 20.5t-10.5 48.5q0 19 4.5 40.5t15 39.5t26.5 30t39 12z" />
    <glyph glyph-name="dagger" unicode="&#x2020;" horiz-adv-x="351" 
d="M304 695q9 0 21.5 -2.5t14.5 -18.5q1 -4 -9.5 -40t-26.5 -88q22 2 43.5 4t44.5 2q5 0 12.5 -0.5t14 -2.5t11.5 -6t5 -12q0 -11 -6 -18t-6 -18q-24 5 -46 6.5t-46 1.5q-11 0 -20.5 -0.5t-19.5 -1.5q-12 -39 -24.5 -79.5t-23 -75t-18 -60t-9.5 -35.5q-6 -26 -13.5 -50.5
t-16.5 -49t-17.5 -50.5t-15.5 -54q-3 -14 -7.5 -31t-18.5 -23q-2 -1 -4.5 -2t-4.5 -1q-8 0 -19 8t-13 19t0.5 21t3.5 21q13 49 33.5 109.5t40 117.5t35.5 102t21 63q2 6 5.5 18.5t8.5 29.5q-20 0 -40 -3t-40 -3q-11 0 -22.5 6t-11.5 18q0 13 13 20t32.5 10t42 2.5t41.5 -1.5
q7 24 15 48.5t15.5 45t14 35t10.5 18.5z" />
    <glyph glyph-name="daggerdbl" unicode="&#x2021;" horiz-adv-x="431" 
d="M334 695q9 0 21.5 -2.5t14.5 -18.5q0 -3 -7.5 -30t-19.5 -68q23 2 44.5 4t44.5 2q5 0 12.5 -0.5t14 -2.5t11.5 -6t5 -12q0 -11 -6 -18t-6 -18q-24 5 -46 6.5t-46 1.5q-11 0 -21 -0.5t-20 -1.5q-13 -42 -26.5 -87t-25.5 -84.5t-20.5 -69t-11.5 -39.5q-7 -32 -18 -65
q23 2 44.5 4t44.5 2q5 0 12.5 -0.5t14 -2.5t11.5 -6t5 -12q0 -11 -6 -18t-6 -18q-24 5 -46 6.5t-46 1.5q-11 0 -22 -0.5t-22 -1.5q-8 -22 -15.5 -45t-13.5 -49q-3 -14 -7.5 -31t-18.5 -23q-2 -1 -4.5 -2t-4.5 -1q-8 0 -19 8t-13 19t0.5 21t3.5 21q5 18 11 38t13 41
q-17 -1 -33 -3t-32 -2q-11 0 -22.5 6t-11.5 18t11 19t28 10t37 3t39 -1q14 42 28.5 83.5t27 77t22 62.5t12.5 40q2 9 8.5 30t14.5 48q-20 0 -40 -3t-39 -3q-11 0 -22.5 6t-11.5 18q0 13 13 20t32.5 10t41.5 2.5t41 -1.5q14 42 26.5 76t19.5 41z" />
    <glyph glyph-name="copyright" unicode="&#xa9;" horiz-adv-x="572" 
d="M428 679q43 0 84 -13.5t73 -38.5t51.5 -61t19.5 -82v-100q0 -38 -12 -73.5t-24 -70.5q-16 -46 -44 -90.5t-65.5 -79.5t-84 -56.5t-98.5 -21.5q-54 0 -98 21t-74.5 56t-47 82t-16.5 98q0 20 5.5 51.5t15 68t23 74t29.5 70t34 57t37 34.5q13 16 37 29.5t52 23.5t55.5 16
t47.5 6zM152 264q0 -41 10.5 -80t32 -69.5t55 -49t80.5 -18.5q58 0 107 35t84.5 87.5t55 113.5t19.5 113v43q0 30 -6.5 63.5t-22 61t-41 46t-62.5 18.5q-69 0 -115.5 -18t-78 -51.5t-53 -81t-41.5 -105.5q-3 -9 -7 -23.5t-8 -30.5t-6.5 -30.5t-2.5 -23.5zM549 556
q8 0 13.5 -10t5.5 -17q0 -5 -7 -32.5t-16.5 -58.5t-18 -56.5t-11.5 -28.5q-7 -7 -17 -7q-9 0 -17.5 6.5t-8.5 17.5q0 10 4 21.5t9.5 23t9.5 23.5t4 23q0 12 -10 19t-23.5 11.5t-28 6t-22.5 1.5q-41 0 -72 -17.5t-51.5 -47.5t-30.5 -69t-10 -81q0 -52 23 -82.5t72 -30.5
q24 0 40.5 8t30 17.5t26 17.5t27.5 8q8 0 11.5 -8.5t3.5 -16.5q0 -13 -17.5 -26.5t-40.5 -24.5t-46 -18t-33 -7q-29 0 -56 10t-47.5 29t-32.5 46t-12 62q0 49 14 99t40 91t64.5 67t87.5 26q15 0 32 -4.5t31 -10.5l24.5 -10.5t12.5 -4.5q5 0 9.5 5.5t9 12t10.5 12t14 5.5z
" />
    <glyph glyph-name="registered" unicode="&#xae;" horiz-adv-x="766" 
d="M460 693q51 0 100 -13.5t87 -39t61.5 -62.5t23.5 -84v-102q0 -38 -14.5 -75t-28.5 -72q-19 -47 -52 -92.5t-78 -81t-100 -57.5t-118 -22q-65 0 -117 21t-88.5 57t-56 83.5t-19.5 100.5q0 21 6.5 53t18 69t27.5 75.5t35 71.5t40 58t44 35q16 16 44.5 30t61.5 24.5t66 16.5
t57 6zM131 270q0 -42 12.5 -82t38.5 -71t66 -50t95 -19q49 0 92.5 18t79.5 49q-21 0 -32.5 8.5t-17.5 21t-8.5 27t-4.5 27t-5.5 20.5t-12.5 8q-14 0 -20 -18t-15 -40t-27 -40t-56 -18q-7 0 -18 1t-21.5 4t-18 9t-7.5 16q0 13 6.5 17.5t16.5 5.5t20 -0.5t18 -1.5
q11 0 22 15.5t22 40t21.5 54t19 57t14.5 50t9 32.5q-16 -1 -26.5 5.5t-10.5 23.5q0 14 9.5 20t22.5 8t27 1.5t22 -0.5q12 0 19.5 -11t7.5 -22q0 -18 -8 -37.5t-18 -39t-18.5 -39t-8.5 -37.5q26 0 48.5 12.5t39.5 32t26.5 44t9.5 48.5t-13.5 38.5t-33 22.5t-41.5 11t-40 3
q-34 0 -63 -9.5t-50.5 -28t-33.5 -46t-12 -62.5q0 -23 13 -35.5t28 -20.5t28 -14.5t13 -16.5q0 -14 -13 -21.5t-25 -7.5q-19 0 -37.5 11t-33 27.5t-23.5 36.5t-9 38q0 57 22.5 95.5t59.5 61.5t84 32.5t97 9.5q25 0 50.5 -11.5t45.5 -31t32.5 -44t12.5 -50.5q0 -30 -8 -51.5
t-22 -38t-33 -30.5t-42 -29h1l-20 -13q11 -18 15 -38.5t9 -40.5q9 3 16 9t17 6q11 0 19 -8q21 27 40.5 55.5t35 58t24.5 58t9 54.5q0 47 -11 90.5t-33.5 77t-56 53.5t-77.5 20q-83 0 -139.5 -18.5t-96.5 -52.5t-67.5 -82t-51.5 -108q-3 -9 -6.5 -24t-5.5 -31.5t-3.5 -31
t-1.5 -23.5z" />
    <glyph glyph-name="caron" unicode="&#x2c7;" horiz-adv-x="0" 
d="M212 577q-11 3 -24.5 17t-24.5 31.5t-18.5 35t-7.5 27.5q0 8 6 13t13 5q19 0 35 -20.5t26 -44.5q10 11 21.5 22.5t23 20.5t21 14.5t15.5 5.5q11 0 18 -6t7 -17q0 -8 -13.5 -25.5t-32 -35t-37 -30.5t-28.5 -13z" />
    <glyph glyph-name="Scaron" unicode="&#x160;" horiz-adv-x="642" 
d="M447 683q25 0 60 -5t66.5 -15.5t53.5 -26t22 -35.5q0 -11 -11 -18t-21 -7q-20 0 -35.5 8.5t-35.5 19t-48.5 18.5t-72.5 8q-23 0 -50 -9t-51 -24t-41 -35.5t-18 -44.5q7 -42 34.5 -61.5t65 -29t79.5 -16t77 -23t58 -50t23 -96.5q0 -57 -25.5 -102t-66.5 -75.5t-92.5 -47
t-103.5 -16.5q-39 0 -84.5 12.5t-84 36.5t-64.5 59.5t-26 81.5q0 15 4.5 40t14 48.5t24.5 41t35 17.5q14 0 23 -10t9 -23q0 -3 -1.5 -7.5l-2.5 -7.5q-19 -19 -30 -33t-11 -42q0 -45 20.5 -77t52 -51.5t70.5 -28.5t76 -9q35 0 72 14.5t67 39.5t49.5 58t19.5 71q0 46 -13.5 72
t-36.5 39.5t-52 19t-60 9.5t-61 10.5t-55 23.5t-43 43t-18 58q0 46 22.5 79.5t57 55.5t77 32t82.5 10zM492 755q-11 3 -24.5 17t-24.5 31.5t-18.5 35t-7.5 27.5q0 8 6 13t13 5q19 0 35 -20.5t26 -44.5q10 11 21.5 22.5t23 20.5t21 14.5t15.5 5.5q11 0 18 -6t7 -17
q0 -8 -13.5 -25.5t-32 -35t-37 -30.5t-28.5 -13z" />
    <glyph glyph-name="Zcaron" unicode="&#x17d;" horiz-adv-x="706" 
d="M457 696q34 0 60.5 -6t47.5 -12.5t35.5 -12.5t24.5 -6t18.5 5.5t16 11.5t15.5 11.5t18 5.5q9 0 17 -6t8 -16q-5 -15 -27 -46t-48 -66.5t-50.5 -69t-33.5 -54.5l36 -3q11 -1 24.5 -9t13.5 -20q0 -13 -11.5 -18.5t-27 -7.5t-31 -2t-22.5 -1q-6 -1 -17.5 -14t-26 -33
t-29.5 -43.5t-28.5 -44.5t-24 -37.5t-14.5 -22.5q-6 -9 -15.5 -20t-9.5 -23q0 -11 24 -25.5t55 -27.5t60.5 -21.5t40.5 -8.5q24 0 44.5 7.5t36.5 22t25 34.5t9 45q0 14 -5.5 28t-15 25t-22.5 18t-28 7q-14 0 -26.5 -6.5t-23 -14t-20 -13.5t-17.5 -6q-11 0 -20 9.5t-9 20.5
q0 13 14.5 23.5t33.5 18t38.5 11.5t30.5 4q26 0 50.5 -9t43 -25t29.5 -39t11 -50q0 -37 -14.5 -66.5t-38.5 -50.5t-55.5 -32.5t-65.5 -11.5q-39 0 -75 11.5t-66.5 25t-53 25t-34.5 10.5q-6 0 -23 -13.5t-43 -29t-60 -28.5t-73 -13q-14 0 -32 5.5t-34 15t-27.5 23t-11.5 29.5
q0 26 15.5 46t39 33t50 19.5t48.5 6.5q30 0 47 -3.5t28 -7t20 -6.5t23 -3q7 0 20 13.5t28.5 34t32 45.5t31.5 48.5t26.5 42.5t17.5 28q8 10 -2 12.5t-25.5 4t-29.5 5.5t-14 17q0 20 13 26t27 6q5 0 13.5 -0.5t18.5 -1t18.5 -0.5t13.5 2q4 1 13.5 13.5t21.5 30.5t25.5 39
t24.5 39.5t18 32t7 16.5q0 9 -19.5 17t-44 14t-48.5 10t-33 4q-41 0 -85 -10t-81 -33t-61 -62.5t-24 -97.5q0 -29 10 -54.5t37 -39.5q7 -4 20 -5.5t26.5 -4t23.5 -7.5t10 -15q0 -19 -15 -23t-29 -4q-26 0 -51 9.5t-45.5 28.5t-33 46t-12.5 63q-1 72 22 121.5t65 79.5t100 43
t127 13zM195 118q-11 0 -27.5 -1.5t-32.5 -6t-27 -13.5t-11 -23q0 -11 5 -17t13 -9t17 -4t17 -1q23 0 41.5 8.5t33.5 19.5t27.5 21.5t22.5 14.5q-20 3 -39.5 7t-39.5 4zM484 759q-11 3 -24.5 17t-24.5 31.5t-18.5 35t-7.5 27.5q0 8 6 13t13 5q19 0 35 -20.5t26 -44.5
q10 11 21.5 22.5t23 20.5t21 14.5t15.5 5.5q11 0 18 -6t7 -17q0 -8 -13.5 -25.5t-32 -35t-37 -30.5t-28.5 -13z" />
    <glyph glyph-name="zcaron" unicode="&#x17e;" horiz-adv-x="469" 
d="M472 502q8 0 20 1t23.5 -0.5t20 -6.5t8.5 -17q0 -5 -17.5 -24.5t-46 -47.5t-65 -63t-74.5 -70.5t-74.5 -70t-65 -62t-46 -46t-17.5 -22.5q0 -16 13 -16q12 0 35.5 -1t52.5 -1t59 2t55 8t41 17t16 29q0 10 -2 20t-2 20q0 16 11.5 21.5t25.5 5.5q23 0 32 -16t9 -36
q0 -42 -19 -67.5t-48.5 -39t-64.5 -17.5t-66 -4q-39 0 -87.5 -1t-87.5 -1h-25t-31.5 2.5t-27 9t-11.5 20.5q0 6 17.5 25t46.5 47.5t66 63t75.5 70t75.5 70t66 63t46.5 48.5t17.5 26q0 5 -6 6.5t-10 1.5q-29 0 -57 -1.5t-57 -1.5t-47.5 -11t-33 -24.5t-26.5 -24.5t-27 -11
q-10 0 -18.5 7.5t-8.5 18.5q0 8 3 13.5t8 10.5q25 30 52.5 46t58 22.5t64 7t69.5 0.5q18 0 40.5 0.5t40.5 0.5zM395 566q-11 3 -24.5 17t-24.5 31.5t-18.5 35t-7.5 27.5q0 8 6 13t13 5q19 0 35 -20.5t26 -44.5q10 11 21.5 22.5t23 20.5t21 14.5t15.5 5.5q11 0 18 -6t7 -17
q0 -8 -13.5 -25.5t-32 -35t-37 -30.5t-28.5 -13z" />
    <glyph glyph-name="Ydieresis" unicode="&#x178;" horiz-adv-x="708" 
d="M575 725q18 0 26 -2.5t10 -7.5t1 -11.5t-1 -13.5q0 -13 -8 -17t-19 -5.5t-22.5 -2.5t-18.5 -8q-4 -4 -18 -40t-32.5 -88t-39 -112t-37.5 -113t-28 -91.5t-11 -45.5q0 -20 7 -37t19.5 -29.5t29 -20t35.5 -7.5q20 0 46.5 9.5t52 24t47.5 32t33 34.5q10 15 17 32t12.5 34.5
t10.5 35t12 34.5q15 39 31 92t31.5 107t32 103.5t33.5 81.5q4 8 10 14t15 6q11 0 19.5 -7.5t8.5 -17.5q0 -14 -4.5 -26.5t-8.5 -24.5q-16 -53 -34 -101t-34 -99q-32 -101 -66.5 -201t-61.5 -203q-11 -39 -32.5 -74t-52 -61.5t-68 -41.5t-79.5 -15q-9 0 -26.5 0.5t-34.5 4
t-30 11t-13 20.5t11 21t23 8q18 0 35.5 -3.5t35.5 -3.5q28 0 58.5 12t56 32t42 47.5t16.5 57.5q0 12 -10 17q-8 0 -21.5 -8t-31.5 -17t-39 -16.5t-43 -7.5q-31 0 -58.5 10t-47.5 28.5t-32 45t-12 58.5q0 28 11 68.5t27 87t35 96t35 94t27 82t11 60.5q0 16 -18 16
q-48 0 -93.5 -17t-81.5 -47.5t-57.5 -73t-21.5 -93.5q0 -44 15 -65.5t33.5 -33t33.5 -19t15 -22.5q0 -14 -9 -23.5t-23 -9.5q-24 0 -46.5 15t-39 37t-26.5 48t-10 49q0 30 4 58t17 56q32 68 74 107.5t94.5 60.5t115 27.5t135.5 8.5zM667 904q7 0 15 -5.5t8 -13.5t-7 -19
t-17.5 -21t-22.5 -16.5t-22 -6.5q-11 0 -18 6t-7 17q0 8 7.5 18.5t18 19.5t23 15t22.5 6zM844 903q8 0 16 -4t8 -13q0 -8 -8.5 -19t-20.5 -21.5t-25 -17.5t-22 -7q-8 0 -15.5 5t-7.5 14t8.5 19.5t20.5 20.5t24.5 16.5t21.5 6.5z" />
    <glyph glyph-name="scaron" unicode="&#x161;" horiz-adv-x="446" 
d="M325 498q14 0 46 -4t64.5 -13t57.5 -23.5t25 -34.5q0 -11 -8.5 -19.5t-19.5 -8.5t-25.5 7.5t-33 16.5t-42.5 16.5t-54 7.5q-15 0 -35.5 -3.5t-39 -11.5t-32 -21t-13.5 -32q0 -17 7 -27t18 -16.5t26 -10t32 -6.5q29 -5 60.5 -15t57.5 -27t43 -42.5t17 -62.5
q0 -48 -20 -81.5t-52.5 -54.5t-73 -31t-81.5 -10q-39 0 -74.5 9t-61.5 28.5t-41.5 50t-15.5 74.5q0 20 8 38t32 18q17 0 23.5 -8t8 -19t-0.5 -23.5t-2 -22.5q0 -26 9.5 -43.5t26 -28t37 -15.5t43.5 -5t53.5 4.5t58 16.5t46.5 32.5t19 51.5t-10 50.5t-28 31.5t-42.5 18
t-53.5 10q-17 2 -40 8.5t-44 18.5t-35.5 30t-14.5 44q0 37 14.5 63.5t38.5 43t55.5 24t66.5 7.5zM383 574q-11 3 -24.5 17t-24.5 31.5t-18.5 35t-7.5 27.5q0 8 6 13t13 5q19 0 35 -20.5t26 -44.5q10 11 21.5 22.5t23 20.5t21 14.5t15.5 5.5q11 0 18 -6t7 -17
q0 -8 -13.5 -25.5t-32 -35t-37 -30.5t-28.5 -13z" />
    <glyph glyph-name="asciicircum" unicode="^" horiz-adv-x="405" 
d="M115 411q1 7 7 19t14 24.5t15.5 24.5t12.5 18q6 9 22 29.5t37 46.5t43 53.5t39 50.5q4 4 8 8.5t9 5.5q6 1 12.5 -4.5t13 -13.5t11 -17t5.5 -13q12 -31 27.5 -58.5t25.5 -56.5q4 -9 14 -33.5t20 -50.5t18 -46.5t7 -22.5q-2 -6 -12.5 -4t-18.5 5q-5 4 -15.5 23.5t-22 42.5
t-21 44t-12.5 28q-6 17 -19 43.5t-31 67.5q-19 -24 -37.5 -47t-36.5 -45q-4 -5 -14 -18t-22.5 -29t-26 -34t-25 -32.5t-20 -24t-9.5 -9.5q-6 -2 -10.5 7.5t-7.5 17.5z" />
    <glyph glyph-name="underscore" unicode="_" horiz-adv-x="489" 
d="M3 -135h486v-37h-486v37z" />
    <glyph glyph-name="florin" unicode="&#x192;" horiz-adv-x="279" 
d="M108 -82q-2 -7 -5.5 -17t-8 -20.5t-9 -20t-9.5 -14.5q-14 -14 -35 -25.5t-41 -11.5q-7 0 -16 0.5t-16.5 3.5t-13 8.5t-5.5 15.5q0 16 10.5 19.5t25 6.5t30 12t25.5 35q30 95 58 185.5t49 163t34 119t13 52.5q0 9 -9 11t-20 3t-20 5t-9 18q0 9 6.5 15.5t15.5 6.5
q6 3 12.5 4t12.5 1.5t11.5 2.5t11.5 8q16 17 25 38t17 42t17 41.5t24.5 36t39 25t61.5 9.5q7 0 16.5 -2t18.5 -5.5t15 -9.5t6 -15q0 -13 -8.5 -18.5t-20.5 -6.5t-24.5 0.5t-20.5 1.5q-20 0 -36 -13.5t-27 -33.5t-16.5 -42t-5.5 -40q0 -8 7 -11t16 -3.5t18 0t14 0.5
q12 0 26 -3t14 -19q0 -15 -11.5 -21.5t-27.5 -8.5t-32.5 -2t-26.5 -2q-12 -3 -21.5 -20.5t-17.5 -39.5t-14 -44t-9 -34z" />
    <glyph glyph-name="a" unicode="a" horiz-adv-x="487" 
d="M329 499q21 0 36 -4.5t28 -10.5t26 -12.5t31 -10.5q7 2 11.5 7.5t8.5 11t9 10t13 4.5q11 0 19.5 -9t4.5 -19q-6 -17 -15 -44.5t-20 -62t-22.5 -73.5t-23 -77t-21.5 -73.5t-17 -63.5q-1 -11 5.5 -9.5t17 6.5t23.5 11.5t25 6.5q10 0 17.5 -5t7.5 -16q0 -12 -10.5 -24
t-25.5 -21.5t-31 -15t-27 -5.5t-20 4t-17 9t-17 9t-20 4q-5 0 -16.5 -4.5t-25.5 -10.5t-29 -10.5t-27 -4.5q-46 0 -81.5 10t-59.5 32t-36.5 58t-12.5 88q0 60 22.5 116.5t61.5 101t92.5 71t115.5 26.5zM96 204q0 -20 4.5 -45.5t16.5 -48t32.5 -37.5t52.5 -14q43 1 73.5 11
t62.5 39q15 14 18.5 30t9.5 34q9 28 19 62.5t18.5 65t13 52.5t2.5 26q-3 16 -12.5 28.5t-22 20t-27 11.5t-29.5 4q-44 0 -85.5 -21t-74 -54.5t-52.5 -76.5t-20 -87z" />
    <glyph glyph-name="Elsoft" unicode="&#xa664;" horiz-adv-x="682" 
d="M505 673q13 0 43 -5t61.5 -14.5t55.5 -23.5t24 -32q0 -10 -8 -18t-18 -8q-5 0 -22 9t-41 19.5t-53 19.5t-60 9q-52 0 -90 -16.5t-66.5 -44.5t-48.5 -65.5t-34.5 -78.5t-26 -84t-22.5 -83q-9 -33 -18.5 -65.5t-9.5 -67.5q0 -29 21.5 -45t51 -23.5t61 -9t51.5 -1.5
q42 0 86 7.5t80 27t59 52t23 83.5q0 30 -13.5 51t-35 34t-48 18.5t-51.5 5.5q-24 0 -46.5 -6.5t-45.5 -6.5q-16 0 -28.5 5.5t-12.5 19.5q1 13 16 21t35.5 12.5t41 5.5t31.5 1q41 0 79.5 -9.5t68 -30t47.5 -52.5t18 -78q0 -61 -31.5 -102t-79 -66t-104 -35.5t-106.5 -10.5
q-52 0 -88 11t-64 24t-52.5 22t-52.5 6q-14 -2 -24 -3t-17 0t-10 5t-3 14q0 11 5.5 17t13.5 8.5t17 3t17 0.5q14 0 21 5.5t10 14.5t4 19.5t3 20.5q14 54 25.5 103t26.5 97q9 29 15.5 52t16.5 48q39 101 115.5 157t186.5 56z" />
    <glyph glyph-name="germandblS" unicode="&#x1e9e;" horiz-adv-x="705" 
d="M170 329q-9 -29 -20.5 -67t-23 -77t-21.5 -75.5t-16 -61.5q-2 -9 -5.5 -18.5t-8.5 -17.5t-13 -13t-18 -5q-19 0 -19 23q0 19 7 47.5t16.5 59.5t20 60t16.5 48q14 42 25 80.5t21.5 74.5t22.5 70t27 67q21 46 56 76.5t77 49t89 26.5t92 8q15 0 50 -3.5t71.5 -12t64.5 -22
t28 -34.5q0 -17 -20.5 -38t-47.5 -40.5t-54 -34.5t-40 -20q63 -29 98 -88t35 -146q0 -92 -39.5 -171.5t-105 -135t-150 -82.5t-175.5 -14q-9 1 -17.5 2t-14.5 4t-10 9.5t-4 19.5q0 12 10 20t21 8q15 0 30 -3t30 -3q32 0 63.5 2t62.5 11q53 15 96.5 48t74.5 77t48 95.5
t17 104.5q0 36 -11.5 73.5t-33.5 68.5t-54.5 51t-75.5 22q-18 1 -24 10t-1 19t19.5 19t35.5 11q35 11 76.5 32.5t74.5 52.5q-12 5 -25 11.5t-29.5 12.5t-37.5 9.5t-49 2.5q-46 -1 -80.5 -4t-61 -13t-47 -29t-39.5 -52t-39 -83t-45 -122z" />
    <glyph glyph-name="longs_h" unicode="&#xeba1;" horiz-adv-x="713" 
d="M598 711q11 0 25 -5.5t14 -19.5q0 -5 -2 -9q-3 -9 -19 -13.5t-36.5 -8.5t-41 -9t-31.5 -13q-21 -16 -36 -45t-20 -55q-2 -6 -3 -12t-1 -12q0 -7 4 -13t12 -6q26 0 49.5 9t49.5 9q78 0 115.5 -34.5t37.5 -112.5q0 -28 -13.5 -66.5t-29.5 -79t-29.5 -79t-13.5 -67.5
q1 -12 7.5 -11.5t15.5 5.5t18.5 11t16.5 6q12 0 19.5 -6t7.5 -19t-10.5 -23.5t-25 -17.5t-30 -11t-26.5 -4q-23 0 -43 16.5t-20 40.5q0 31 14 70.5t30.5 82t30.5 85t14 79.5q0 40 -21.5 64t-62.5 24q-15 0 -35 -4.5t-40 -12.5t-38 -18t-28 -21t-21 -36t-22.5 -58.5
t-22.5 -72.5t-21 -76t-19.5 -69.5t-16.5 -54.5q-5 -16 -14 -28.5t-28 -12.5q-15 0 -18.5 5.5t-3.5 23.5q0 1 5.5 19t12.5 40t13 41.5t7 22.5q22 74 38 131t29.5 105.5t26.5 92t31 91.5q11 31 29 58q-5 0 -9 0.5t-7 0.5q-35 0 -54 -4.5t-31 -17t-20 -35t-20 -58.5
q-6 -18 -14.5 -45t-17.5 -56t-18 -57.5t-15 -49.5q-19 -65 -39 -129t-29 -131q-2 -13 -7 -27t-17 -21q-14 -8 -30 -8q-13 0 -22.5 8t-9.5 22q0 12 5.5 28.5t13 34t15.5 34.5t12 29q2 7 9 30t16 53.5t18.5 64.5t17.5 63.5t13.5 50t5.5 23.5q0 9 -9 11t-20 3t-20 5t-9 18
q0 9 6.5 15.5t15.5 6.5q6 3 13 3.5t14 0.5t12.5 2t8.5 10q22 53 38 87.5t37.5 54.5t55.5 28t93 8q8 0 20.5 -3t22.5 -9q26 17 61 28.5t64 11.5z" />
    <glyph glyph-name="longs_i" unicode="&#xeba2;" horiz-adv-x="431" 
d="M390 697q7 0 16.5 -2t18.5 -5.5t15 -9.5t6 -15q0 -13 -8.5 -18.5t-20.5 -6.5t-24.5 0.5t-20.5 1.5q-20 0 -34 -14t-23.5 -34t-15.5 -42t-12 -39q-6 -18 -14.5 -45t-17.5 -56t-18 -57.5t-15 -49.5q-19 -65 -39 -129t-29 -131q-2 -13 -7 -27t-17 -21q-14 -8 -30 -8
q-13 0 -22.5 8t-9.5 22q0 12 5.5 28.5t13 34t15.5 34.5t12 29q2 7 9 30t16 53.5t18.5 64.5t17.5 63.5t13.5 50t5.5 23.5q0 9 -9 11t-20 3t-20 5t-9 18q0 9 6.5 15.5t15.5 6.5q6 3 12.5 4t12.5 1.5t11.5 2.5t11.5 8q16 17 25 38t17 42t17 41.5t24.5 36t39 25t61.5 9.5z
M544 703q12 0 22.5 -8.5t10.5 -21.5q0 -8 -14.5 -27t-33 -39t-37 -35t-26.5 -15q-12 0 -25 6t-13 20q0 8 17.5 27.5t38.5 40t39.5 36.5t20.5 16zM396 491q8 0 16 3t16 3q14 0 23.5 -10t9.5 -24q0 -10 -8.5 -38t-21 -65.5t-27.5 -80.5t-27.5 -82.5t-21.5 -71t-9 -46.5
q-1 -9 3 -11.5t11 -2.5t15 1.5t14 1.5q13 0 26.5 -9t13.5 -23t-9 -21t-22 -10t-27.5 -3h-25.5q-12 0 -25 3t-23.5 10t-17 17t-6.5 24q0 15 8.5 45.5t21 67t27.5 76.5t27.5 75t21 61.5t8.5 36.5q0 9 -9 11.5t-19.5 4.5t-19 6.5t-8.5 16.5q0 13 6.5 20t16.5 10t21.5 3.5
t20.5 0.5z" />
    <glyph glyph-name="longs_l" unicode="&#xeba3;" horiz-adv-x="421" 
d="M507 680q0 -1 -2 -8.5t-5 -16t-5.5 -16.5t-3.5 -11q-3 -12 -12 -40t-20.5 -66.5t-25.5 -84.5t-28 -93t-27.5 -91.5t-23.5 -81t-16 -61.5t-6 -32q0 -9 5.5 -12t13 -3t15.5 1t13 1q9 0 21.5 -2.5t12.5 -15.5q0 -10 -7 -19t-16.5 -15.5t-20.5 -10.5t-20 -4q-14 0 -29 1.5
t-27 7t-20 16t-8 27.5q0 14 5.5 35t12.5 44.5t14.5 45.5t12.5 37q4 14 15 49.5t25.5 80.5t29.5 94.5t28 92.5t21 74t8 39q0 7 -8.5 7.5t-19.5 -1t-21.5 -4t-15.5 -2.5q-20 0 -34 -14t-23.5 -34t-15.5 -42t-12 -39q-6 -18 -14.5 -45t-17.5 -56t-18 -57.5t-15 -49.5
q-19 -65 -39 -129t-29 -131q-2 -13 -7 -27t-17 -21q-14 -8 -30 -8q-13 0 -22.5 8t-9.5 22q0 12 5.5 28.5t13 34t15.5 34.5t12 29q2 7 9 30t16 53.5t18.5 64.5t17.5 63.5t13.5 50t5.5 23.5q0 9 -9 11t-20 3t-20 5t-9 18q0 9 6.5 15.5t15.5 6.5q6 3 12.5 4t12.5 1.5t11.5 2.5
t11.5 8q16 17 25 38t17 42t17 41.5t24.5 36t39 25t61.5 9.5q15 0 32.5 5.5t38.5 5.5h16.5t15 -2.5t10.5 -8.5t4 -17z" />
    <glyph glyph-name="longs_longs" unicode="&#xeba6;" horiz-adv-x="396" 
d="M588 697q7 0 16.5 -2t18.5 -5.5t15 -9.5t6 -15q0 -13 -8.5 -18.5t-20.5 -6.5t-24.5 0.5t-20.5 1.5q-20 0 -34 -14t-23.5 -34t-15.5 -42t-12 -39q-6 -18 -14.5 -45t-17.5 -56t-18 -57.5t-15 -49.5q-19 -65 -39 -129t-29 -131q-2 -13 -7 -27t-17 -21q-14 -8 -30 -8
q-13 0 -22.5 8t-9.5 22q0 12 5.5 28.5t13 34t15.5 34.5t12 29q2 7 9 30t16 53.5t18.5 64.5t17.5 63.5t13.5 50t5.5 23.5q0 9 -9 11t-20 3t-20 5t-9 18q0 9 6.5 15.5t15.5 6.5q6 3 12.5 4t12.5 1.5t11.5 2.5t11.5 8q11 12 21 27t15 31.5t2.5 32t-15.5 27.5q-14 10 -26 14.5
t-29 4.5q-20 0 -34 -14t-23.5 -34t-15.5 -42t-12 -39q-6 -18 -14.5 -45t-17.5 -56t-18 -57.5t-15 -49.5q-19 -65 -39 -129t-29 -131q-2 -13 -7 -27t-17 -21q-14 -8 -30 -8q-13 0 -22.5 8t-9.5 22q0 12 5.5 28.5t13 34t15.5 34.5t12 29q2 7 9 30t16 53.5t18.5 64.5t17.5 63.5
t13.5 50t5.5 23.5q0 9 -9 11t-20 3t-20 5t-9 18q0 9 6.5 15.5t15.5 6.5q6 3 12.5 4t12.5 1.5t11.5 2.5t11.5 8q16 17 25 38t17 42t17 41.5t24.5 36t39 25t61.5 9.5q8 0 20.5 -3.5t36.5 -16.5q16 -13 29 -28q15 21 41 34.5t71 13.5z" />
    <glyph glyph-name="longs_longs_i" unicode="&#xeba7;" horiz-adv-x="629" 
d="M588 697q7 0 16.5 -2t18.5 -5.5t15 -9.5t6 -15q0 -13 -8.5 -18.5t-20.5 -6.5t-24.5 0.5t-20.5 1.5q-20 0 -34 -14t-23.5 -34t-15.5 -42t-12 -39q-6 -18 -14.5 -45t-17.5 -56t-18 -57.5t-15 -49.5q-19 -65 -39 -129t-29 -131q-2 -13 -7 -27t-17 -21q-14 -8 -30 -8
q-13 0 -22.5 8t-9.5 22q0 12 5.5 28.5t13 34t15.5 34.5t12 29q2 7 9 30t16 53.5t18.5 64.5t17.5 63.5t13.5 50t5.5 23.5q0 9 -9 11t-20 3t-20 5t-9 18q0 9 6.5 15.5t15.5 6.5q6 3 12.5 4t12.5 1.5t11.5 2.5t11.5 8q11 12 21 27t15 31.5t2.5 32t-15.5 27.5q-14 10 -26 14.5
t-29 4.5q-20 0 -34 -14t-23.5 -34t-15.5 -42t-12 -39q-6 -18 -14.5 -45t-17.5 -56t-18 -57.5t-15 -49.5q-19 -65 -39 -129t-29 -131q-2 -13 -7 -27t-17 -21q-14 -8 -30 -8q-13 0 -22.5 8t-9.5 22q0 12 5.5 28.5t13 34t15.5 34.5t12 29q2 7 9 30t16 53.5t18.5 64.5t17.5 63.5
t13.5 50t5.5 23.5q0 9 -9 11t-20 3t-20 5t-9 18q0 9 6.5 15.5t15.5 6.5q6 3 12.5 4t12.5 1.5t11.5 2.5t11.5 8q16 17 25 38t17 42t17 41.5t24.5 36t39 25t61.5 9.5q8 0 20.5 -3.5t36.5 -16.5q16 -13 29 -28q15 21 41 34.5t71 13.5zM594 491q8 0 16 3t16 3q14 0 23.5 -10
t9.5 -24q0 -10 -8.5 -38t-21 -65.5t-27.5 -80.5t-27.5 -82.5t-21.5 -71t-9 -46.5q-1 -9 3 -11.5t11 -2.5t15 1.5t14 1.5q13 0 26.5 -9t13.5 -23t-9 -21t-22 -10t-27.5 -3h-25.5q-12 0 -25 3t-23.5 10t-17 17t-6.5 24q0 15 8.5 45.5t21 67t27.5 76.5t27.5 75t21 61.5
t8.5 36.5q0 9 -9 11.5t-19.5 4.5t-19 6.5t-8.5 16.5q0 13 6.5 20t16.5 10t21.5 3.5t20.5 0.5zM742 703q12 0 22.5 -8.5t10.5 -21.5q0 -8 -14.5 -27t-33 -39t-37 -35t-26.5 -15q-12 0 -25 6t-13 20q0 8 17.5 27.5t38.5 40t39.5 36.5t20.5 16z" />
    <glyph glyph-name="longs_longs_l" unicode="&#xeba8;" horiz-adv-x="616" 
d="M588 697q15 0 32.5 5.5t38.5 5.5h16.5t15 -2.5t10.5 -8.5t4 -17q0 -1 -2 -8.5t-5 -16t-5.5 -16.5t-3.5 -11q-3 -12 -12 -40t-20.5 -66.5t-25.5 -84.5t-28 -93t-27.5 -91.5t-23.5 -81t-16 -61.5t-6 -32q0 -9 5.5 -12t13 -3t15.5 1t13 1q9 0 21.5 -2.5t12.5 -15.5
q0 -10 -7 -19t-16.5 -15.5t-20.5 -10.5t-20 -4q-14 0 -29 1.5t-27 7t-20 16t-8 27.5q0 14 5.5 35t12.5 44.5t14.5 45.5t12.5 37q4 14 15 49.5t25 80.5t29.5 94t28 92t20.5 74t8 39q0 7 -8 8t-19 -0.5t-21.5 -4t-15.5 -2.5q-20 0 -34 -14t-23.5 -34t-15.5 -42t-12 -39
q-6 -18 -14.5 -45t-17.5 -56t-18 -57.5t-15 -49.5q-19 -65 -39 -129t-29 -131q-2 -13 -7 -27t-17 -21q-14 -8 -30 -8q-13 0 -22.5 8t-9.5 22q0 12 5.5 28.5t13 34t15.5 34.5t12 29q2 7 9 30t16 53.5t18.5 64.5t17.5 63.5t13.5 50t5.5 23.5q0 9 -9 11t-20 3t-20 5t-9 18
q0 9 6.5 15.5t15.5 6.5q6 3 12.5 4t12.5 1.5t11.5 2.5t11.5 8q11 12 21 27t15 31.5t2.5 32t-15.5 27.5q-14 10 -26 14.5t-29 4.5q-20 0 -34 -14t-23.5 -34t-15.5 -42t-12 -39q-6 -18 -14.5 -45t-17.5 -56t-18 -57.5t-15 -49.5q-19 -65 -39 -129t-29 -131q-2 -13 -7 -27
t-17 -21q-14 -8 -30 -8q-13 0 -22.5 8t-9.5 22q0 12 5.5 28.5t13 34t15.5 34.5t12 29q2 7 9 30t16 53.5t18.5 64.5t17.5 63.5t13.5 50t5.5 23.5q0 9 -9 11t-20 3t-20 5t-9 18q0 9 6.5 15.5t15.5 6.5q6 3 12.5 4t12.5 1.5t11.5 2.5t11.5 8q16 17 25 38t17 42t17 41.5t24.5 36
t39 25t61.5 9.5q8 0 20.5 -3.5t36.5 -16.5q16 -13 29 -28q15 21 41 34.5t71 13.5z" />
    <glyph glyph-name="c_k" unicode="&#xeec4;" horiz-adv-x="872" 
d="M780 685q11 0 20.5 -5.5t9.5 -17.5q0 -20 -13.5 -25.5t-32 -8.5t-38 -9.5t-31.5 -29.5q-1 -3 -10 -32t-22 -72t-28 -92t-27.5 -91.5t-20.5 -71t-8 -29.5q6 -10 19 -10q52 0 93 12.5t73.5 36.5t57.5 59.5t45 81.5q4 9 7 27t8 36t13 31.5t22 13.5q10 0 18 -6.5t8 -17.5
q0 -51 -19.5 -97t-51 -86t-71.5 -72t-81 -54q-5 -3 -4.5 -8t0.5 -7q0 -5 8.5 -20t20 -31t22.5 -28t17 -12q11 0 21 7t21 7q10 0 19.5 -6t9.5 -17t-8 -20.5t-19 -16.5t-24 -11t-22 -4q-30 0 -47 11.5t-27.5 28t-17.5 36.5t-16 36.5t-23.5 28t-39.5 11.5q-28 0 -42 -12
t-21 -29.5t-9.5 -38t-8.5 -38t-18 -29.5t-37 -12q-13 0 -19.5 11t-6.5 22q0 15 5 29.5t12 28.5q-27 -14 -57 -27.5t-58 -23.5t-51.5 -16.5t-37.5 -6.5q-38 -1 -72.5 10.5t-61 34t-42 54.5t-15.5 72q0 57 18 115.5t52 106t83.5 77.5t112.5 30q20 0 41.5 -5.5t40.5 -12t32 -12
t16 -5.5q7 0 12.5 6.5t11.5 14t13.5 14t18.5 6.5q10 0 17 -12t7 -20q0 -6 -9 -37.5t-21 -67.5t-23 -66t-15 -33q-10 -8 -22 -8t-23 7t-11 21q0 12 5.5 25t12 26.5t12 27t5.5 26.5t-13 22t-30.5 13.5t-36 6.5t-29.5 2q-53 0 -93 -20.5t-66.5 -55t-39.5 -79.5t-13 -94
q0 -61 30 -98t93 -34q52 3 91 19t66 36t43 38.5t23 26.5q11 12 24 40.5t27 67t29 83.5t29 90t27 86.5t24 72.5q6 16 22 29t36 21.5t41.5 13t37.5 4.5z" />
    <glyph glyph-name="f_j" unicode="&#xeec9;" horiz-adv-x="493" 
d="M503 506q14 0 23.5 -7.5t9.5 -21.5q0 -2 -6 -25t-16.5 -59.5t-23.5 -84t-27 -97t-28 -98.5t-26 -89.5t-20 -69t-11 -37.5q-7 -21 -17 -41.5t-25 -36t-34 -25.5t-44 -10q-7 0 -16 0.5t-16.5 3.5t-13 8.5t-5.5 15.5q0 16 12.5 20.5t29 8t34 13t27.5 35.5q16 41 31 88.5
t29.5 97t28 99t26.5 94.5l9 30t12.5 41.5t11 40.5t4.5 28q0 7 -12 10t-30 4t-39.5 0.5t-41.5 -1t-35 -0.5t-20 2q-11 5 -20.5 -11.5t-18 -41t-14.5 -49t-9 -36.5q-19 -65 -39 -129t-29 -131q-2 -13 -7 -27t-17 -21q-14 -8 -30 -8q-13 0 -22.5 8t-9.5 22q0 12 5.5 28.5t13 34
t15.5 34.5t12 29q2 7 9 30t16 53.5t18.5 64.5t17.5 63.5t13.5 50t5.5 23.5q0 9 -9 11t-20 3t-20 5t-9 18q0 9 6.5 15.5t15.5 6.5q6 3 12.5 4t12.5 1.5t11.5 2.5t11.5 8q16 17 25 38t17 42t17 41.5t24.5 36t39 25t61.5 9.5q7 0 16.5 -2t18.5 -5.5t15 -9.5t6 -15
q0 -13 -8.5 -18.5t-20.5 -6.5t-24.5 0.5t-20.5 1.5q-20 0 -36 -13.5t-27 -33.5t-16.5 -42t-5.5 -40q0 -8 14.5 -11t37.5 -4t49.5 0t50.5 3t41.5 3.5t22.5 1.5zM616 690q13 0 20.5 -10t7.5 -22q0 -5 -14.5 -22t-33.5 -35.5t-36.5 -33t-24.5 -14.5q-11 0 -19.5 7t-8.5 18
q0 9 13.5 28t31.5 37.5t36 32.5t28 14z" />
    <glyph glyph-name="f_t" unicode="&#xeecb;" horiz-adv-x="518" 
d="M556 652q11 0 20.5 -7.5t9.5 -18.5q0 -8 -6 -21.5t-13 -28.5t-13 -30t-6 -25q0 -17 12 -20.5t26 -5t26 -5.5t12 -21q0 -20 -14.5 -24.5t-33 -6t-36 -5t-24.5 -20.5q-4 -11 -13 -38t-19.5 -62t-22 -73t-21 -72t-15.5 -58.5t-6 -32.5q0 -17 16 -17q5 0 11 3.5t13.5 8t16 8
t19.5 3.5q9 0 14 -8.5t5 -16.5q0 -12 -11 -22.5t-26 -18t-31 -12t-26 -4.5q-25 0 -42 12.5t-17 40.5q0 37 14.5 89.5t32.5 106.5t32.5 102.5t14.5 77.5q0 8 -12 12t-30 6t-39 1.5t-40 -2t-33 -3t-17 -1.5q-12 -3 -21.5 -20.5t-17.5 -39.5t-14 -44t-9 -34q-19 -65 -39 -129
t-29 -131q-2 -13 -7 -27t-17 -21q-14 -8 -30 -8q-13 0 -22.5 8t-9.5 22q0 12 5.5 28.5t13 34t15.5 34.5t12 29q2 7 9 30t16 53.5t18.5 64.5t17.5 63.5t13.5 50t5.5 23.5q0 9 -9 11t-20 3t-20 5t-9 18q0 9 6.5 15.5t15.5 6.5q6 3 12.5 4t12.5 1.5t11.5 2.5t11.5 8
q16 17 25 38t17 42t17 41.5t24.5 36t39 25t61.5 9.5q7 0 16.5 -2t18.5 -5.5t15 -9.5t6 -15q0 -13 -8.5 -18.5t-20.5 -6.5t-24.5 0.5t-20.5 1.5q-20 0 -36 -13.5t-27 -33.5t-16.5 -42t-5.5 -40q0 -8 14 -11t31.5 -4t34 -0.5t21.5 0.5q7 0 22.5 -0.5t31 1t28 5.5t15.5 13
q2 8 6 20.5t8 26t8 26t7 20.5q0 17 12.5 29.5t29.5 12.5z" />
    <glyph glyph-name="f_f_t" unicode="&#xeece;" horiz-adv-x="797" 
d="M669 697q7 0 16.5 -2t18.5 -5.5t15 -9.5t6 -15q0 -13 -8.5 -18.5t-20.5 -6.5t-24.5 0.5t-20.5 1.5q-20 0 -36 -13.5t-27 -33.5t-16.5 -42t-5.5 -40q0 -4 14.5 -6t36.5 -2.5t47.5 0t47.5 2.5t36.5 5t15.5 7q1 8 4.5 20.5t8 25.5t9 25l7.5 20q0 17 12.5 29.5t29.5 12.5
q11 0 20.5 -7.5t9.5 -18.5q0 -8 -6 -21t-13 -28t-13 -29.5t-6 -24.5q0 -17 12 -20.5t26 -5t26 -5.5t12 -21q0 -20 -14.5 -24.5t-33 -6t-36 -5t-24.5 -20.5q-4 -11 -13 -38t-19.5 -62t-22 -73.5t-21 -72.5t-15.5 -59t-6 -33q0 -17 16 -17q5 0 11 3.5t13.5 8t16 8t19.5 3.5
q9 0 14 -8.5t5 -16.5q0 -12 -11 -22.5t-26 -18t-31 -12t-26 -4.5q-25 0 -42 12.5t-17 40.5q0 37 14.5 89.5t32.5 107t32.5 103.5t14.5 78q0 6 -12.5 9.5t-31 5t-40 1t-40.5 -1.5t-32.5 -2t-14.5 -1q-12 -3 -21.5 -20.5t-17.5 -39.5t-14 -44t-9 -34q-19 -65 -39 -129
t-29 -131q-2 -13 -7 -27t-17 -21q-14 -8 -30 -8q-13 0 -22.5 8t-9.5 22q0 12 5.5 28.5t13 34t15.5 34.5t12 29q2 7 9 30t16 53.5t18.5 64.5t17.5 63.5t13.5 50t5.5 23.5q0 9 -13 13.5t-33.5 6t-44 1t-44.5 -2t-36 -3.5t-18 -2q-12 -3 -21.5 -20.5t-17.5 -39.5t-14 -44
t-9 -34q-19 -65 -39 -129t-29 -131q-2 -13 -7 -27t-17 -21q-14 -8 -30 -8q-13 0 -22.5 8t-9.5 22q0 12 5.5 28.5t13 34t15.5 34.5t12 29q2 7 9 30t16 53.5t18.5 64.5t17.5 63.5t13.5 50t5.5 23.5q0 9 -9 11t-20 3t-20 5t-9 18q0 9 6.5 15.5t15.5 6.5q6 3 12.5 4t12.5 1.5
t11.5 2.5t11.5 8q16 17 25 38t17 42t17 41.5t24.5 36t39 25t61.5 9.5q7 0 16.5 -2t18.5 -5.5t15 -9.5t6 -15q0 -13 -8.5 -18.5t-20.5 -6.5t-24.5 0.5t-20.5 1.5q-20 0 -36 -13.5t-27 -33.5t-16.5 -42t-5.5 -40q0 -8 16 -10.5t36.5 -2.5t39 1t23.5 1q15 0 30.5 0.5t28.5 1.5
t21 3.5t10 7.5q11 33 19 65.5t24.5 58.5t47 42t86.5 16z" />
    <glyph glyph-name="t_t" unicode="&#xeed9;" horiz-adv-x="448" 
d="M486 652q11 0 20.5 -7.5t9.5 -18.5q0 -8 -4.5 -19.5t-9.5 -24t-9.5 -25.5t-4.5 -23q0 -17 12 -20.5t26 -5t26 -5.5t12 -21q0 -20 -14.5 -24.5t-33 -6t-36 -5t-24.5 -20.5q-4 -11 -13.5 -39t-21.5 -64t-25 -76t-23.5 -75.5t-17 -61t-6.5 -33.5q0 -17 16 -17q5 0 11 3.5
t13.5 8t16 8t19.5 3.5q9 0 14 -8.5t5 -16.5q0 -12 -11 -22.5t-26 -18t-31 -12t-26 -4.5q-25 0 -42 12.5t-17 40.5q0 37 17 93t38 114.5t38 110.5t17 81q0 9 -22 9.5t-48 0.5q-32 0 -59 -4.5t-34 -22.5q-4 -11 -14 -39.5t-22.5 -66t-26 -79t-24.5 -77.5t-18.5 -62.5
t-7.5 -34.5q0 -17 16 -17q5 0 11 3.5t13.5 8t16 8t19.5 3.5q9 0 14 -8.5t5 -16.5q0 -12 -11 -22.5t-26 -18t-31 -12t-26 -4.5q-25 0 -42 12.5t-17 40.5q0 24 7.5 57t19.5 70t25 75.5t25 73.5t19.5 64.5t7.5 48.5q0 9 -7.5 10.5t-17 2.5t-17 4.5t-7.5 15.5q0 24 11 30.5t25 8
t27 2.5t16 13q5 16 9 40t10 40q0 17 12.5 29.5t29.5 12.5q11 0 20.5 -7.5t9.5 -18.5q0 -8 -4.5 -19.5t-9.5 -24t-9.5 -25.5t-4.5 -23q0 -12 23 -17.5t51.5 -5.5t54.5 5t32 14q4 7 6.5 17.5t4.5 21.5t3.5 22t4.5 19q0 17 12.5 29.5t29.5 12.5z" />
    <glyph glyph-name="t_z" unicode="&#xe23a;" horiz-adv-x="442" 
d="M262 652q11 0 20.5 -7.5t9.5 -18.5q0 -8 -4.5 -20.5t-9.5 -26.5t-9.5 -28t-4.5 -24q0 -12 24 -17.5t56 -7t65.5 -1t51.5 0.5q8 0 20 1t23.5 -0.5t20 -6.5t8.5 -17q0 -6 -21 -29t-55 -55.5t-76 -72t-84 -78.5q22 -15 43 -38t36 -52.5t23.5 -66t6.5 -79.5
q-2 -48 -22.5 -81.5t-52 -54.5t-71.5 -31t-81 -10q-39 0 -74.5 9t-61.5 28.5t-41.5 50t-15.5 74.5q0 20 8 38t32 18q17 0 23.5 -8t8 -19t-0.5 -23.5t-2 -22.5q0 -26 9.5 -43.5t26 -28t37 -15.5t43.5 -5t52.5 4.5t56.5 16.5t46.5 32.5t21.5 51.5q3 46 -3 81.5t-18.5 62
t-30.5 44.5t-40 28q-27 15 -29.5 30t15.5 31q33 32 64 63t55.5 55t39.5 39.5t15 17.5q0 5 -6 6.5t-10 1.5q-29 0 -57 -1.5t-57 -1.5q-16 0 -28.5 -4.5t-25.5 -15.5q-4 -11 -13.5 -39t-21.5 -64t-25 -76t-23.5 -75.5t-17 -61t-6.5 -33.5q0 -17 16 -17q5 0 11 3.5t13.5 8t16 8
t19.5 3.5q9 0 14 -8.5t5 -16.5q0 -12 -11 -22.5t-26 -18t-31 -12t-26 -4.5q-25 0 -42 12.5t-17 40.5q0 24 7.5 57t19.5 70t25 75.5t25 73.5t19.5 64.5t7.5 48.5q0 9 -7.5 10.5t-17 2.5t-17 4.5t-7.5 15.5q0 24 11 30.5t25 8t27 2.5t16 13q5 16 9 40t10 40q0 17 12.5 29.5
t29.5 12.5z" />
    <glyph glyph-name="t_z" unicode="&#xeedc;" horiz-adv-x="442" 
d="M262 652q11 0 20.5 -7.5t9.5 -18.5q0 -8 -4.5 -20.5t-9.5 -26.5t-9.5 -28t-4.5 -24q0 -12 24 -17.5t56 -7t65.5 -1t51.5 0.5q8 0 20 1t23.5 -0.5t20 -6.5t8.5 -17q0 -6 -21 -29t-55 -55.5t-76 -72t-84 -78.5q22 -15 43 -38t36 -52.5t23.5 -66t6.5 -79.5
q-2 -48 -22.5 -81.5t-52 -54.5t-71.5 -31t-81 -10q-39 0 -74.5 9t-61.5 28.5t-41.5 50t-15.5 74.5q0 20 8 38t32 18q17 0 23.5 -8t8 -19t-0.5 -23.5t-2 -22.5q0 -26 9.5 -43.5t26 -28t37 -15.5t43.5 -5t52.5 4.5t56.5 16.5t46.5 32.5t21.5 51.5q3 46 -3 81.5t-18.5 62
t-30.5 44.5t-40 28q-27 15 -29.5 30t15.5 31q33 32 64 63t55.5 55t39.5 39.5t15 17.5q0 5 -6 6.5t-10 1.5q-29 0 -57 -1.5t-57 -1.5q-16 0 -28.5 -4.5t-25.5 -15.5q-4 -11 -13.5 -39t-21.5 -64t-25 -76t-23.5 -75.5t-17 -61t-6.5 -33.5q0 -17 16 -17q5 0 11 3.5t13.5 8t16 8
t19.5 3.5q9 0 14 -8.5t5 -16.5q0 -12 -11 -22.5t-26 -18t-31 -12t-26 -4.5q-25 0 -42 12.5t-17 40.5q0 24 7.5 57t19.5 70t25 75.5t25 73.5t19.5 64.5t7.5 48.5q0 9 -7.5 10.5t-17 2.5t-17 4.5t-7.5 15.5q0 24 11 30.5t25 8t27 2.5t16 13q5 16 9 40t10 40q0 17 12.5 29.5
t29.5 12.5z" />
    <glyph glyph-name="c_h" unicode="&#xf1bb;" horiz-adv-x="948" 
d="M833 711q11 0 25 -5.5t14 -19.5q0 -5 -2 -9q-3 -9 -19 -13.5t-36.5 -8.5t-41 -9t-31.5 -13q-21 -16 -36 -45t-20 -55q-2 -6 -3 -12t-1 -12q0 -7 4 -13t12 -6q26 0 49.5 9t49.5 9q78 0 115.5 -34.5t37.5 -112.5q0 -28 -13.5 -66.5t-29.5 -79t-29.5 -79t-13.5 -67.5
q1 -12 7.5 -11.5t15.5 5.5t18.5 11t16.5 6q12 0 19.5 -6t7.5 -19t-10.5 -23.5t-25 -17.5t-30 -11t-26.5 -4q-23 0 -43 16.5t-20 40.5q0 31 14 70.5t30.5 82t30.5 85t14 79.5q0 40 -21.5 64t-62.5 24q-15 0 -35 -4.5t-40 -12.5t-38 -18t-28 -21t-21 -36t-22.5 -58.5
t-22.5 -72.5t-21 -76t-19.5 -69.5t-16.5 -54.5q-5 -16 -14 -28.5t-28 -12.5q-15 0 -18.5 5.5t-3.5 23.5q0 1 2.5 10t6.5 22t8.5 28t9.5 29q-28 -22 -61 -42.5t-65.5 -37t-61.5 -26.5t-48 -10q-38 -1 -72.5 10.5t-61 34t-42 54.5t-15.5 72q0 57 18 115.5t52 106t83.5 77.5
t112.5 30q20 0 41.5 -5.5t40.5 -12t32 -12t16 -5.5q7 0 12.5 6.5t11.5 14t13.5 14t18.5 6.5q10 0 17 -12t7 -20q0 -6 -9 -37.5t-21 -67.5t-23 -66t-15 -33q-10 -8 -22 -8t-23 7t-11 21q0 12 5.5 25t12 26.5t12 27t5.5 26.5t-13 22t-30.5 13.5t-36 6.5t-29.5 2
q-53 0 -93 -20.5t-66.5 -55t-39.5 -79.5t-13 -94q0 -61 30 -96.5t93 -35.5q37 0 76 21t75.5 48.5t68 55.5t52.5 43q16 55 28 100.5t23.5 86t23.5 78.5t27 79q9 25 22.5 47.5t33.5 40.5q26 23 67 38.5t76 15.5z" />
    <glyph glyph-name="l_l" unicode="&#xf4f9;" horiz-adv-x="446" 
d="M532 680q0 -1 -2 -8.5t-5 -16t-5.5 -16.5t-3.5 -11q-3 -12 -12 -40t-20.5 -66.5t-25.5 -84.5t-28 -93t-27.5 -91.5t-23.5 -81t-16 -61.5t-6 -32q0 -9 5.5 -12t13 -3t15.5 1t13 1q9 0 21.5 -2.5t12.5 -15.5q0 -10 -7 -19t-16.5 -15.5t-20.5 -10.5t-20 -4q-14 0 -29 1.5
t-27 7t-20 16t-8 27.5v8.5t2 11.5q-20 -15 -42.5 -28t-42.5 -23t-35 -15.5t-21 -5.5q-14 0 -29 1.5t-27 7t-20 16t-8 27.5q0 14 5.5 35t12.5 44.5t14.5 45.5t12.5 37q4 14 14.5 48.5t24 78t28 91t26.5 89t19.5 71.5t7.5 38t-6.5 13.5t-15 10.5t-15 10.5t-6.5 13.5
q0 12 8.5 18.5t20.5 9.5t24.5 3.5t20.5 0.5h16.5t15 -2.5t10.5 -8.5t4 -17q0 -1 -2 -8.5t-5 -16t-5.5 -16.5t-3.5 -11q-3 -12 -12 -40t-20.5 -66.5t-25.5 -84.5t-28 -93t-27.5 -91.5t-23.5 -81t-16 -61.5t-6 -32q0 -9 5.5 -12t13 -3t15.5 1t13 1q4 0 22.5 7.5t41 20t43.5 29
t30 34.5q4 12 6 19t3.5 12.5l3 11t4.5 13.5q4 14 14.5 48.5t24 78t28 91t26.5 89t19.5 71.5t7.5 38t-6.5 13.5t-15 10.5t-15 10.5t-6.5 13.5q0 12 8.5 18.5t20.5 9.5t24.5 3.5t20.5 0.5h16.5t15 -2.5t10.5 -8.5t4 -17z" />
    <glyph glyph-name="l_l" unicode="&#xf6c0;" horiz-adv-x="446" 
d="M532 680q0 -1 -2 -8.5t-5 -16t-5.5 -16.5t-3.5 -11q-3 -12 -12 -40t-20.5 -66.5t-25.5 -84.5t-28 -93t-27.5 -91.5t-23.5 -81t-16 -61.5t-6 -32q0 -9 5.5 -12t13 -3t15.5 1t13 1q9 0 21.5 -2.5t12.5 -15.5q0 -10 -7 -19t-16.5 -15.5t-20.5 -10.5t-20 -4q-14 0 -29 1.5
t-27 7t-20 16t-8 27.5v8.5t2 11.5q-20 -15 -42.5 -28t-42.5 -23t-35 -15.5t-21 -5.5q-14 0 -29 1.5t-27 7t-20 16t-8 27.5q0 14 5.5 35t12.5 44.5t14.5 45.5t12.5 37q4 14 14.5 48.5t24 78t28 91t26.5 89t19.5 71.5t7.5 38t-6.5 13.5t-15 10.5t-15 10.5t-6.5 13.5
q0 12 8.5 18.5t20.5 9.5t24.5 3.5t20.5 0.5h16.5t15 -2.5t10.5 -8.5t4 -17q0 -1 -2 -8.5t-5 -16t-5.5 -16.5t-3.5 -11q-3 -12 -12 -40t-20.5 -66.5t-25.5 -84.5t-28 -93t-27.5 -91.5t-23.5 -81t-16 -61.5t-6 -32q0 -9 5.5 -12t13 -3t15.5 1t13 1q4 0 22.5 7.5t41 20t43.5 29
t30 34.5q4 12 6 19t3.5 12.5l3 11t4.5 13.5q4 14 14.5 48.5t24 78t28 91t26.5 89t19.5 71.5t7.5 38t-6.5 13.5t-15 10.5t-15 10.5t-6.5 13.5q0 12 8.5 18.5t20.5 9.5t24.5 3.5t20.5 0.5h16.5t15 -2.5t10.5 -8.5t4 -17z" />
    <glyph glyph-name="longs_c_h" unicode="&#xf4fa;" horiz-adv-x="1146" 
d="M1031 711q11 0 25 -5.5t14 -19.5q0 -5 -2 -9q-3 -9 -19 -13.5t-36.5 -8.5t-41 -9t-31.5 -13q-21 -16 -36 -45t-20 -55q-2 -6 -3 -12t-1 -12q0 -7 4 -13t12 -6q26 0 49.5 9t49.5 9q78 0 115.5 -34.5t37.5 -112.5q0 -28 -13.5 -66.5t-29.5 -79t-29.5 -79t-13.5 -67.5
q1 -12 7.5 -11.5t15.5 5.5t18.5 11t16.5 6q12 0 19.5 -6t7.5 -19t-10.5 -23.5t-25 -17.5t-30 -11t-26.5 -4q-23 0 -43 16.5t-20 40.5q0 31 14 70.5t30.5 82t30.5 85t14 79.5q0 40 -21.5 64t-62.5 24q-15 0 -35 -4.5t-40 -12.5t-38 -18t-28 -21t-21 -36t-22.5 -58.5
t-22.5 -72.5t-21 -76t-19.5 -69.5t-16.5 -54.5q-5 -16 -14 -28.5t-28 -12.5q-15 0 -18.5 5.5t-3.5 23.5q0 1 7 24t15 49q-26 -17 -58.5 -35t-65.5 -32t-61.5 -23.5t-45.5 -9.5q-38 -1 -72.5 10.5t-61 34t-42 54.5t-15.5 72q0 57 18 115.5t52 106t83.5 77.5t112.5 30
q20 0 41.5 -5.5t40.5 -12t32 -12t16 -5.5q7 0 12.5 6.5t11.5 14t13.5 14t18.5 6.5q10 0 17 -12t7 -20q0 -6 -9 -37.5t-21 -67.5t-23 -66t-15 -33q-10 -8 -22 -8t-23 7t-11 21q0 12 5.5 25t12 26.5t12 27t5.5 26.5t-13 22t-30.5 13.5t-36 6.5t-29.5 2q-53 0 -93 -20.5
t-66.5 -55t-39.5 -79.5t-13 -94q0 -61 30 -96.5t93 -35.5q28 0 68 17t79 40t71 46t45 35q18 63 32 112.5t26 93t24.5 84t28.5 84.5q9 25 22.5 47.5t33.5 40.5q26 23 67 38.5t76 15.5zM390 697q7 0 16.5 -2t18.5 -5.5t15 -9.5t6 -15q0 -13 -8.5 -18.5t-20.5 -6.5t-24.5 0.5
t-20.5 1.5q-20 0 -34 -14t-23.5 -34t-15.5 -42t-12 -39q-6 -18 -14.5 -45t-17.5 -56t-18 -57.5t-15 -49.5q-19 -65 -39 -129t-29 -131q-2 -13 -7 -27t-17 -21q-14 -8 -30 -8q-13 0 -22.5 8t-9.5 22q0 12 5.5 28.5t13 34t15.5 34.5t12 29q2 7 9 30t16 53.5t18.5 64.5
t17.5 63.5t13.5 50t5.5 23.5q0 9 -9 11t-20 3t-20 5t-9 18q0 9 6.5 15.5t15.5 6.5q6 3 12.5 4t12.5 1.5t11.5 2.5t11.5 8q16 17 25 38t17 42t17 41.5t24.5 36t39 25t61.5 9.5z" />
    <glyph glyph-name="longs_j" unicode="&#xf4fb;" horiz-adv-x="412" 
d="M390 697q7 0 16.5 -2t18.5 -5.5t15 -9.5t6 -15q0 -13 -8.5 -18.5t-20.5 -6.5t-24.5 0.5t-20.5 1.5q-20 0 -34 -14t-23.5 -34t-15.5 -42t-12 -39q-6 -18 -14.5 -45t-17.5 -56t-18 -57.5t-15 -49.5q-19 -65 -39 -129t-29 -131q-2 -13 -7 -27t-17 -21q-14 -8 -30 -8
q-13 0 -22.5 8t-9.5 22q0 12 5.5 28.5t13 34t15.5 34.5t12 29q2 7 9 30t16 53.5t18.5 64.5t17.5 63.5t13.5 50t5.5 23.5q0 9 -9 11t-20 3t-20 5t-9 18q0 9 6.5 15.5t15.5 6.5q6 3 12.5 4t12.5 1.5t11.5 2.5t11.5 8q16 17 25 38t17 42t17 41.5t24.5 36t39 25t61.5 9.5z
M535 690q13 0 20.5 -10t7.5 -22q0 -5 -14.5 -22t-33.5 -35.5t-36.5 -33t-24.5 -14.5q-11 0 -19.5 7t-8.5 18q0 9 13.5 28t31.5 37.5t36 32.5t28 14zM422 495q14 0 23.5 -7.5t9.5 -21.5q0 -2 -10.5 -40.5t-27 -95.5t-36 -124t-37 -127.5t-30.5 -105t-17 -56.5
q-7 -21 -17 -41.5t-25 -36t-34 -25.5t-44 -10q-7 0 -16 0.5t-16.5 3.5t-13 8.5t-5.5 15.5q0 16 12.5 20.5t29 8t34 13t27.5 35.5q16 41 31 88.5t29.5 97t28 99t26.5 94.5q3 10 9 28l12.5 37.5t11 37t4.5 26.5q0 10 -7 14.5t-15.5 7.5t-15.5 7.5t-7 15.5q0 9 11 15.5t25 10
t28.5 5.5t21.5 2z" />
    <glyph glyph-name="longs_k" unicode="&#xf4fc;" horiz-adv-x="668" 
d="M590 685q11 0 20.5 -5.5t9.5 -17.5q0 -20 -13.5 -25.5t-32 -8.5t-38 -9.5t-31.5 -29.5q-1 -3 -10 -32t-22 -72t-28 -92t-27.5 -91.5t-20.5 -71t-8 -29.5q6 -10 19 -10q52 0 93 12.5t73.5 36.5t57.5 59.5t45 81.5q4 9 7 27t8 36t13 31.5t22 13.5q10 0 18 -6.5t8 -17.5
q0 -51 -19.5 -97t-51 -86t-71.5 -72t-81 -54q-5 -3 -4.5 -8t0.5 -7q0 -5 8.5 -20t20 -31t22.5 -28t17 -12q11 0 21 7t21 7q10 0 19.5 -6t9.5 -17t-8 -20.5t-19 -16.5t-24 -11t-22 -4q-30 0 -47 11.5t-27.5 28t-17.5 36.5t-16 36.5t-23.5 28t-39.5 11.5q-28 0 -42 -12
t-21 -29.5t-9.5 -38t-8.5 -38t-18 -29.5t-37 -12q-13 0 -19.5 11t-6.5 22q0 26 13.5 49.5t20.5 48.5q30 111 69 231.5t78 234.5q-4 27 -23 45t-45 18q-20 0 -34 -14t-23.5 -34t-15.5 -42t-12 -39q-6 -18 -14.5 -45t-17.5 -56t-18 -57.5t-15 -49.5q-19 -65 -39 -129t-29 -131
q-2 -13 -7 -27t-17 -21q-14 -8 -30 -8q-13 0 -22.5 8t-9.5 22q0 12 5.5 28.5t13 34t15.5 34.5t12 29q2 7 9 30t16 53.5t18.5 64.5t17.5 63.5t13.5 50t5.5 23.5q0 9 -9 11t-20 3t-20 5t-9 18q0 9 6.5 15.5t15.5 6.5q6 3 12.5 4t12.5 1.5t11.5 2.5t11.5 8q16 17 25 38t17 42
t17 41.5t24.5 36t39 25t61.5 9.5q26 0 48 -16t36 -36q23 20 57 30t59 10z" />
    <glyph glyph-name="longs_s" unicode="&#xf4fd;" horiz-adv-x="644" 
d="M390 697q7 0 16.5 -2t18.5 -5.5t15 -9.5t6 -15q0 -13 -8.5 -18.5t-20.5 -6.5t-24.5 0.5t-20.5 1.5q-20 0 -34 -14t-23.5 -34t-15.5 -42t-12 -39q-6 -18 -14.5 -45t-17.5 -56t-18 -57.5t-15 -49.5q-19 -65 -39 -129t-29 -131q-2 -13 -7 -27t-17 -21q-14 -8 -30 -8
q-13 0 -22.5 8t-9.5 22q0 12 5.5 28.5t13 34t15.5 34.5t12 29q2 7 9 30t16 53.5t18.5 64.5t17.5 63.5t13.5 50t5.5 23.5q0 9 -9 11t-20 3t-20 5t-9 18q0 9 6.5 15.5t15.5 6.5q6 3 12.5 4t12.5 1.5t11.5 2.5t11.5 8q16 17 25 38t17 42t17 41.5t24.5 36t39 25t61.5 9.5z
M523 498q14 0 46 -4t64.5 -13t57.5 -23.5t25 -34.5q0 -11 -8.5 -19.5t-19.5 -8.5t-25.5 7.5t-33 16.5t-42.5 16.5t-54 7.5q-15 0 -35.5 -3.5t-39 -11.5t-32 -21t-13.5 -32q0 -17 7 -27t18 -16.5t26 -10t32 -6.5q29 -5 60.5 -15t57.5 -27t43 -42.5t17 -62.5q0 -48 -20 -81.5
t-52.5 -54.5t-73 -31t-81.5 -10q-39 0 -74.5 9t-61.5 28.5t-41.5 50t-15.5 74.5q0 20 8 38t32 18q17 0 23.5 -8t8 -19t-0.5 -23.5t-2 -22.5q0 -26 9.5 -43.5t26 -28t37 -15.5t43.5 -5t53.5 4.5t58 16.5t46.5 32.5t19 51.5t-10 50.5t-28 31.5t-42.5 18t-53.5 10
q-17 2 -40 8.5t-44 18.5t-35.5 30t-14.5 44q0 37 14.5 63.5t38.5 43t55.5 24t66.5 7.5z" />
    </font>
</defs>
</svg>
